
<svg width="16" height="16" viewBox="0 0 16 16" fill="none" xmlns="http://www.w3.org/2000/svg">
<path opacity="0.3" fill-rule="evenodd" clip-rule="evenodd" d="M5.33366 2H4.66699C3.56242 2 2.66699 2.89543 2.66699 4V13.3333C2.66699 14.4379 3.56242 15.3333 4.66699 15.3333H11.3337C12.4382 15.3333 13.3337 14.4379 13.3337 13.3333V4C13.3337 2.89543 12.4382 2 11.3337 2H10.667V2.33333C10.667 2.88562 10.2193 3.33333 9.66699 3.33333H6.33366C5.78137 3.33333 5.33366 2.88562 5.33366 2.33333V2Z" fill="white"/>
<path fill-rule="evenodd" clip-rule="evenodd" d="M8.66667 1.33341L9.5 1.33341C9.77614 1.33341 10 1.55727 10 1.83341V2.16675C10 2.44289 9.77614 2.66675 9.5 2.66675H6.5C6.22386 2.66675 6 2.44289 6 2.16675V1.83342C6 1.55727 6.22386 1.33341 6.5 1.33341L7.33333 1.33341C7.33333 0.965225 7.63181 0.666748 8 0.666748C8.36819 0.666748 8.66667 0.965225 8.66667 1.33341Z" fill="white"/>
<rect x="4.66699" y="6.66675" width="3.33333" height="1.33333" rx="0.666667" fill="white"/>
<rect x="4.66699" y="9.33325" width="6" height="1.33334" rx="0.666668" fill="white"/>
</svg>
