<svg width="30" height="30" viewBox="0 0 30 30" fill="none" xmlns="http://www.w3.org/2000/svg">
<path d="M7.5 0C6.46875 0 5.625 0.84375 5.625 1.875V28.125C5.625 29.1562 6.46875 30 7.5 30H26.25C27.2812 30 28.125 29.1562 28.125 28.125V7.5L20.625 0H7.5Z" fill="#E2E5E7"/>
<path d="M22.5 7.5H28.125L20.625 0V5.625C20.625 6.65625 21.4688 7.5 22.5 7.5Z" fill="#B0B7BD"/>
<path d="M28.125 13.125L22.5 7.5H28.125V13.125Z" fill="#CAD1D8"/>
<path d="M24.375 24.375C24.375 24.8906 23.9531 25.3125 23.4375 25.3125H2.8125C2.29688 25.3125 1.875 24.8906 1.875 24.375V15C1.875 14.4844 2.29688 14.0625 2.8125 14.0625H23.4375C23.9531 14.0625 24.375 14.4844 24.375 15V24.375Z" fill="#50BEE8"/>
<path d="M5.42473 22.5002C5.17723 22.5002 4.90723 22.3642 4.90723 22.0352V17.778C4.90723 17.508 5.17723 17.313 5.42473 17.313H7.14129C10.5669 17.313 10.491 22.5002 7.20785 22.5002H5.42473ZM5.89723 18.2271V21.5852H7.14129C9.16535 21.5852 9.25441 18.2271 7.14129 18.2271H5.89723Z" fill="white"/>
<path d="M13.3598 22.5752C11.9732 22.6352 10.5332 21.7127 10.5332 19.8761C10.5332 18.0321 11.9723 17.1255 13.3598 17.1255C14.6713 17.1921 16.0429 18.0996 16.0429 19.8761C16.0429 21.6536 14.6713 22.5752 13.3598 22.5752ZM13.2773 18.1005C12.4373 18.1005 11.5232 18.693 11.5232 19.877C11.5232 21.0545 12.4382 21.6545 13.2773 21.6545C14.1398 21.6545 15.0613 21.0545 15.0613 19.877C15.0613 18.692 14.1398 18.1005 13.2773 18.1005Z" fill="white"/>
<path d="M16.9248 19.8686C16.9248 18.422 17.8323 17.178 19.5564 17.178C20.2089 17.178 20.7264 17.373 21.2729 17.8455C21.4754 18.032 21.4979 18.362 21.2954 18.572C21.0929 18.7511 20.7854 18.7295 20.6054 18.5495C20.2989 18.227 19.9839 18.138 19.5564 18.138C18.4023 18.138 17.8482 18.9555 17.8482 19.8695C17.8482 20.7995 18.3948 21.6536 19.5564 21.6536C19.9839 21.6536 20.3814 21.4802 20.7264 21.1736C20.9579 20.9936 21.2804 21.0827 21.4154 21.2636C21.5354 21.4286 21.5945 21.7061 21.3329 21.9677C20.8079 22.4561 20.1789 22.5536 19.5554 22.5536C17.7423 22.5536 16.9248 21.3152 16.9248 19.8686Z" fill="white"/>
<path d="M23.4375 25.3125H5.625V26.25H23.4375C23.9531 26.25 24.375 25.8281 24.375 25.3125V24.375C24.375 24.8906 23.9531 25.3125 23.4375 25.3125Z" fill="#CAD1D8"/>
</svg>
