<svg width="32" height="32" viewBox="0 0 32 32" fill="none" xmlns="http://www.w3.org/2000/svg">
<path opacity="0.25" d="M5.33366 13.3333H10.667V22.6666H13.3337V13.3333H18.667V22.6666H21.3337V13.3333H26.667V22.6666C28.1398 22.6666 29.3337 23.8605 29.3337 25.3333V26.6666C29.3337 28.1393 28.1398 29.3333 26.667 29.3333H5.33366C3.8609 29.3333 2.66699 28.1393 2.66699 26.6666V25.3333C2.66699 23.8605 3.8609 22.6666 5.33366 22.6666V13.3333Z" fill="#35D29A"/>
<path d="M2.66699 9.8054C2.66699 8.71499 3.33086 7.73443 4.34328 7.32947L15.01 3.0628C15.6457 2.80849 16.3549 2.80849 16.9907 3.0628L27.6574 7.32947C28.6698 7.73443 29.3337 8.71499 29.3337 9.8054V10.6666C29.3337 12.1394 28.1398 13.3333 26.667 13.3333H5.33366C3.8609 13.3333 2.66699 12.1394 2.66699 10.6666V9.8054Z" fill="#35D29A"/>
</svg>
