<svg width="50" height="50" viewBox="0 0 50 50" fill="none" xmlns="http://www.w3.org/2000/svg">
<path d="M43.7498 20.8333H27.0832V22.9166C27.0832 24.1666 26.2498 24.9999 24.9998 24.9999C23.7498 24.9999 22.9165 24.1666 22.9165 22.9166V20.8333H6.24984C4.99984 20.8333 4.1665 21.6666 4.1665 22.9166V27.0833H45.8332V22.9166C45.8332 21.6666 44.9998 20.8333 43.7498 20.8333Z" fill="#A1A5B7"/>
<path opacity="0.3" d="M24.9998 25.0001C23.7498 25.0001 22.9165 24.1667 22.9165 22.9167V6.25008C22.9165 5.00008 23.7498 4.16675 24.9998 4.16675C26.2498 4.16675 27.0832 5.00008 27.0832 6.25008V22.9167C27.0832 24.1667 26.2498 25.0001 24.9998 25.0001Z" fill="#A1A5B7"/>
<path opacity="0.3" d="M37.7083 43.7499H12.2917C11.25 43.7499 10.2083 42.9165 10 41.8749L6.25 27.0833H43.75L40 41.8749C39.7917 42.9165 38.75 43.7499 37.7083 43.7499ZM27.0833 37.4999V31.2499C27.0833 29.9999 26.25 29.1666 25 29.1666C23.75 29.1666 22.9167 29.9999 22.9167 31.2499V37.4999C22.9167 38.7499 23.75 39.5833 25 39.5833C26.25 39.5833 27.0833 38.7499 27.0833 37.4999ZM35.4167 37.4999V31.2499C35.4167 29.9999 34.5833 29.1666 33.3333 29.1666C32.0833 29.1666 31.25 29.9999 31.25 31.2499V37.4999C31.25 38.7499 32.0833 39.5833 33.3333 39.5833C34.5833 39.5833 35.4167 38.7499 35.4167 37.4999ZM18.75 37.4999V31.2499C18.75 29.9999 17.9167 29.1666 16.6667 29.1666C15.4167 29.1666 14.5833 29.9999 14.5833 31.2499V37.4999C14.5833 38.7499 15.4167 39.5833 16.6667 39.5833C17.9167 39.5833 18.75 38.7499 18.75 37.4999Z" fill="#A1A5B7"/>
</svg>
