<svg width="16" height="16" viewBox="0 0 16 16" fill="none" xmlns="http://www.w3.org/2000/svg">
<path fill-rule="evenodd" clip-rule="evenodd" d="M3.66699 2C3.11471 2 2.66699 2.44772 2.66699 3V13C2.66699 13.5523 3.11471 14 3.66699 14C4.21928 14 4.66699 13.5523 4.66699 13V3C4.66699 2.44772 4.21928 2 3.66699 2ZM7.00032 2C6.44803 2 6.00032 2.44772 6.00032 3V13C6.00032 13.5523 6.44803 14 7.00032 14C7.5526 14 8.00032 13.5523 8.00032 13V3C8.00032 2.44772 7.5526 2 7.00032 2Z" fill="white"/>
<rect opacity="0.3" x="8.98438" y="2.61621" width="2" height="12" rx="1" transform="rotate(-19 8.98438 2.61621)" fill="white"/>
</svg>