<svg width="51" height="36" viewBox="0 0 51 36" fill="none" xmlns="http://www.w3.org/2000/svg">
<path d="M39.2877 1.78512L49.0646 32.2267C49.5976 33.8865 48.3595 35.5844 46.6163 35.5844H39.427C38.3066 35.5844 37.3152 34.859 36.9762 33.7912L27.3104 3.34962C26.7839 1.69149 28.0215 0 29.7612 0H36.8394C37.9566 0 38.9461 0.721408 39.2877 1.78512Z" fill="#2C9AFF"/>
<path d="M29.9232 24.3L23.0291 2.21734C22.6173 0.898258 21.3959 0 20.014 0C18.332 0 16.945 1.31809 16.8594 2.99791L16.0184 19.5038C15.9885 20.09 16.0593 20.6771 16.2275 21.2394L19.9699 33.7499C20.2956 34.8386 21.2972 35.5844 22.4335 35.5844H25.9123C27.0315 35.5844 28.0222 34.8605 28.3623 33.7941L29.9092 28.9423C30.3904 27.433 30.3953 25.8122 29.9232 24.3Z" fill="#CFD0D0"/>
<path d="M13.0609 0H20.1417C21.8756 0 23.1126 1.681 22.5967 3.3364L13.0304 34.0377C12.6956 35.1122 11.7009 35.8442 10.5754 35.8442H3.4946C1.7607 35.8442 0.523778 34.1632 1.03959 32.5077L10.6059 1.80646C10.9408 0.731932 11.9355 0 13.0609 0Z" fill="#2C9AFF"/>
</svg>