<svg width="30" height="30" viewBox="0 0 30 30" fill="none" xmlns="http://www.w3.org/2000/svg">
<path d="M7.5 0C6.46875 0 5.625 0.84375 5.625 1.875V28.125C5.625 29.1562 6.46875 30 7.5 30H26.25C27.2812 30 28.125 29.1562 28.125 28.125V7.5L20.625 0H7.5Z" fill="#E2E5E7"/>
<path d="M22.5 7.5H28.125L20.625 0V5.625C20.625 6.65625 21.4688 7.5 22.5 7.5Z" fill="#B0B7BD"/>
<path d="M28.125 13.125L22.5 7.5H28.125V13.125Z" fill="#CAD1D8"/>
<path d="M24.375 24.375C24.375 24.8906 23.9531 25.3125 23.4375 25.3125H2.8125C2.29688 25.3125 1.875 24.8906 1.875 24.375V15C1.875 14.4844 2.29688 14.0625 2.8125 14.0625H23.4375C23.9531 14.0625 24.375 14.4844 24.375 15V24.375Z" fill="#F15642"/>
<path d="M5.96191 17.7629C5.96191 17.5154 6.15691 17.2454 6.47098 17.2454H8.20254C9.17754 17.2454 10.055 17.8979 10.055 19.1485C10.055 20.3335 9.17754 20.9935 8.20254 20.9935H6.95098V21.9835C6.95098 22.3135 6.74098 22.5 6.47098 22.5C6.22348 22.5 5.96191 22.3135 5.96191 21.9835V17.7629ZM6.95098 18.1894V20.0569H8.20254C8.70504 20.0569 9.10254 19.6135 9.10254 19.1485C9.10254 18.6244 8.70504 18.1894 8.20254 18.1894H6.95098Z" fill="white"/>
<path d="M11.5234 22.4999C11.2759 22.4999 11.0059 22.3649 11.0059 22.0359V17.7777C11.0059 17.5087 11.2759 17.3127 11.5234 17.3127H13.2399C16.6655 17.3127 16.5905 22.4999 13.3074 22.4999H11.5234ZM11.9959 18.2277V21.5859H13.2399C15.264 21.5859 15.354 18.2277 13.2399 18.2277H11.9959Z" fill="white"/>
<path d="M17.8048 18.2877V19.4793H19.7164C19.9864 19.4793 20.2564 19.7493 20.2564 20.0108C20.2564 20.2583 19.9864 20.4608 19.7164 20.4608H17.8048V22.0349C17.8048 22.2974 17.6183 22.499 17.3558 22.499C17.0258 22.499 16.8242 22.2974 16.8242 22.0349V17.7768C16.8242 17.5077 17.0267 17.3118 17.3558 17.3118H19.9873C20.3173 17.3118 20.5123 17.5077 20.5123 17.7768C20.5123 18.0168 20.3173 18.2868 19.9873 18.2868H17.8048V18.2877Z" fill="white"/>
<path d="M23.4375 25.3125H5.625V26.25H23.4375C23.9531 26.25 24.375 25.8281 24.375 25.3125V24.375C24.375 24.8906 23.9531 25.3125 23.4375 25.3125Z" fill="#CAD1D8"/>
</svg>
