<svg width="94" height="100" viewBox="0 0 94 100" fill="none" xmlns="http://www.w3.org/2000/svg">
<path d="M90.3955 99.5099C90.3075 99.5099 90.2305 99.4329 90.2305 99.3449V35.5449C90.2305 35.4569 90.3075 35.3799 90.3955 35.3799C90.4835 35.3799 90.5605 35.4569 90.5605 35.5449V99.3449C90.5605 99.4329 90.4835 99.5099 90.3955 99.5099Z" fill="#1D1E1B"/>
<path d="M93.5859 40.5499C93.4979 40.5499 93.4209 40.4729 93.4209 40.3849V27.8449C93.4209 27.7569 93.4979 27.6799 93.5859 27.6799C93.6739 27.6799 93.7509 27.7569 93.7509 27.8449V40.3849C93.7509 40.4729 93.6739 40.5499 93.5859 40.5499Z" fill="#1D1E1B"/>
<path d="M76.9098 64.3098C70.4418 72.0428 63.2368 78.1918 55.1408 82.4378C42.2818 89.1808 26.3868 85.7158 17.4328 74.2868C8.12682 62.4398 2.82482 48.2058 0.96582 31.9588C17.8618 29.6818 29.2358 28.3288 41.9958 14.4248C46.3298 38.7128 53.3258 65.5748 76.9098 64.3098Z" fill="#D9CFFF"/>
<path d="M41.1923 86.035C31.8643 86.035 23.0533 81.745 17.3003 74.408C12.6693 68.468 8.94032 61.879 6.25632 54.839C3.57232 47.876 1.74632 40.187 0.80032 31.992L0.77832 31.827L1.62532 31.717C18.3013 29.473 29.3233 27.988 41.8743 14.326L42.0943 14.084L42.1493 14.414C44.2173 25.986 47.0553 39.131 52.3793 48.888C58.2973 59.734 66.3163 64.728 76.8983 64.167L77.2833 64.145L77.0303 64.42C70.3753 72.384 63.0273 78.5 55.2063 82.592C50.8833 84.858 46.0763 86.035 41.1923 86.035ZM1.14132 32.102C3.05532 48.569 8.57732 62.737 17.5643 74.199C26.4963 85.595 42.2703 89.005 55.0633 82.306C62.7523 78.28 69.9793 72.285 76.5463 64.508C71.0793 64.728 66.1953 63.419 62.0263 60.614C58.2313 58.062 54.8983 54.168 52.0933 49.042C46.8023 39.34 43.9643 26.316 41.8963 14.788C36.1323 21.014 30.2253 25.095 23.3613 27.625C16.8933 30.001 9.84232 30.947 1.68032 32.047L1.14132 32.102Z" fill="#1D1E1B"/>
<path d="M22.0303 79.0059C22.0303 79.0059 33.8553 82.4049 39.7953 75.2549C39.7953 75.2549 44.9653 87.0248 53.2703 83.3399C53.2703 83.3399 37.2653 91.5568 22.0303 79.0059Z" fill="#6C32AD"/>
<path d="M40.8957 86.1448C38.3327 86.1448 35.7697 85.8038 33.2947 85.1328C29.2467 84.0218 25.4187 82.0088 21.9207 79.1268L21.3047 78.6208L22.0747 78.8408C24.1427 79.3688 26.2657 79.6328 28.3997 79.6438H28.6857C32.0187 79.5998 36.6387 78.7858 39.6637 75.1448L39.8287 74.9358L39.9387 75.1778C39.9717 75.2438 42.7877 81.5688 47.4957 83.3948C49.3547 84.1098 51.2687 84.0438 53.1937 83.1858L53.3367 83.4828C53.2927 83.5048 49.2337 85.5618 43.3707 86.0348C42.5457 86.1118 41.7207 86.1448 40.8957 86.1448ZM22.7127 79.3468C30.3467 85.3638 38.1127 86.1448 43.3377 85.7268C45.8457 85.5178 48.3207 85.0118 50.7077 84.2088C49.5747 84.3078 48.4417 84.1428 47.3857 83.7248C43.0847 82.0528 40.3347 76.7618 39.7627 75.5738C36.6497 79.1488 32.0407 79.9518 28.6967 79.9958C26.6727 79.9958 24.6707 79.7758 22.7127 79.3468Z" fill="#1D1E1B"/>
<path d="M11.0962 42.0899L11.0742 41.7599C11.1182 41.7599 15.4412 41.4409 20.8422 39.8899C25.8142 38.4599 32.7332 35.6769 37.4742 30.4849L37.7162 30.7049C32.9202 35.9629 25.9352 38.7789 20.9192 40.2089C15.4962 41.7709 11.1402 42.0899 11.0962 42.0899Z" fill="#1D1E1B"/>
<path d="M16.3546 49.4598C15.5516 49.4708 14.7376 49.4268 13.9346 49.3498L13.9786 49.0198C14.0116 49.0198 17.6196 49.4708 22.6576 48.5358C29.2906 47.3148 35.4286 44.2128 40.3566 39.6038L40.5876 39.8458C35.6156 44.4988 29.4006 47.6338 22.7016 48.8658C20.6006 49.2508 18.4776 49.4598 16.3546 49.4598Z" fill="#1D1E1B"/>
<path d="M20.2268 59.492C19.5228 59.492 19.1157 59.459 19.0938 59.459L19.1157 59.129C21.4917 59.228 23.8567 59.041 26.1887 58.579C29.7857 57.886 34.7908 56.203 38.2228 52.144L38.4757 52.353C34.9777 56.478 29.8957 58.194 26.2437 58.898C24.2747 59.294 22.2508 59.492 20.2268 59.492Z" fill="#1D1E1B"/>
<path d="M15.8157 66.565C15.6397 66.565 15.4637 66.488 15.3317 66.356C9.10568 59.8 4.99168 39.076 4.82668 38.196C4.76068 37.833 4.99168 37.492 5.34368 37.426C5.70668 37.36 6.04768 37.591 6.11368 37.943C6.15768 38.152 10.3267 59.173 16.2887 65.443C16.5417 65.707 16.5307 66.125 16.2667 66.378C16.1457 66.499 15.9807 66.565 15.8157 66.565Z" fill="white"/>
<path d="M8.44571 35.0498C8.37971 35.0498 8.31371 35.0058 8.29171 34.9398C6.83971 30.5178 6.12471 25.8868 6.17971 21.2338C6.22371 17.5488 6.76271 13.8968 7.77471 10.3548C9.50171 4.30484 12.0317 0.619838 12.0647 0.575838C12.1197 0.498838 12.2187 0.487839 12.2957 0.531839C12.3727 0.586839 12.3837 0.685839 12.3397 0.762839C12.3177 0.795839 9.79871 4.44784 8.09371 10.4538C6.52071 15.9868 5.33271 24.7098 8.62171 34.8298C8.64371 34.9178 8.59971 35.0058 8.51171 35.0388C8.47871 35.0388 8.45671 35.0498 8.44571 35.0498Z" fill="#1D1E1B"/>
<path d="M13.9456 33.2899C13.8906 33.2899 13.8466 33.2679 13.8136 33.2239C10.4806 28.9669 10.6566 23.5549 11.3936 19.7599C11.8886 17.2409 12.6916 14.7989 13.8026 12.4889C13.8466 12.4119 13.9456 12.3789 14.0226 12.4119C14.0996 12.4559 14.1326 12.5549 14.0886 12.6319C12.9996 14.9199 12.1966 17.3399 11.7126 19.8259C10.9976 23.5549 10.8216 28.8679 14.0776 33.0259C14.1326 33.1029 14.1216 33.2019 14.0446 33.2569C14.0226 33.2789 13.9786 33.2899 13.9456 33.2899Z" fill="#1D1E1B"/>
<path d="M31.7759 89.687C29.4879 89.698 27.2219 89.247 25.1099 88.367C22.7999 87.399 20.6439 85.903 18.6969 83.923C15.3859 80.557 13.8129 76.894 13.7909 76.861C13.7579 76.773 13.7909 76.685 13.8789 76.641C13.9669 76.608 14.0549 76.641 14.0989 76.729C14.1099 76.762 15.6719 80.381 18.9389 83.703C21.9529 86.761 27.0679 90.193 34.3829 89.17C34.4709 89.159 34.5589 89.225 34.5699 89.313C34.5809 89.401 34.5149 89.489 34.4269 89.5C33.5469 89.621 32.6559 89.687 31.7759 89.687Z" fill="#1D1E1B"/>
<path d="M70.0895 27.5918C67.6695 27.7788 65.3925 27.5808 63.3025 26.9098C59.9695 25.8318 57.8905 22.5318 58.3415 19.0558C58.8145 15.4588 60.3655 12.1478 62.8405 9.08984C66.0855 11.6088 68.2305 13.3358 72.7735 13.1818C69.3305 18.0218 65.8985 23.7528 70.0895 27.5918Z" fill="#D9CFFF"/>
<path d="M68.3952 27.8229C66.6462 27.8449 64.9082 27.5809 63.2472 27.0639C59.8372 25.9639 57.7142 22.5869 58.1762 19.0339C58.6382 15.5139 60.1672 12.1259 62.7082 8.97989L62.8072 8.85889L63.0602 9.05689C66.2392 11.5319 68.3402 13.1599 72.7622 13.0169L73.0922 13.0059L72.8942 13.2809C69.1652 18.5279 66.2502 23.8739 70.1882 27.4709L70.4632 27.7239L70.0892 27.7569C69.5282 27.8009 68.9562 27.8229 68.3952 27.8229ZM62.8732 9.30989C60.4312 12.3679 58.9572 15.6569 58.5062 19.0669C58.0552 22.4549 60.0902 25.6889 63.3462 26.7449C65.2492 27.3609 67.3832 27.5919 69.7042 27.4489C66.0522 23.7529 68.8132 18.5059 72.4432 13.3469C68.1202 13.4129 65.9092 11.6859 62.8732 9.30989Z" fill="#1D1E1B"/>
<path d="M58.3086 20.6399C58.3086 20.6399 59.7166 23.2469 61.9496 23.0599C61.9496 23.0599 60.7946 25.9309 62.8296 26.7339C62.8296 26.7449 58.7266 25.3699 58.3086 20.6399Z" fill="#6C32AD"/>
<path d="M62.7849 26.8989C62.7409 26.8879 58.5719 25.4469 58.1539 20.6619L58.0879 19.8809L58.4619 20.5739C58.4729 20.5959 59.8479 23.0819 61.9489 22.9059L62.2129 22.8839L62.1139 23.1369C62.1029 23.1479 61.5199 24.6549 61.9709 25.7219C62.1469 26.1289 62.4769 26.4479 62.8949 26.6019L62.7849 26.8989ZM58.5719 21.3329C59.0339 23.8739 60.6289 25.2929 61.7399 25.9969C61.7069 25.9419 61.6849 25.8869 61.6629 25.8319C61.2559 24.8969 61.5529 23.7199 61.7179 23.2249C60.2219 23.2359 59.1219 22.0809 58.5719 21.3329Z" fill="#1D1E1B"/>
<path d="M69.0445 15.3159C65.7995 15.3159 62.8515 12.7419 62.7305 12.6209L62.9505 12.3679C62.9835 12.4009 66.0635 15.0849 69.2535 14.9749L69.2645 15.3049C69.1875 15.3159 69.1215 15.3159 69.0445 15.3159Z" fill="#1D1E1B"/>
<path d="M68.1645 17.3509C64.1495 17.1749 61.9605 14.3479 61.9385 14.3259L62.2025 14.1279C62.2245 14.1609 64.3145 16.8559 68.1755 17.0209L68.1645 17.3509Z" fill="#1D1E1B"/>
<path d="M65.3701 19.1109C62.9721 19.1109 61.1571 17.0099 61.0801 16.9219L61.3331 16.7129C61.3551 16.7349 63.2801 18.9459 65.6561 18.7809L65.6781 19.1109C65.5681 19.1109 65.4691 19.1109 65.3701 19.1109Z" fill="#1D1E1B"/>
<path d="M59.5182 17.6369C59.3532 17.6369 59.2432 17.5049 59.2432 17.3509C59.3202 15.1399 62.2132 10.9159 62.3342 10.7289C62.4222 10.5969 62.5872 10.5639 62.7192 10.6519C62.8512 10.7399 62.8842 10.9049 62.7962 11.0369C62.7962 11.0369 62.7962 11.0479 62.7852 11.0479C62.7522 11.0919 59.8702 15.3269 59.7932 17.3729C59.7822 17.5159 59.6612 17.6369 59.5182 17.6369Z" fill="white"/>
<path d="M56.955 17.9997C56.867 17.9997 56.79 17.9227 56.79 17.8347C56.845 13.0717 58.627 9.70571 60.112 7.71471C61.718 5.55871 63.291 4.53571 63.357 4.50271C63.434 4.45871 63.533 4.48071 63.577 4.56871C63.621 4.64571 63.599 4.73371 63.533 4.78871C63.511 4.79971 61.938 5.82271 60.365 7.93471C58.913 9.88171 57.175 13.1817 57.12 17.8457C57.12 17.9227 57.043 17.9997 56.955 17.9997Z" fill="#1D1E1B"/>
<path d="M68.9342 55.147C68.0652 52.881 67.6142 50.648 67.6582 48.448C67.7462 44.95 70.3202 42.013 73.7852 41.463C77.3712 40.891 80.9902 41.441 84.6202 42.948C83.1242 46.776 82.0792 49.328 83.5202 53.64C77.8992 51.704 71.4202 50.032 68.9342 55.147Z" fill="#D9CFFF"/>
<path d="M68.9123 55.554L68.7803 55.202C67.8783 52.859 67.4493 50.582 67.4933 48.437C67.5813 44.862 70.2213 41.848 73.7523 41.298C77.2613 40.737 80.9353 41.243 84.6753 42.783L84.8293 42.849L84.7083 43.157C83.2453 46.908 82.2663 49.383 83.6633 53.585L83.7733 53.904L83.4543 53.794C77.3603 51.704 71.4093 50.439 69.0773 55.224L68.9123 55.554ZM76.5683 41.397C75.6443 41.397 74.7203 41.474 73.8073 41.617C70.4303 42.156 67.9113 45.027 67.8233 48.448C67.7793 50.439 68.1533 52.562 68.9563 54.74C71.4643 50.186 77.2723 51.341 83.2563 53.365C81.9803 49.24 83.0033 46.622 84.4003 43.025C81.7493 41.947 79.1203 41.397 76.5683 41.397Z" fill="#1D1E1B"/>
<path d="M72.2564 41.8699C72.2564 41.8699 70.1554 43.9599 70.9694 46.0499C70.9694 46.0499 67.8894 45.7639 67.6914 47.9419C67.6914 47.9419 67.8344 43.6189 72.2564 41.8699Z" fill="#6C32AD"/>
<path d="M67.8564 47.9639L67.5264 47.9419C67.5264 47.8979 67.7244 43.4869 72.1904 41.7269L72.9274 41.4409L72.3664 42.0019C72.3444 42.0239 70.3534 44.0479 71.1234 46.0059L71.2224 46.2589L70.9584 46.2369C70.9364 46.2369 69.3304 46.0939 68.4394 46.8419C68.0874 47.1059 67.8784 47.5129 67.8564 47.9639ZM71.6624 42.3209C69.3634 43.4759 68.4504 45.4119 68.0874 46.6879C68.1314 46.6439 68.1754 46.5999 68.2194 46.5669C69.0004 45.9179 70.2104 45.8629 70.7274 45.8739C70.3094 44.4439 71.1014 43.0579 71.6624 42.3209Z" fill="#1D1E1B"/>
<path d="M80.4731 50.8569C79.4171 47.6999 81.122 43.9819 81.188 43.8279L81.485 43.9709C81.463 44.0039 79.7581 47.7219 80.781 50.7579L80.4731 50.8569Z" fill="#1D1E1B"/>
<path d="M78.2072 50.384C77.2282 46.479 79.3182 43.586 79.3402 43.564L79.6042 43.762C79.5822 43.795 77.5912 46.567 78.5262 50.307L78.2072 50.384Z" fill="#1D1E1B"/>
<path d="M75.8208 48.4919C74.9188 46.1048 76.5358 43.5748 76.6018 43.4648L76.8768 43.6408C76.8658 43.6628 75.2818 46.1378 76.1288 48.3709L75.8208 48.4919Z" fill="#1D1E1B"/>
<path d="M82.8049 43.4429C82.7719 43.4429 82.7499 43.4429 82.7169 43.4319C82.6619 43.4209 77.7889 41.8479 75.7979 42.3649C75.6549 42.3979 75.5009 42.3099 75.4679 42.1559C75.4349 42.0129 75.5229 41.8699 75.6659 41.8259C77.8109 41.2759 82.6839 42.8379 82.8929 42.9039C83.0359 42.9479 83.1129 43.1019 83.0689 43.2449C83.0359 43.3769 82.9259 43.4539 82.8049 43.4429Z" fill="white"/>
<path d="M64.8754 44.7298C64.8644 44.7298 64.8424 44.7298 64.8314 44.7188C64.7434 44.6968 64.6994 44.5978 64.7214 44.5098C64.7434 44.4218 65.3594 42.4088 67.4274 40.6488C69.3304 39.0318 72.8504 37.3598 78.8784 38.5588C78.9664 38.5808 79.0214 38.6688 78.9994 38.7568C78.9774 38.8448 78.9004 38.8888 78.8124 38.8778C74.1484 37.9428 70.2874 38.6358 67.6474 40.8798C65.6564 42.5738 65.0404 44.5758 65.0294 44.5978C65.0184 44.6748 64.9524 44.7298 64.8754 44.7298Z" fill="#1D1E1B"/>
<path d="M54.1726 68.0173L50.2566 70.6023C49.3326 71.2073 48.0896 70.9543 47.4846 70.0303L36.8916 53.9813L44.1406 49.1963L54.7336 65.2453C55.3496 66.1693 55.0856 67.4013 54.1726 68.0173Z" fill="#6C32AD"/>
<path d="M49.1562 71.0861C48.4302 71.0861 47.7482 70.7231 47.3412 70.1181L36.6602 53.9261L44.1842 48.9541L54.8652 65.1461C55.5252 66.1471 55.2502 67.4891 54.2602 68.1491L50.3442 70.7341C49.9922 70.9651 49.5742 71.0971 49.1562 71.0861ZM37.1222 54.0251L47.6272 69.9421C48.1882 70.7891 49.3212 71.0201 50.1682 70.4591L54.0842 67.8741C54.9312 67.3131 55.1622 66.1801 54.6012 65.3331L44.0962 49.4161L37.1222 54.0251Z" fill="#1D1E1B"/>
<path d="M36.3418 45.4451L44.1408 49.1961L36.8918 53.9811L36.3418 45.4451Z" fill="white"/>
<path d="M36.7483 54.2669L36.1543 45.1699L44.4813 49.1629L36.7483 54.2669ZM36.5283 45.7199L37.0453 53.6839L43.8103 49.2179L36.5283 45.7199Z" fill="#1D1D1B"/>
<path d="M40.2355 47.3149L36.6165 49.7129L36.3525 45.3679L40.2355 47.3149Z" fill="#FFAD00"/>
<path d="M36.3526 45.3681L40.2466 47.3151L36.6166 49.7131L36.3526 45.3681ZM36.3526 45.0381C36.2866 45.0381 36.2206 45.0601 36.1766 45.0931C36.0776 45.1591 36.0226 45.2691 36.0336 45.3901L36.2976 49.7351C36.3086 49.8561 36.3746 49.9551 36.4736 50.0101C36.5176 50.0321 36.5726 50.0431 36.6166 50.0431C36.6826 50.0431 36.7486 50.0211 36.8036 49.9881L40.4336 47.5901C40.5876 47.4911 40.6316 47.2821 40.5216 47.1281C40.4886 47.0841 40.4446 47.0401 40.3896 47.0181L36.4956 45.0711C36.4516 45.0491 36.4076 45.0381 36.3526 45.0381Z" fill="#1D1E1B"/>
<path d="M53.6557 68.5121C53.6007 68.5121 53.5457 68.4791 53.5127 68.4351L42.1386 50.5051C42.0946 50.4281 42.1166 50.3291 42.1936 50.2741C42.2706 50.2301 42.3696 50.2521 42.4136 50.3181L53.7877 68.2481C53.8317 68.3251 53.8097 68.4241 53.7327 68.4791C53.7217 68.5011 53.6887 68.5121 53.6557 68.5121Z" fill="#1D1E1B"/>
<path d="M50.7519 70.4261C50.6969 70.4261 50.6419 70.3932 50.6089 70.3492L39.1689 52.4631C39.1249 52.3861 39.1469 52.2871 39.2239 52.2321C39.3009 52.1881 39.3999 52.2101 39.4549 52.2871L50.8949 70.1731C50.9389 70.2501 50.9169 70.3492 50.8399 70.4042C50.8179 70.4262 50.7849 70.4261 50.7519 70.4261Z" fill="#1D1E1B"/>
<path d="M90.5049 93.955C83.9929 96.001 61.5529 91.447 58.7699 87.212C55.9869 82.977 58.4179 80.293 58.4179 80.293L55.7119 77.565L62.9829 66.345L65.1609 67.742C65.1609 67.742 69.3739 64.662 72.9929 67.643C76.6119 70.624 89.4489 70.206 90.4829 72.725" fill="#FFAD00"/>
<path d="M85.9289 94.6258C82.5079 94.6258 77.9979 94.0978 73.2019 93.1078C67.1739 91.8538 60.1779 89.6648 58.6269 87.3108C56.1409 83.5268 57.7579 80.8978 58.1979 80.3148L55.5029 77.5978L62.9499 66.1138L65.1829 67.5438C65.8319 67.1148 69.7479 64.7388 73.1249 67.5218C74.9179 68.9958 79.1309 69.6448 82.8489 70.2168C86.7539 70.8108 90.1199 71.3388 90.6589 72.6698L90.3509 72.7908C89.8779 71.6358 86.4349 71.1078 82.7939 70.5468C78.8449 69.9418 74.7639 69.3148 72.9049 67.7858C69.4289 64.9258 65.3149 67.8628 65.2709 67.8848L65.1829 67.9508L63.0489 66.5758L55.9429 77.5538L58.6599 80.3038L58.5499 80.4138C58.4509 80.5238 56.2509 83.0648 58.9129 87.1348C60.1449 89.0048 65.7769 91.2268 73.2789 92.7888C80.7369 94.3398 87.4799 94.7358 90.4499 93.8008L90.5489 94.1198C89.4599 94.4608 87.8649 94.6258 85.9289 94.6258Z" fill="#1D1D1B"/>
<path d="M65.1387 68.1488C65.1387 68.1488 67.9438 74.1218 58.6487 80.4028L56.0527 77.6528L62.9827 66.8948L65.1387 68.1488Z" fill="#E89D00"/>
<path d="M79.3838 75.574C80.0277 75.574 80.5498 75.0519 80.5498 74.4079C80.5498 73.764 80.0277 73.2419 79.3838 73.2419C78.7398 73.2419 78.2178 73.764 78.2178 74.4079C78.2178 75.0519 78.7398 75.574 79.3838 75.574Z" fill="#FFC140"/>
<path d="M67.6465 76.7729C68.2904 76.7729 68.8125 76.2509 68.8125 75.6069C68.8125 74.963 68.2904 74.4409 67.6465 74.4409C67.0025 74.4409 66.4805 74.963 66.4805 75.6069C66.4805 76.2509 67.0025 76.7729 67.6465 76.7729Z" fill="#FFC140"/>
<path d="M64.8525 89.093C65.4965 89.093 66.0185 88.571 66.0185 87.927C66.0185 87.283 65.4965 86.761 64.8525 86.761C64.2086 86.761 63.6865 87.283 63.6865 87.927C63.6865 88.571 64.2086 89.093 64.8525 89.093Z" fill="#FFC140"/>
<path d="M79.956 88.0256C80.6 88.0256 81.1221 87.5036 81.1221 86.8596C81.1221 86.2156 80.6 85.6936 79.956 85.6936C79.3121 85.6936 78.79 86.2156 78.79 86.8596C78.79 87.5036 79.3121 88.0256 79.956 88.0256Z" fill="#FFC140"/>
<path d="M71.2109 84.0879C71.8549 84.0879 72.3769 83.5658 72.3769 82.9219C72.3769 82.2779 71.8549 81.7559 71.2109 81.7559C70.567 81.7559 70.0449 82.2779 70.0449 82.9219C70.0449 83.5658 70.567 84.0879 71.2109 84.0879Z" fill="#FFC140"/>
<path d="M55.0303 57.7099C53.6993 56.5109 51.2133 55.4989 49.9703 55.3559C49.4203 55.3009 48.8703 55.3669 48.3533 55.5759C48.3533 55.5759 52.4343 60.9769 52.3903 61.1199L40.0483 58.2269C40.0483 58.2269 36.0883 61.7469 42.6223 65.5089C42.6223 65.5089 41.6763 68.8309 43.5903 71.3829C43.5903 71.3829 41.7643 73.7149 46.4283 77.3669C51.0923 81.0189 58.7923 79.6879 58.7923 79.6879L61.8063 67.4999C61.8063 67.4999 58.1103 60.0199 55.0303 57.7099Z" fill="#FFCDB2"/>
<path d="M55.4703 80.1389C52.7973 80.1389 49.0573 79.6769 46.2963 77.5209C42.1053 74.2429 42.9853 71.9549 43.3263 71.3719C41.6983 69.0839 42.2043 66.3119 42.3693 65.5969C40.0703 64.2439 38.8163 62.7589 38.6513 61.1859C38.4643 59.3489 39.8393 58.1059 39.8943 58.0509L39.9823 57.9739L51.9283 60.7899C51.2463 59.8109 49.4093 57.3359 48.1883 55.7189L48.0123 55.4879L48.2763 55.3779C48.8263 55.1579 49.4093 55.0809 49.9923 55.1469C51.3453 55.3009 53.8423 56.3569 55.1623 57.5449C58.2423 59.8659 61.8503 67.1039 61.9932 67.4119L62.0262 67.4889L58.9573 79.8749L58.8143 79.8969C57.7143 80.0619 56.5923 80.1499 55.4703 80.1389ZM40.1143 58.4689C39.8393 58.7549 38.9483 59.7889 39.0913 61.1639C39.2453 62.6159 40.4663 64.0239 42.7323 65.3219L42.8863 65.4099L42.8423 65.5749C42.8313 65.6079 41.9513 68.8199 43.7773 71.2509L43.8763 71.3829L43.7663 71.5149C43.7003 71.6029 42.1603 73.7369 46.5713 77.1909C50.7623 80.4689 57.5603 79.6439 58.6273 79.4899L61.5862 67.5329C61.2012 66.7629 57.7583 60.0199 54.9093 57.8859L54.8983 57.8749C53.6553 56.7529 51.2353 55.7189 49.9593 55.5759C49.5413 55.5319 49.1233 55.5649 48.7273 55.6859C49.0683 56.1369 49.8273 57.1489 50.5753 58.1609C52.6763 60.9879 52.6543 61.0429 52.5993 61.1859L52.5333 61.3729L40.1143 58.4689Z" fill="#1D1E1B"/>
<path d="M49.4975 68.2478C49.8275 68.2698 50.1465 68.2698 50.4765 68.2588C50.5975 68.2258 50.6635 68.1048 50.6305 67.9838C50.6085 67.8958 50.5315 67.8408 50.4435 67.8298C50.3995 67.8298 46.3845 68.0718 42.8205 65.2888C42.7105 65.2338 42.5785 65.2778 42.5235 65.3878C42.4795 65.4648 42.4905 65.5638 42.5565 65.6298C44.5585 67.1698 46.9675 68.0828 49.4975 68.2478Z" fill="black"/>
<path d="M49.7832 73.836C50.2452 73.869 50.5422 73.858 50.5862 73.858C50.7072 73.836 50.7842 73.715 50.7512 73.594C50.7292 73.506 50.6632 73.44 50.5752 73.429C50.5312 73.429 46.0652 73.506 43.6232 71.053C43.5242 70.987 43.3812 71.009 43.3152 71.119C43.2712 71.196 43.2712 71.284 43.3152 71.361C45.2732 73.319 48.3312 73.748 49.7832 73.836Z" fill="black"/>
<path d="M52.4121 78.797C54.2491 78.907 55.4371 78.412 55.4811 78.39C55.6021 78.368 55.6791 78.247 55.6571 78.126C55.6351 78.005 55.5141 77.928 55.3931 77.95C55.3601 77.961 55.3381 77.972 55.3051 77.983C55.2501 78.005 50.4651 79.952 45.2731 74.7269C45.1741 74.6609 45.0311 74.6829 44.9651 74.7819C44.9101 74.8589 44.9101 74.9579 44.9651 75.0239C47.7921 77.862 50.4871 78.621 52.2581 78.764L52.4121 78.797Z" fill="white"/>
<path d="M50.0801 72.7138C50.2781 72.7248 50.4101 72.7358 50.4431 72.7358C50.5641 72.7358 50.6521 72.6478 50.6631 72.5268C50.6631 72.4058 50.5751 72.3068 50.4541 72.3068C50.3991 72.3068 44.6021 72.1088 43.6561 69.6558C43.5901 69.5568 43.4581 69.5238 43.3481 69.5898C43.2711 69.6338 43.2381 69.7218 43.2491 69.8098C44.1621 72.1748 48.7381 72.6258 50.0801 72.7138Z" fill="white"/>
<path d="M49.4756 66.895C49.5966 66.884 49.6846 66.774 49.6736 66.653C49.6626 66.565 49.6076 66.499 49.5306 66.466C49.4536 66.455 42.3367 65.058 40.5987 61.758C40.5657 61.637 40.4447 61.571 40.3237 61.615C40.2027 61.648 40.1367 61.769 40.1807 61.89C40.1917 61.912 40.2027 61.945 40.2247 61.967C42.0617 65.465 49.1566 66.84 49.4646 66.906C49.4536 66.884 49.4646 66.895 49.4756 66.895Z" fill="white"/>
<path d="M84.6755 93.4047H84.6425C64.3585 92.0847 60.4975 86.4637 60.3435 86.2217C60.1785 85.9687 60.2555 85.6277 60.5195 85.4627C60.7725 85.3087 61.1025 85.3747 61.2675 85.6167C61.2895 85.6497 62.2355 86.9917 65.5575 88.4657C68.6485 89.8517 74.4895 91.6337 84.7195 92.3047C85.0275 92.3157 85.2585 92.5687 85.2475 92.8767C85.2365 93.1737 84.9835 93.4157 84.6755 93.4047Z" fill="white"/>
</svg>
