<svg width="30" height="30" viewBox="0 0 30 30" fill="none" xmlns="http://www.w3.org/2000/svg">
<path opacity="0.3" d="M5.06809 18.9977C10.4318 9.71022 16.9731 4.07897 26.1606 2.51772C26.3414 2.48546 26.5273 2.49737 26.7025 2.55242C26.8777 2.60747 27.037 2.70403 27.1669 2.8339C27.2968 2.96376 27.3933 3.12308 27.4484 3.29829C27.5034 3.4735 27.5153 3.65942 27.4831 3.84022C25.9218 13.0277 20.2906 19.569 11.0031 24.9327L5.06809 18.9977ZM4.77434 21.6715L3.29184 25.5602C3.23063 25.7207 3.21716 25.8954 3.25304 26.0634C3.28893 26.2313 3.37264 26.3853 3.49408 26.5067C3.61551 26.6282 3.76949 26.7119 3.93744 26.7478C4.10539 26.7837 4.28013 26.7702 4.44059 26.709L8.33184 25.2252L4.77434 21.6715ZM20.6256 7.49772C20.2547 7.49772 19.8922 7.60769 19.5839 7.81371C19.2756 8.01974 19.0352 8.31258 18.8933 8.65519C18.7514 8.9978 18.7143 9.3748 18.7866 9.73851C18.859 10.1022 19.0375 10.4363 19.2998 10.6985C19.562 10.9608 19.8961 11.1393 20.2598 11.2117C20.6235 11.284 21.0005 11.2469 21.3431 11.105C21.6857 10.9631 21.9786 10.7228 22.1846 10.4144C22.3906 10.1061 22.5006 9.74356 22.5006 9.37272C22.5006 8.87544 22.303 8.39853 21.9514 8.04689C21.5998 7.69526 21.1229 7.49772 20.6256 7.49772Z" fill="#A1A5B7"/>
<path d="M5.06779 18.9976L2.80904 16.7388C2.69381 16.6236 2.60684 16.4833 2.55494 16.3288C2.50304 16.1743 2.48763 16.01 2.50991 15.8485C2.53219 15.6871 2.59156 15.5331 2.68336 15.3984C2.77517 15.2638 2.8969 15.1523 3.03904 15.0726L11.4415 10.3613C8.96691 12.9645 6.82588 15.8656 5.06779 18.9976ZM11.0003 24.9301L13.259 27.1888C13.3743 27.3041 13.5146 27.391 13.6691 27.4429C13.8235 27.4948 13.9879 27.5102 14.1493 27.488C14.3107 27.4657 14.4648 27.4063 14.5994 27.3145C14.7341 27.2227 14.8456 27.101 14.9253 26.9588L19.6365 18.5551C17.0337 21.0305 14.1326 23.172 11.0003 24.9301ZM8.80029 22.7288L15.729 15.8001C15.9226 15.5947 16.0285 15.322 16.0243 15.0398C16.0202 14.7577 15.9062 14.4882 15.7067 14.2887C15.5071 14.0891 15.2377 13.9752 14.9555 13.971C14.6733 13.9668 14.4006 14.0728 14.1953 14.2663L7.26654 21.1951L8.80029 22.7288Z" fill="#A1A5B7"/>
</svg>