<svg width="110" height="110" viewBox="0 0 110 110" fill="none" xmlns="http://www.w3.org/2000/svg">
<g clip-path="url(#clip0_436_5042)">
<path d="M100.32 103.18H53.0091C52.8881 103.18 52.7891 103.081 52.7891 102.96C52.7891 102.839 52.8881 102.74 53.0091 102.74H100.32C100.441 102.74 100.54 102.839 100.54 102.96C100.54 103.081 100.441 103.18 100.32 103.18Z" fill="#1D1D1B"/>
<path d="M100.43 103.081C100.309 103.081 100.21 102.982 100.21 102.861V52.899C100.21 52.778 100.309 52.679 100.43 52.679C100.551 52.679 100.65 52.778 100.65 52.899V102.872C100.65 102.982 100.551 103.081 100.43 103.081Z" fill="#1D1D1B"/>
<path d="M59.1139 105.93H49.3899C49.2689 105.93 49.1699 105.831 49.1699 105.71C49.1699 105.589 49.2689 105.49 49.3899 105.49H59.1139C59.2349 105.49 59.3339 105.589 59.3339 105.71C59.3339 105.831 59.2349 105.93 59.1139 105.93Z" fill="#1D1D1B"/>
<path d="M95.722 55.132C95.601 55.132 95.502 55.033 95.502 54.912V45.188C95.502 45.067 95.601 44.968 95.722 44.968C95.843 44.968 95.942 45.067 95.942 45.188V54.912C95.942 55.033 95.843 55.132 95.722 55.132Z" fill="#1D1D1B"/>
<path d="M100.309 102.828C101.464 96.1071 96.1616 79.2661 91.5966 77.0881C87.0316 74.9101 84.6886 77.6711 84.6886 77.6711L81.6196 75.3611L71.4775 84.0841L73.1605 86.0531C73.1605 86.0531 70.6855 90.6511 74.1285 93.8301C77.5715 97.0091 81.4876 102.124 84.1166 102.806" fill="#FFAD00"/>
<path d="M84.0728 102.971C82.2358 102.498 79.8818 100.001 77.3848 97.3721C76.2628 96.1951 75.1078 94.9741 74.0188 93.9621C70.8068 90.9921 72.6328 86.7901 72.9738 86.0861L71.2578 84.0731L71.3788 83.9631L81.6198 75.1521L84.6778 77.4511C85.1948 76.9451 87.5818 74.9871 91.6628 76.9341C93.8078 77.9571 96.2608 82.1701 98.2518 88.1981C100.144 93.9401 101.013 99.6931 100.474 102.85L100.144 102.795C100.672 99.6821 99.8138 93.9951 97.9438 88.2971C96.0188 82.4341 93.5548 78.1991 91.5308 77.2311C87.1418 75.1301 84.9198 77.6711 84.8208 77.7811L84.7218 77.9021L84.6008 77.8141L81.6418 75.5701L71.7198 84.1061L73.3698 86.0421L73.3148 86.1411C73.2928 86.1851 70.9388 90.6621 74.2498 93.7201C75.3498 94.7321 76.5048 95.9641 77.6268 97.1521C79.9808 99.6381 82.4118 102.212 84.1608 102.663L84.0728 102.971Z" fill="#1D1D1B"/>
<path d="M73.5673 85.9652C73.5673 85.9652 79.8593 87.9342 84.8313 77.8802L81.7513 75.6802L72.0273 83.9962L73.5673 85.9652Z" fill="#E89D00"/>
<path d="M81.6855 100.397C82.3295 100.397 82.8515 99.8751 82.8515 99.2312C82.8515 98.5872 82.3295 98.0652 81.6855 98.0652C81.0416 98.0652 80.5195 98.5872 80.5195 99.2312C80.5195 99.8751 81.0416 100.397 81.6855 100.397Z" fill="#FFC140"/>
<path d="M81.3008 88.6049C81.9447 88.6049 82.4668 88.0829 82.4668 87.439C82.4668 86.795 81.9447 86.2729 81.3008 86.2729C80.6568 86.2729 80.1348 86.795 80.1348 87.439C80.1348 88.0829 80.6568 88.6049 81.3008 88.6049Z" fill="#FFC140"/>
<path d="M93.1152 84.1723C93.7592 84.1723 94.2812 83.6503 94.2812 83.0063C94.2812 82.3624 93.7592 81.8403 93.1152 81.8403C92.4713 81.8403 91.9492 82.3624 91.9492 83.0063C91.9492 83.6503 92.4713 84.1723 93.1152 84.1723Z" fill="#FFC140"/>
<path d="M94.1045 99.2859C94.7484 99.2859 95.2705 98.7638 95.2705 98.1199C95.2705 97.4759 94.7484 96.9539 94.1045 96.9539C93.4605 96.9539 92.9385 97.4759 92.9385 98.1199C92.9385 98.7638 93.4605 99.2859 94.1045 99.2859Z" fill="#FFC140"/>
<path d="M89.0224 91.146C89.6664 91.146 90.1884 90.6239 90.1884 89.98C90.1884 89.336 89.6664 88.814 89.0224 88.814C88.3785 88.814 87.8564 89.336 87.8564 89.98C87.8564 90.6239 88.3785 91.146 89.0224 91.146Z" fill="#FFC140"/>
<path d="M64.7352 68.4199C64.7352 68.4199 62.6122 72.4129 66.1322 76.9559C69.6522 81.4989 72.8642 86.0639 72.8642 86.0639L79.0022 79.6619L64.7352 68.4199Z" fill="#FFCDB2"/>
<path d="M72.8524 86.3282L72.7424 86.1632C72.7094 86.1192 69.4974 81.5542 66.0214 77.0552C62.4794 72.4792 64.5804 68.3872 64.6024 68.3432L64.6904 68.1672L79.2544 79.6402L72.8524 86.3282ZM64.8004 68.6842C64.4484 69.5092 63.2824 72.9962 66.2634 76.8572C69.3764 80.8722 72.2804 84.9532 72.8854 85.8112L78.7594 79.6842L64.8004 68.6842Z" fill="#1D1D1B"/>
<path d="M61.8196 72.5999C59.0697 73.2599 59.0697 75.8998 60.1696 77.3298C61.2696 78.7598 65.3396 81.0698 66.6596 80.2998C67.9796 79.5298 62.0396 72.5999 62.0396 72.5999" fill="#FFCDB2"/>
<path d="M65.978 80.6188C64.174 80.6188 60.973 78.6608 60.038 77.4288C59.345 76.5268 59.125 75.3058 59.477 74.3158C59.708 73.6558 60.302 72.7978 61.776 72.4348L61.853 72.7538C60.797 73.0068 60.082 73.5788 59.785 74.4258C59.477 75.3058 59.675 76.4278 60.291 77.2308C61.248 78.4738 64.383 80.2888 65.967 80.2888C66.176 80.2998 66.385 80.2558 66.572 80.1568C66.627 80.1238 66.671 80.0578 66.671 79.9918C66.869 78.8148 63.294 74.3378 61.908 72.7098L62.161 72.4898C62.689 73.0948 67.265 78.4958 67.001 80.0468C66.979 80.2118 66.88 80.3548 66.737 80.4428C66.506 80.5638 66.242 80.6188 65.978 80.6188Z" fill="#1D1E1B"/>
<path d="M54.3948 59.3009C56.3748 57.7059 59.2678 58.0249 60.8518 60.0049L77.0768 80.1789C78.6718 82.1589 78.3528 85.0519 76.3728 86.6359C74.3928 88.2309 71.4998 87.9119 69.9158 85.9319L53.6908 65.7579C52.0958 63.7889 52.4148 60.8959 54.3948 59.3009Z" fill="#6C32AD"/>
<path d="M73.5128 87.8129C72.0718 87.8129 70.7078 87.1639 69.7948 86.0419L53.5697 65.8679C51.9197 63.8219 52.2497 60.8189 54.2957 59.1689C56.3417 57.5189 59.3448 57.8489 60.9948 59.8949L77.2198 80.0689C78.8698 82.1149 78.5508 85.1069 76.5048 86.7569C75.6468 87.4389 74.5908 87.8129 73.5128 87.8129ZM57.2657 58.4539C54.8237 58.4539 52.8327 60.4339 52.8327 62.8869C52.8327 63.8989 53.1737 64.8779 53.8117 65.6699L70.0478 85.8439C71.5768 87.7469 74.3708 88.0549 76.2738 86.5149C78.1768 84.9749 78.4848 82.1919 76.9448 80.2889L60.7198 60.1039C59.8838 59.0589 58.6077 58.4429 57.2657 58.4539Z" fill="#1D1F1C"/>
<path d="M55.0548 64.933L59.8288 61.094C61.3028 59.906 63.4698 60.137 64.6578 61.622L67.2428 64.834C68.4308 66.308 68.1998 68.475 66.7148 69.663L61.9408 73.502C60.4668 74.6899 58.2998 74.459 57.1118 72.974L54.5268 69.762C53.3498 68.288 53.5808 66.132 55.0548 64.933Z" fill="#6C32AD"/>
<path d="M59.8068 74.4257C58.7178 74.4257 57.6838 73.9307 57.0018 73.0837L54.4168 69.8607C53.1738 68.3097 53.4158 66.0437 54.9668 64.8007L59.7408 60.9617C61.2918 59.7187 63.5578 59.9607 64.8008 61.5117L67.3857 64.7347C68.6287 66.2857 68.3867 68.5517 66.8357 69.7947L62.0728 73.6337C61.4128 74.1507 60.6208 74.4257 59.8068 74.4257ZM61.9738 60.4997C61.2258 60.4997 60.5108 60.7527 59.9278 61.2147L55.1538 65.0537C53.7458 66.1867 53.5258 68.2437 54.6588 69.6517L57.2438 72.8747C58.3768 74.2827 60.4338 74.5027 61.8418 73.3697L66.6047 69.5307C68.0127 68.3977 68.2327 66.3407 67.0997 64.9327L64.5148 61.7097C63.9098 60.9507 62.9638 60.4997 61.9738 60.4997Z" fill="#1D1F1C"/>
<path d="M45.7819 69.234C57.5798 69.234 67.1439 59.6699 67.1439 47.872C67.1439 36.0741 57.5798 26.51 45.7819 26.51C33.984 26.51 24.4199 36.0741 24.4199 47.872C24.4199 59.6699 33.984 69.234 45.7819 69.234Z" fill="#D9CFFF"/>
<path d="M45.7819 69.388C33.9129 69.388 24.2549 59.73 24.2549 47.861C24.2549 35.992 33.9129 26.334 45.7819 26.334C57.6509 26.334 67.3089 35.992 67.3089 47.861C67.3089 59.73 57.6399 69.388 45.7819 69.388ZM45.7819 26.675C34.0999 26.675 24.5849 36.179 24.5849 47.872C24.5849 59.565 34.0889 69.069 45.7819 69.069C57.4749 69.069 66.9789 59.565 66.9789 47.872C66.9789 36.179 57.4639 26.675 45.7819 26.675Z" fill="#1D1E1B"/>
<path d="M45.7815 61.6329C53.3815 61.6329 59.5425 55.4719 59.5425 47.8719C59.5425 40.2719 53.3815 34.1108 45.7815 34.1108C38.1815 34.1108 32.0205 40.2719 32.0205 47.8719C32.0205 55.4719 38.1815 61.6329 45.7815 61.6329Z" fill="#28BB86"/>
<path d="M45.7822 61.7868C38.0932 61.7868 31.8672 55.5498 31.8672 47.8608C31.8672 40.1718 38.1042 33.9458 45.7932 33.9458C53.4822 33.9458 59.7082 40.1828 59.7082 47.8608C59.6862 55.5498 53.4602 61.7758 45.7822 61.7868ZM45.7822 34.2758C38.2802 34.2758 32.1972 40.3588 32.1972 47.8718C32.1972 55.3848 38.2802 61.4678 45.7822 61.4678C53.2842 61.4678 59.3782 55.3848 59.3782 47.8718C59.3562 40.3698 53.2842 34.2868 45.7822 34.2758Z" fill="#1D1D1B"/>
<path d="M44.5484 37.547L43.1172 57.1289L43.4463 57.153L44.8775 37.571L44.5484 37.547Z" fill="#1D1F1C"/>
<path d="M47.5211 45.569L46.752 51.5142L47.0792 51.5565L47.8484 45.6113L47.5211 45.569Z" fill="#1D1F1C"/>
<path d="M65.1747 47.0797C64.8667 47.0797 64.6137 46.8597 64.5807 46.5517C63.7887 40.6337 61.0937 35.9917 56.5947 32.7797C53.2177 30.3597 50.0277 29.6997 49.9947 29.6887C49.6647 29.6337 49.4447 29.3147 49.5107 28.9847C49.5657 28.6547 49.8847 28.4347 50.2147 28.5007C50.2257 28.5007 50.2257 28.5007 50.2367 28.5007C50.3797 28.5337 53.6797 29.2157 57.2547 31.7677C60.5657 34.1217 64.7347 38.5657 65.7797 46.3977C65.8237 46.7277 65.5927 47.0357 65.2627 47.0797C65.2297 47.0797 65.1967 47.0797 65.1747 47.0797Z" fill="white"/>
<path d="M36.465 65.23C36.377 65.23 36.278 65.208 36.201 65.164C31.669 62.931 29.128 59.125 27.797 56.331C26.356 53.317 25.982 50.842 25.971 50.743C25.927 50.413 26.169 50.116 26.499 50.072C26.818 50.039 27.115 50.248 27.17 50.567C27.17 50.589 27.544 52.987 28.908 55.847C30.162 58.454 32.538 62.007 36.74 64.086C37.037 64.229 37.158 64.592 37.015 64.9C36.905 65.098 36.696 65.23 36.465 65.23Z" fill="white"/>
<path d="M-0.000140727 37.0699C-0.0771407 37.0699 -0.143141 37.0369 -0.176141 36.9709C-0.242141 36.8719 -0.220141 36.7399 -0.121141 36.6629C-0.0881407 36.6409 3.67386 34.1219 10.6369 32.1529C17.0609 30.3378 27.5989 28.6328 41.3929 30.7999C41.5139 30.8219 41.6019 30.9319 41.5799 31.0529C41.5579 31.1739 41.4479 31.2619 41.3269 31.2399C27.6319 29.0838 17.1489 30.7669 10.7799 32.5709C3.87186 34.5179 0.164859 37.0039 0.120859 37.0259C0.0878593 37.0589 0.0438593 37.0699 -0.000140727 37.0699Z" fill="#1D1D1B"/>
<path d="M15.51 39.71C15.389 39.71 15.29 39.611 15.29 39.49C15.29 39.424 15.323 39.358 15.378 39.314C17.127 38.115 19.008 37.125 20.977 36.344C24.046 35.123 28.666 33.946 33.275 35.211C33.396 35.244 33.462 35.365 33.429 35.486C33.396 35.607 33.275 35.673 33.154 35.64C28.666 34.408 24.145 35.563 21.142 36.762C19.206 37.521 17.358 38.5 15.631 39.677C15.598 39.699 15.554 39.71 15.51 39.71Z" fill="#1D1D1B"/>
<path d="M72.3799 52.58C72.3579 52.58 72.3359 52.58 72.3139 52.569C72.1929 52.536 72.1379 52.404 72.1709 52.294C74.4809 44.924 73.2929 39.578 71.8959 36.399C70.3779 32.945 68.2989 31.207 68.2769 31.196C68.1779 31.119 68.1669 30.976 68.2439 30.888C68.3209 30.789 68.4639 30.778 68.5519 30.855C68.6399 30.932 70.7299 32.659 72.2809 36.201C73.7109 39.457 74.9319 44.924 72.5779 52.426C72.5559 52.514 72.4789 52.58 72.3799 52.58Z" fill="#1D1D1B"/>
<path d="M42.1077 73.2268C35.5407 73.2268 31.1297 70.5758 28.5227 68.2328C25.4317 65.4498 24.1667 62.5898 24.1117 62.4688C24.0677 62.3588 24.1227 62.2268 24.2437 62.1828C24.3537 62.1388 24.4637 62.1938 24.5187 62.2928C24.5297 62.3258 25.8057 65.2078 28.8417 67.9248C31.6357 70.4218 36.5307 73.2818 43.9997 72.7208C44.1207 72.7098 44.2307 72.7978 44.2307 72.9188C44.2417 73.0398 44.1537 73.1498 44.0217 73.1608C43.3617 73.1938 42.7237 73.2268 42.1077 73.2268Z" fill="#1D1D1B"/>
<path d="M78.1114 80.4432C78.1114 80.4432 82.5004 77.5062 80.3004 72.3692C78.1004 67.2322 74.4704 63.1512 70.1694 62.8322C65.8683 62.5132 63.3273 64.7352 62.4913 67.0232C61.6553 69.3112 63.0743 71.3022 66.1433 71.7752C66.1433 71.7752 65.4833 75.9882 70.9284 76.4942C70.9284 76.4942 72.3804 83.1272 76.6594 78.8042L78.1114 80.4432Z" fill="#FFCDB2"/>
<path d="M75.7793 65.5491C77.6053 67.2761 79.1563 69.6741 80.3003 72.3691C82.4893 77.5061 78.1113 80.4431 78.1113 80.4431L76.6483 78.8151C74.7563 80.7181 73.4143 80.4981 72.5123 79.6401C71.3683 78.5621 70.9173 76.4941 70.9173 76.4941C69.1574 76.3291 68.0353 75.7791 67.3204 75.1081C65.8244 73.7001 66.1324 71.7751 66.1324 71.7751C64.8674 71.5771 63.8884 71.1261 63.2284 70.5101C62.2824 69.6191 61.9854 68.3761 62.4804 67.0231C63.3164 64.7351 65.8464 62.5131 70.1583 62.8321C72.2153 62.9861 74.1183 63.9871 75.7793 65.5491ZM76.0763 65.2411C74.2393 63.5141 72.2593 62.5571 70.2023 62.4031C68.1454 62.2491 66.2753 62.6561 64.8013 63.5911C63.5584 64.3611 62.6014 65.5161 62.0954 66.8911C61.5564 68.3761 61.8644 69.8171 62.9534 70.8401C63.6244 71.4671 64.5704 71.9181 65.7034 72.1491C65.6923 72.8531 65.8353 74.2941 67.0563 75.4381C67.8923 76.2301 69.0913 76.7251 70.5983 76.9121C70.7743 77.5611 71.2803 79.0571 72.2373 79.9701C73.1173 80.7951 74.5803 81.3451 76.6483 79.4531L77.8033 80.7511C77.8143 80.7621 77.8253 80.7731 77.8253 80.7731C77.9683 80.9161 78.1993 80.9271 78.3643 80.8171C79.1893 80.2121 79.8933 79.4531 80.4103 78.5731C81.2133 77.2311 81.9173 75.0421 80.7073 72.2151C79.4863 69.3661 77.8913 66.9571 76.0873 65.2521L76.0763 65.2411Z" fill="black"/>
<path d="M66.1767 71.8851C66.0887 71.8851 66.0117 71.8081 66.0117 71.7201C66.0117 71.6981 66.0117 71.6761 66.0227 71.6541C68.0797 67.0891 72.5127 67.1331 72.5567 67.1331C72.6447 67.1331 72.7217 67.2101 72.7217 67.2981C72.7217 67.3861 72.6447 67.4631 72.5567 67.4631H72.5457C72.3147 67.4631 68.2447 67.5291 66.3307 71.7861C66.3087 71.8521 66.2427 71.8851 66.1767 71.8851Z" fill="#1D1D1B"/>
<path d="M71.0058 76.6591C70.9838 76.6591 70.9618 76.6591 70.9508 76.6481C70.8628 76.6151 70.8188 76.5161 70.8518 76.4391C70.8518 76.4391 70.8518 76.4391 70.8518 76.4281C71.8198 73.9752 75.2297 72.1712 75.3727 72.0942C75.4497 72.0502 75.5487 72.0832 75.5927 72.1602C75.6367 72.2372 75.6037 72.3362 75.5267 72.3802C75.4937 72.4022 72.0838 74.2062 71.1598 76.5491C71.1378 76.6151 71.0828 76.6591 71.0058 76.6591Z" fill="#1D1D1B"/>
<path d="M63.206 68.3651C63.019 68.3651 62.876 68.2221 62.876 68.0351C62.876 67.9911 62.887 67.9361 62.909 67.8921C63.855 65.8351 65.219 64.4821 66.946 63.8441C69.707 62.843 72.391 64.0751 72.501 64.1301C72.666 64.2181 72.721 64.4161 72.644 64.5811C72.567 64.7351 72.38 64.8011 72.226 64.7351C72.182 64.7131 69.663 63.558 67.166 64.4711C65.615 65.0431 64.383 66.2861 63.514 68.1671C63.448 68.2991 63.327 68.3651 63.206 68.3651Z" fill="white"/>
</g>
<defs>
<clipPath id="clip0_436_5042">
<rect width="110" height="110" fill="white"/>
</clipPath>
</defs>
</svg>
