<svg width="262" height="220" viewBox="0 0 262 220" fill="none" xmlns="http://www.w3.org/2000/svg">
<path d="M71.9013 220.033C71.6153 220.031 71.383 219.764 71.3851 219.439C71.3872 219.114 71.6229 218.849 71.9089 218.851C121.602 218.821 149.463 218.805 199.156 218.775C199.442 218.777 199.674 219.044 199.672 219.369C199.67 219.695 199.434 219.959 199.148 219.957L71.9013 220.033Z" fill="black"/>
<path d="M50.6659 210.782L65.7213 210.618L80.6986 210.453L89.1494 210.351C89.6434 210.354 89.6484 209.574 89.1544 209.571L74.0991 209.735L59.1217 209.9L50.6709 210.002C50.1769 209.999 50.1719 210.779 50.6659 210.782Z" fill="black"/>
<path d="M76.2571 201.533L84.3676 201.793L92.5041 202.052L97.0792 202.212C97.5732 202.215 97.5782 201.435 97.0842 201.432L88.9737 201.172L80.8372 200.912L76.2621 200.753C75.7681 200.75 75.7631 201.53 76.2571 201.533Z" fill="black"/>
<path d="M108.41 109.254C108.775 100.858 113.116 96.9598 116.255 85.8516C119.394 74.7433 122.729 69.5645 126.784 65.6642C131.833 60.8083 134.094 60.9787 134.094 60.9787L136.122 56.9616L147.358 60.3352L146.724 66.0513C148.059 68.7639 151.131 72.1375 145.46 80.7336C141.391 86.9218 141.364 95.2677 135.928 107.817C130.491 120.367 124.045 124.2 124.045 124.2" fill="#FFAD00"/>
<path d="M124.069 124.564C123.939 124.563 123.81 124.485 123.732 124.38C123.629 124.197 123.683 123.964 123.866 123.835C123.944 123.783 130.287 119.898 135.591 107.633C138.177 101.644 139.509 96.6601 140.707 92.2996C141.985 87.5237 142.997 83.7601 145.15 80.4977C150.086 72.989 148.236 69.5971 146.874 67.1184C146.694 66.8053 146.54 66.4923 146.385 66.2053C146.36 66.1271 146.334 66.075 146.335 65.997L146.915 60.6185L136.301 57.4308L134.431 61.163C134.352 61.2925 134.222 61.3957 134.066 61.3687C134.014 61.3684 131.778 61.3801 127.043 65.952C123.642 69.2324 120.024 73.9155 116.619 85.958C115.262 90.7335 113.706 94.1816 112.309 97.2148C110.437 101.311 108.986 104.552 108.774 109.282C108.773 109.49 108.59 109.671 108.382 109.67C108.174 109.669 107.993 109.486 107.994 109.252C108.207 104.365 109.789 100.917 111.609 96.8983C112.98 93.891 114.536 90.4688 115.866 85.7452C119.324 73.521 123.021 68.7345 126.5 65.4026C130.686 61.3731 133.082 60.7124 133.837 60.6132L135.759 56.8034C135.838 56.6219 136.047 56.5452 136.228 56.5984L147.439 59.9719C147.621 60.025 147.724 60.2077 147.723 60.3897L147.115 65.9759C147.243 66.2367 147.372 66.4976 147.526 66.7586C148.991 69.4199 150.97 73.0726 145.771 80.9437C143.697 84.1025 142.686 87.8141 141.434 92.5123C140.236 96.9247 138.904 101.908 136.291 107.95C130.881 120.474 124.512 124.359 124.251 124.513C124.199 124.539 124.121 124.565 124.069 124.564Z" fill="black"/>
<path d="M109.719 103.724C109.188 105.489 108.89 107.333 108.8 109.179L114.021 114.152L125.643 122.26C127.029 121.047 129.123 118.876 131.355 115.432C122.085 105.259 112.734 103.874 109.719 103.724Z" fill="#E89D00"/>
<path d="M146.913 77.2585C144.616 70.5617 141.919 65.2405 139.491 66.863C133.746 70.7265 132.075 88.1362 133.359 90.7444C134.257 92.5702 137.809 94.1528 139.858 94.9459C141.481 89.0801 142.473 84.4844 144.941 80.704C145.702 79.6168 146.333 78.4508 146.913 77.2585Z" fill="#E89D00"/>
<path d="M105.92 104.272C105.92 104.272 118.571 110.202 125.482 115.031C139.124 124.556 143.918 135.22 150.482 153.801C152.295 158.96 154.942 163.813 158.294 168.125L97.2104 185.806C97.2104 185.806 95.724 182.416 90.3014 156.121C86.5685 138.053 87.5115 116.557 93.8741 109.577C93.8481 109.577 106.139 110.799 105.92 104.272Z" fill="#FFAD00"/>
<path d="M105.92 104.272C105.92 104.272 118.57 110.202 125.482 115.03C139.123 124.556 143.918 135.22 150.481 153.8C152.294 158.96 154.942 163.813 158.294 168.125L97.2102 185.806C97.2102 185.806 95.7238 182.416 90.3013 156.121C86.5683 138.053 87.5113 116.556 93.8739 109.577C93.8739 109.577 94.7054 109.66 95.9014 109.668C99.3593 109.69 106.097 109.109 105.92 104.272ZM105.925 103.492C105.769 103.491 105.613 103.542 105.482 103.619C105.247 103.773 105.115 104.032 105.14 104.293C105.212 105.203 104.868 106.085 104.24 106.757C102.382 108.669 98.2201 108.929 95.9062 108.914C94.7622 108.907 93.9567 108.823 93.9567 108.823L93.8527 108.823C93.6187 108.821 93.4101 108.924 93.2791 109.079C90.1633 112.491 88.1169 119.446 87.5121 128.673C86.9373 137.275 87.6791 147.342 89.5201 156.298C94.8922 182.359 96.4291 185.983 96.4801 186.139C96.6083 186.426 96.8931 186.61 97.1791 186.612C97.2571 186.612 97.3351 186.613 97.4133 186.587L158.472 168.854C158.888 168.726 159.125 168.312 158.998 167.895C158.972 167.791 158.921 167.687 158.844 167.608C155.569 163.349 152.973 158.6 151.185 153.519C147.763 143.851 144.922 136.657 141.269 130.601C137.307 124.05 132.58 119.054 125.902 114.383C119.016 109.581 106.366 103.624 106.236 103.572C106.133 103.519 106.003 103.492 105.925 103.492Z" fill="black"/>
<path d="M163.882 156.148C163.882 156.148 156.295 135.013 163.243 125.905C170.191 116.797 221.011 110.465 221.011 110.465L228.95 133.552L201.188 144.633" fill="#5B0AB7"/>
<path d="M163.879 156.539C163.723 156.538 163.568 156.433 163.517 156.276C163.21 155.416 155.932 134.83 162.932 125.67C169.933 116.51 218.905 110.348 220.986 110.102C221.169 110.077 221.35 110.182 221.401 110.364L229.34 133.451C229.416 133.66 229.311 133.867 229.129 133.944L201.367 145.025C201.159 145.102 200.952 144.997 200.849 144.814C200.746 144.631 200.877 144.398 201.06 144.295L228.456 133.342L220.747 110.906C216.454 111.451 170.029 117.629 163.553 126.142C156.815 134.991 164.196 155.813 164.247 156.021C164.323 156.229 164.218 156.437 164.01 156.513C163.957 156.539 163.931 156.539 163.879 156.539Z" fill="black"/>
<path d="M222.366 110.11C224.425 105.183 227.262 100.625 230.798 96.6177C231.505 95.8162 232.727 95.746 233.529 96.4531C233.787 96.6887 233.967 96.9759 234.069 97.3145L244.065 128.215C244.065 128.215 236.935 133.11 230.074 132.624L222.366 110.11Z" fill="#7800FF"/>
<path d="M230.955 133.071C230.643 133.069 230.357 133.068 230.045 133.04C229.889 133.039 229.759 132.934 229.708 132.777L222 110.238C221.974 110.16 221.975 110.056 222.002 109.978C224.087 104.999 226.951 100.415 230.513 96.3559C231.377 95.3994 232.859 95.3308 233.816 96.195C234.1 96.4568 234.332 96.7963 234.459 97.1871L244.455 128.087C244.506 128.244 244.453 128.425 244.296 128.528C244.009 128.735 237.585 133.114 230.955 133.071ZM230.362 132.288C236.236 132.585 242.343 128.906 243.597 128.082L233.704 97.4423C233.423 96.6345 232.542 96.1868 231.734 96.4677C231.473 96.544 231.264 96.6987 231.081 96.8795C227.624 100.836 224.814 105.29 222.781 110.113L230.362 132.288Z" fill="black"/>
<path d="M147.337 145.227L88.3867 142.329C88.4112 142.563 88.4099 142.771 88.4344 143.005L89.7138 146.238L147.849 146.582C147.67 146.113 147.491 145.67 147.337 145.227Z" fill="#E89D00"/>
<path d="M215.077 111.312C215.077 111.312 221.117 126.353 223.372 135.623L230.541 132.757L222.598 110.242L215.077 111.312Z" fill="white"/>
<path d="M223.396 136.013C223.344 136.013 223.267 135.986 223.215 135.96C223.111 135.907 223.034 135.803 223.008 135.699C220.778 126.584 214.79 111.596 214.713 111.439C214.636 111.231 214.742 111.024 214.95 110.947C214.976 110.947 215.002 110.921 215.028 110.921L222.549 109.877C222.731 109.852 222.912 109.958 222.963 110.14L230.906 132.655C230.983 132.863 230.877 133.071 230.695 133.148L223.526 136.014C223.5 136.014 223.448 136.013 223.396 136.013ZM215.648 111.627C216.671 114.182 221.583 126.797 223.688 135.105L230.075 132.546L222.362 110.682L215.648 111.627Z" fill="black"/>
<path d="M137.028 147.215C137.028 147.215 165.787 114.195 179.144 119.532C192.5 124.87 200.582 137.713 202.265 147.058C203.947 156.403 207.069 168.357 207.069 168.357L187.501 178.997C187.501 178.997 173.071 158.521 171.923 155.029C170.775 151.538 137.028 147.215 137.028 147.215Z" fill="#7800FF"/>
<path d="M187.499 179.387C187.369 179.386 187.265 179.334 187.188 179.229C186.595 178.394 172.707 158.675 171.559 155.157C171.355 154.558 169.259 152.907 153.988 150.209C145.521 148.725 137.078 147.631 136.974 147.631C136.766 147.603 136.612 147.42 136.613 147.212C136.613 147.134 136.666 147.057 136.718 147.005C141.746 141.369 147.11 136.073 152.81 131.117C164.679 120.949 173.596 116.95 179.276 119.196C185.449 121.653 191.011 125.953 195.37 131.571C199.083 136.378 201.726 141.985 202.63 147.009C204.287 156.224 207.409 168.152 207.434 168.282C207.485 168.464 207.406 168.646 207.249 168.723L187.681 179.362C187.629 179.362 187.577 179.388 187.499 179.387ZM137.811 146.934C140.045 147.234 147.085 148.189 154.123 149.43C171.524 152.479 172.085 154.251 172.289 154.902C173.334 158.081 185.856 175.997 187.609 178.504L206.603 168.173C206.121 166.272 203.381 155.568 201.849 147.16C200.09 137.451 191.668 124.995 178.96 119.922C166.978 115.087 141.634 142.642 137.811 146.934Z" fill="black"/>
<path d="M138.178 146.521L178.945 146.754L139.722 144.814C139.068 145.538 138.544 146.107 138.178 146.521Z" fill="#59298F"/>
<path d="M207.508 168.855C207.508 168.855 215.538 169.556 222.946 173.971C223.853 174.523 224.157 175.721 223.605 176.627C223.421 176.912 223.186 177.171 222.873 177.325L194.432 193.004C194.432 193.004 187.813 187.163 186.973 180.32L207.508 168.855Z" fill="#7800FF"/>
<path d="M194.456 193.42C194.352 193.419 194.274 193.393 194.196 193.314C193.912 193.078 187.449 187.291 186.609 180.37C186.584 180.214 186.663 180.058 186.819 179.981L207.329 168.489C207.407 168.464 207.485 168.438 207.563 168.439C207.641 168.439 215.774 169.219 223.157 173.608C224.27 174.292 224.599 175.724 223.942 176.812C223.732 177.148 223.444 177.432 223.079 177.638L194.638 193.317C194.586 193.395 194.534 193.394 194.456 193.42ZM187.44 180.531C188.26 186.386 193.428 191.515 194.513 192.536L222.719 176.986C223.476 176.549 223.742 175.614 223.305 174.857C223.176 174.623 222.995 174.439 222.762 174.308C216.002 170.287 208.623 169.356 207.61 169.245L187.44 180.531Z" fill="black"/>
<path d="M204.978 161.922C204.978 161.922 191.852 169.431 183.194 173.432L187.232 180.452L207.454 169.14L204.978 161.922Z" fill="white"/>
<path d="M187.204 180.842C187.074 180.841 186.944 180.762 186.867 180.631L182.83 173.611C182.727 173.429 182.78 173.195 182.963 173.092C182.963 173.092 182.989 173.092 182.989 173.066C191.542 169.143 204.616 161.66 204.747 161.583C204.929 161.48 205.163 161.534 205.292 161.716C205.292 161.742 205.317 161.769 205.317 161.795L207.793 168.986C207.844 169.169 207.765 169.35 207.609 169.453L187.386 180.765C187.334 180.816 187.282 180.816 187.204 180.842ZM183.714 173.591L187.34 179.906L206.936 168.929L204.741 162.493C202.497 163.779 191.433 170.026 183.714 173.591Z" fill="black"/>
<path d="M82.9541 93.2053C82.9541 93.2053 76.8314 99.2504 73.2458 90.6994C71.3504 86.2152 62.6 76.2013 55.9999 79.6433C49.3998 83.0853 45.2214 77.8066 40.2136 76.1886C34.4533 74.3319 24.6293 81.8354 34.6434 93.4695C58.4139 121.078 89.8601 102.948 89.8601 102.948L87.4284 92.8438L82.9541 93.2053Z" fill="#7800FF"/>
<path d="M38.395 75.9433C39.019 75.9473 39.6165 76.0291 40.2133 76.2149C44.0016 77.4351 47.3343 80.7844 51.5982 80.8115C53.1324 80.7953 54.6428 80.4149 55.9996 79.6696C56.9127 79.1814 57.9282 78.9538 58.9682 78.9605C65.0001 78.9989 71.6321 86.8673 73.2455 90.7257C74.7311 94.2452 76.6226 95.2713 78.3646 95.2824C80.8345 95.2981 82.9539 93.2056 82.9539 93.2056L87.454 92.8963L89.8856 103C89.8856 103 79.6036 108.941 66.3438 108.856C56.412 108.793 44.8376 105.365 34.6427 93.5478C25.6355 83.0381 32.7011 75.907 38.395 75.9433ZM38.4 75.1633C35.072 75.1421 31.7565 77.253 30.359 80.3122C29.3044 82.5935 28.3896 87.4238 34.0678 94.0121C38.8425 99.5546 44.3023 103.698 50.2919 106.284C55.374 108.474 60.827 109.601 66.339 109.61C79.6508 109.695 89.8538 103.91 90.2975 103.653C90.5846 103.472 90.7428 103.135 90.6669 102.797L88.2353 92.6932C88.1594 92.3547 87.8491 92.0928 87.4851 92.0904L87.4331 92.0901L82.9329 92.4254C82.7507 92.4503 82.5682 92.5271 82.4374 92.6563C82.4112 92.6821 80.5015 94.516 78.3955 94.5026C76.6016 94.4911 75.1284 93.1037 74.0015 90.4185C72.2599 86.2733 65.395 78.2214 58.9992 78.1806C57.8292 78.1732 56.6834 78.4519 55.6661 78.9654C54.4396 79.6596 53.0593 80.0148 51.6292 80.0317C49.1853 80.0161 47.0868 78.8327 44.8328 77.5704C43.4338 76.7814 41.9829 75.9662 40.4779 75.4886C39.8034 75.2503 39.1021 75.1418 38.4 75.1633Z" fill="black"/>
<path d="M95.0231 108.726C95.0231 108.726 95.2821 108.884 95.7482 109.173C98.3903 110.75 104.687 114.144 108.364 112.347C112.642 110.242 107.617 107.142 107.617 107.142C113.5 110.17 110.585 106.563 110.585 106.563L106.597 104.146L95.0231 108.726Z" fill="white"/>
<path d="M105.81 113.242C102.326 113.219 98.0761 111.034 95.5378 109.51C95.0714 109.247 94.8126 109.063 94.8126 109.063C94.6313 108.958 94.5809 108.698 94.6861 108.517C94.7386 108.439 94.7909 108.387 94.8691 108.362L106.417 103.755C106.521 103.704 106.651 103.731 106.754 103.783L110.743 106.201C110.769 106.227 110.821 106.253 110.847 106.28C111.208 106.724 111.981 107.821 111.509 108.442C111.273 108.726 110.882 108.88 109.714 108.508C110.179 109.031 110.435 109.709 110.43 110.411C110.399 111.321 109.744 112.097 108.492 112.713C107.683 113.072 106.746 113.274 105.81 113.242ZM95.9062 108.81L95.9581 108.837C98.4704 110.361 104.715 113.703 108.184 111.983C109.149 111.495 109.647 110.952 109.677 110.354C109.736 109.185 108.054 107.874 107.381 107.454C107.2 107.322 107.149 107.088 107.281 106.907C107.386 106.752 107.594 106.701 107.775 106.78C110.082 107.965 110.732 107.969 110.888 107.944C110.761 107.527 110.555 107.162 110.297 106.822L106.542 104.536L95.9062 108.81Z" fill="black"/>
<path d="M81.5997 89.3751C84.8879 89.3961 87.5705 86.7474 87.5915 83.4592C87.6124 80.171 84.9638 77.4883 81.6755 77.4674C78.3873 77.4464 75.7047 80.0951 75.6837 83.3833C75.6628 86.6715 78.3114 89.3542 81.5997 89.3751Z" fill="#7800FF"/>
<path d="M81.6762 77.4408C84.9781 77.4619 87.6392 80.1309 87.6441 83.433C87.6231 86.7349 84.9541 89.396 81.652 89.4009C78.35 89.3799 75.689 86.7109 75.684 83.4088C75.7009 80.7568 77.458 78.402 80.0365 77.6904C80.5575 77.5377 81.13 77.4633 81.6762 77.4408ZM81.6811 76.6608C77.9632 76.6371 74.928 79.6339 74.9044 83.3518C74.8807 87.0697 77.8774 90.1049 81.5953 90.1286C85.3392 90.1524 88.3746 87.1297 88.3724 83.3856C88.3764 82.7616 88.3024 82.1371 88.1242 81.538C87.3103 78.6987 84.6969 76.706 81.6811 76.6608Z" fill="black"/>
<path d="M103.035 116.214C97.9662 107.914 85.3659 106.351 75.0925 98.6938C64.8191 91.0362 58.4915 88.4478 52.5185 87.3177C45.0395 85.892 42.8568 89.7522 42.8568 89.7522L38.7249 89.4139L34.3522 98.3042L38.7366 99.8141C39.5497 102.783 39.9233 105.36 50.9085 107.406C59.6604 109.022 61.3348 119.641 74.4681 127.316C87.6015 134.992 95.5068 134.809 95.5068 134.809" fill="#FFAD00"/>
<path d="M95.4266 135.198C94.3866 135.192 86.7185 134.883 74.2843 127.653C67.8083 123.868 63.9895 119.267 60.9447 115.608C57.7197 111.687 55.1653 108.603 50.8282 107.821C39.9208 105.802 39.2354 103.197 38.4223 100.228L38.3968 100.15L34.22 98.6933C34.0125 98.614 33.9098 98.4054 33.9891 98.1979C33.9891 98.1979 33.9893 98.1719 34.0153 98.172L38.3882 89.2557C38.4672 89.1002 38.6237 89.0232 38.7795 89.0502L42.6776 89.361C43.2809 88.5329 45.8992 85.6635 52.5992 86.9542C57.7409 87.949 64.0459 90.0172 75.3286 98.4093C79.5467 101.556 84.0837 103.613 88.4648 105.643C94.5571 108.438 100.338 111.075 103.375 116.06C103.478 116.243 103.424 116.477 103.241 116.606C103.059 116.708 102.825 116.655 102.696 116.472C99.7885 111.695 94.3702 109.217 88.1222 106.369C83.689 104.339 79.1002 102.255 74.8305 99.0561C63.6512 90.7427 57.4501 88.7012 52.4122 87.733C45.3486 86.388 43.2466 89.8327 43.1678 89.9622C43.089 90.0917 42.9585 90.1688 42.8025 90.1678L38.9564 89.8573L34.8994 98.1517L38.8687 99.529C38.9986 99.5558 39.1019 99.6605 39.1271 99.7906L39.2034 100.051C39.94 102.786 40.5749 105.156 51.0148 107.095C55.6114 107.956 58.2431 111.145 61.5715 115.17C64.7451 119.012 68.3317 123.325 74.7041 127.058C87.5786 134.55 95.4571 134.496 95.5351 134.497C95.7431 134.498 95.9239 134.681 95.9226 134.889C95.9213 135.097 95.7381 135.278 95.5301 135.277L95.4266 135.198Z" fill="black"/>
<path d="M39.3113 99.4272C39.9661 98.6774 44.1269 94.4918 42.8544 90.1676C42.8019 90.2453 42.5169 90.0875 42.5169 90.0875L38.904 89.9085L35.1324 98.3086L39.3113 99.4272Z" fill="#E89D00"/>
<path d="M30.9186 86.3216C35.6558 85.5197 35.8449 84.4029 39.0632 85.3074C41.1137 85.8665 41.505 89.7431 40.0767 93.5561C38.6484 97.369 35.9022 99.8996 33.9049 99.1589C31.9075 98.4181 30.4579 97.4209 28.1754 96.5483" fill="#FFCDB2"/>
<path d="M34.6296 99.6837C34.3436 99.6818 34.058 99.628 33.7726 99.5222C32.8648 99.1784 31.9575 98.7566 31.0763 98.309C30.0916 97.7827 29.0805 97.3343 28.043 96.9376C27.8353 96.8843 27.7067 96.6755 27.786 96.468C27.8393 96.2603 28.0481 96.1317 28.2556 96.211C28.2816 96.2111 28.2816 96.2111 28.3075 96.2373C29.3709 96.6341 30.4079 97.1087 31.4186 97.6352C32.2738 98.0826 33.1293 98.4781 34.0371 98.8219C34.8413 99.113 35.8836 98.7556 36.9297 97.8003C38.0541 96.7934 39.026 95.2396 39.6874 93.4498C40.6398 90.8818 40.7611 88.1785 40.0165 86.6917C39.8115 86.2224 39.4238 85.8559 38.9308 85.6968C36.9842 85.1644 36.2289 85.3676 34.7179 85.826C33.4935 86.2082 32.2175 86.512 30.9422 86.7119C30.734 86.7366 30.5269 86.6053 30.4762 86.3969C30.4515 86.1888 30.5829 85.9816 30.7912 85.9309C32.0405 85.7309 33.2644 85.4267 34.4629 85.0443C36.052 84.5604 36.9377 84.3061 39.0918 84.9178C39.7925 85.1303 40.3611 85.6539 40.669 86.3059C41.5422 88.0015 41.4198 90.8868 40.3879 93.6882C39.6737 95.6077 38.6233 97.2391 37.4202 98.3494C36.5044 99.2536 35.5396 99.6895 34.6296 99.6837Z" fill="black"/>
<path d="M106.427 85.8151C106.427 85.8151 107.06 80.3591 103.222 78.8006C99.3838 77.2421 98.91 78.1491 96.94 77.2005C94.97 76.2519 90.9338 77.2142 89.147 80.1669C89.147 80.1669 84.0476 80.6804 81.9471 83.8911C79.8466 87.1018 80.0927 89.2874 81.2704 92.155C82.4482 95.0225 82.5418 96.6612 83.3088 98.6941C84.0759 100.727 87.008 105.738 95.6547 103.453C104.301 101.168 106.427 85.8151 106.427 85.8151Z" fill="#7800FF"/>
<path d="M95.2263 76.851C95.8245 76.8288 96.4216 76.9626 96.9661 77.2C98.9101 78.1485 99.4357 77.2678 103.248 78.8001C107.06 80.3324 106.453 85.8147 106.453 85.8147C106.453 85.8147 104.353 101.22 95.7066 103.479C94.3522 103.86 92.947 104.033 91.5429 104.05C86.083 104.015 84.0003 100.362 83.3869 98.6939C82.6198 96.661 82.5264 94.9964 81.3485 92.1548C80.1706 89.3133 79.9247 87.1016 82.0252 83.891C84.1257 80.6803 89.225 80.1668 89.225 80.1668C90.5394 77.9131 93.1723 76.8379 95.2263 76.851ZM95.2573 76.0711C93.1253 76.0576 90.3366 77.1058 88.7357 79.4356C87.4344 79.6354 83.269 80.4668 81.3258 83.4705C79.0415 86.966 79.3379 89.412 80.5925 92.462C81.1304 93.7395 81.5379 95.0681 81.8673 96.4222C82.0697 97.3075 82.3242 98.1672 82.6309 99.0011C83.1423 100.356 85.2979 104.816 91.5118 104.856C92.9939 104.839 94.4512 104.641 95.8837 104.26C99.6601 103.27 102.829 99.7538 105.023 94.0997C106.027 91.4541 106.773 88.7288 107.207 85.9495L107.207 85.9235C107.234 85.6636 107.843 79.8694 103.539 78.0999C101.308 77.2017 100.165 77.0904 99.2296 76.9805C98.5797 76.9503 97.9307 76.7902 97.3346 76.5004C96.6604 76.2101 95.9594 76.0496 95.2573 76.0711Z" fill="black"/>
<path d="M49.4667 101.104C50.1703 101.109 50.7443 100.542 50.7488 99.8383C50.7533 99.1347 50.1866 98.5607 49.483 98.5562C48.7794 98.5517 48.2053 99.1185 48.2009 99.8221C48.1964 100.526 48.7631 101.1 49.4667 101.104Z" fill="#FFC140"/>
<path d="M102.692 100.741L107.284 106.387C107.284 106.387 108.271 110.579 96.329 107.721C96.329 107.721 96.6327 104.941 94.0713 98.8663C94.0713 98.8663 91.5388 100.514 89.9666 98.3461C88.3944 96.178 89.5763 94.3135 90.9827 93.9325C90.9827 93.9325 96.8659 92.8259 93.0602 82.0895C93.0602 82.0895 98.2485 79.8605 102.857 82.8799C107.466 85.8993 111.177 91.0451 109.539 95.2467C107.9 99.4484 102.692 100.741 102.692 100.741Z" fill="#FFCDB2"/>
<path d="M97.4599 81.2595C99.384 81.2458 101.252 81.8037 102.884 82.8541C107.493 85.8736 111.204 91.0193 109.565 95.2209C107.926 99.4226 102.692 100.741 102.692 100.741L107.284 106.387C107.284 106.387 107.841 108.756 103.057 108.726C101.471 108.716 99.2887 108.442 96.3293 107.721C96.3293 107.721 96.633 104.941 94.0716 98.8663C93.4713 99.2265 92.7678 99.456 92.0657 99.4775C91.2337 99.4722 90.4564 99.0513 89.9929 98.3463C88.4468 96.1524 89.6026 94.3137 91.009 93.9327C91.009 93.9327 96.8922 92.8262 93.0865 82.0897C94.4681 81.5265 95.9519 81.2499 97.4599 81.2595ZM97.4649 80.4796C95.8529 80.4693 94.2651 80.7452 92.7793 81.3337C92.4143 81.4874 92.2035 81.9281 92.357 82.3191C94.1702 87.4787 93.6331 90.1533 92.8705 91.5005C92.4494 92.3038 91.7178 92.8712 90.858 93.1517L90.7798 93.1772C89.7898 93.4829 89.0051 94.2319 88.6609 95.1917C88.2637 96.3332 88.5155 97.6089 89.3661 98.7843C89.9583 99.6981 90.9948 100.251 92.0869 100.232C92.6329 100.235 93.1797 100.109 93.701 99.904C95.7737 105.143 95.5759 107.612 95.5758 107.638C95.5473 108.028 95.805 108.394 96.1685 108.474C98.9463 109.142 101.258 109.494 103.078 109.506C105.288 109.52 106.825 109.036 107.585 108.079C108.004 107.561 108.191 106.886 108.065 106.21C108.04 106.105 107.989 105.975 107.911 105.897L104.041 101.14C105.788 100.475 109.048 98.8317 110.317 95.5117C112.168 90.7134 107.991 85.2527 103.33 82.207C101.569 81.0777 99.545 80.4668 97.4649 80.4796Z" fill="black"/>
<path d="M100.659 101.509C100.269 101.506 99.905 101.478 99.5152 101.449C99.3074 101.422 99.1527 101.213 99.18 101.005C99.2073 100.797 99.4163 100.643 99.6242 100.67C99.6502 100.67 101.729 100.918 103.188 100.355C103.397 100.278 103.604 100.409 103.681 100.618C103.731 100.8 103.652 101.008 103.47 101.085C102.584 101.365 101.621 101.515 100.659 101.509Z" fill="black"/>
<path d="M93.0359 98.2096C93.0099 98.2094 92.9839 98.2093 92.9579 98.2091C91.7897 97.9156 91.0649 97.417 90.8355 96.6876C90.4781 95.6453 91.3166 94.6366 91.3429 94.5848C91.4739 94.4296 91.7341 94.4053 91.8893 94.5362C92.0444 94.6672 92.0688 94.9274 91.9378 95.0826C91.9376 95.1086 91.3611 95.8069 91.5652 96.4322C91.7437 96.9793 92.5219 97.2703 93.1449 97.4303C93.3525 97.4836 93.4812 97.6924 93.4279 97.9001C93.3745 98.1077 93.2179 98.2108 93.0359 98.2096Z" fill="black"/>
<path d="M98.9279 87.5611C97.0664 89.9933 93.1298 91.6323 93.3037 92.9074C93.4776 94.1825 94.8249 94.9191 96.286 94.1224C97.7471 93.3257 98.9501 92.2414 101.279 89.8902C103.608 87.5389 105.73 85.0564 104.307 83.9813C102.884 82.9062 101.681 83.9646 98.9279 87.5611Z" fill="#FFB49F"/>
<path d="M95.0945 93.4125L95.0685 93.4124C94.8606 93.385 94.7058 93.202 94.7071 92.9941C94.9887 89.6158 98.1094 89.5057 98.1354 89.5058C98.3434 89.5072 98.5243 89.6903 98.5229 89.8983C98.5216 90.1063 98.3385 90.2871 98.1305 90.2858C98.0265 90.2852 95.6858 90.3742 95.4608 93.0509C95.4595 93.2588 95.2765 93.4137 95.0945 93.4125Z" fill="black"/>
<path d="M97.9308 85.007C97.7228 85.0057 97.5418 84.8485 97.5171 84.6404C97.5184 84.4324 97.6756 84.2514 97.8837 84.2267C98.4822 84.1525 99.0557 83.9222 99.5518 83.5873C99.7346 83.4585 99.9685 83.486 100.097 83.6688C100.226 83.8256 100.199 84.0855 100.016 84.2143C99.415 84.6525 98.7114 84.908 97.9568 85.0072L97.9308 85.007Z" fill="black"/>
<path d="M100.091 96.8501C99.5971 96.8469 99.1037 96.7398 98.6367 96.5808C98.4292 96.5015 98.3527 96.267 98.4321 96.0595C98.5112 95.878 98.6939 95.7752 98.9015 95.8285C101.237 96.6234 102.209 94.9915 102.261 94.9139C102.367 94.7325 102.601 94.656 102.782 94.7612C102.964 94.8664 103.04 95.1009 102.935 95.2822C102.331 96.2664 101.235 96.8574 100.091 96.8501Z" fill="black"/>
<path d="M87.3644 94.6373C87.2344 94.6365 87.1564 94.636 87.1304 94.6358C86.9225 94.6345 86.7416 94.4513 86.7689 94.2435C86.7703 94.0355 86.9534 93.8547 87.1613 93.882C87.1873 93.8821 90.6963 94.0345 92.4489 92.3816C92.6059 92.2266 92.8399 92.2281 92.9949 92.3851C93.1499 92.5421 93.1484 92.7761 92.9914 92.9311C92.9914 92.9311 92.9914 92.9311 92.9652 92.9569C91.2652 94.5321 88.2484 94.6429 87.3644 94.6373Z" fill="black"/>
<path d="M90.079 93.043C89.949 93.0421 89.8193 92.9893 89.7422 92.8588C89.6133 92.676 89.6668 92.4423 89.8496 92.3135C94.1053 89.5585 91.7958 84.7597 91.6931 84.5511C91.5903 84.3684 91.6698 84.1349 91.8784 84.0322C92.0611 83.9294 92.2946 84.0089 92.3973 84.2175C92.4229 84.2697 95.1176 89.825 90.2875 92.9663C90.235 93.044 90.157 93.0435 90.079 93.043Z" fill="white"/>
<path d="M73.3384 84.2779C73.2084 84.2771 73.0789 84.1982 73.0017 84.0677C72.282 82.7631 72.1083 81.462 72.4539 80.2682C73.0915 78.1402 75.1527 77.0093 75.2311 76.9578C75.4137 76.8549 75.6472 76.9344 75.7499 77.1431C75.8527 77.3258 75.7732 77.5593 75.5906 77.6621C75.5646 77.6619 73.712 78.6901 73.1804 80.5068C72.888 81.519 73.0372 82.5859 73.654 83.7079C73.7569 83.8905 73.6774 84.124 73.4947 84.2269C73.4685 84.2527 73.3904 84.2782 73.3384 84.2779Z" fill="black"/>
<path d="M103.091 91.2279C103.013 91.2274 102.961 91.2011 102.909 91.1748L98.6091 88.7033C98.4278 88.5982 98.3513 88.3637 98.4564 88.1824C98.5616 88.001 98.7961 87.9245 98.9774 88.0297L103.278 90.5011C103.459 90.6063 103.536 90.8408 103.43 91.0221C103.352 91.1516 103.221 91.2288 103.091 91.2279Z" fill="black"/>
<path d="M152.223 55.9203C156.94 54.2343 161.373 52.1825 160.84 54.3112C160.279 56.5437 158.107 58.7659 151.965 59.6887C146.109 60.5615 145.519 59.3357 145.519 59.3357" fill="#FFCDB2"/>
<path d="M148.268 60.3932C145.85 60.3778 145.308 59.7503 145.18 59.5155C145.103 59.307 145.182 59.0995 145.365 58.9967C145.547 58.9198 145.755 58.9732 145.858 59.1298C145.91 59.1822 146.84 60.0461 151.915 59.2984C156.938 58.5504 159.809 56.8527 160.476 54.2309C160.529 54.0752 160.53 53.9192 160.478 53.8929C160.012 53.4739 157.12 54.5475 154.8 55.4167C154.018 55.7238 153.184 56.0305 152.376 56.3113C152.168 56.362 151.961 56.2307 151.91 56.0483C151.859 55.866 151.964 55.6587 152.121 55.5817C152.955 55.301 153.763 54.9941 154.545 54.6871C158.245 53.3067 160.226 52.6173 161.002 53.2982C161.208 53.4815 161.388 53.7947 161.254 54.4179C160.508 57.3771 157.427 59.2816 152.066 60.0794C150.791 60.2793 149.542 60.3753 148.268 60.3932Z" fill="black"/>
<path d="M140.709 51.1408C140.709 51.1408 149.3 45.3974 150.482 47.485C151.665 49.5726 145.799 52.1092 145.209 54.9395C144.619 57.7698 140.709 51.1408 140.709 51.1408Z" fill="#FFCDB2"/>
<path d="M144.656 56.0537C143.252 56.0448 141.039 52.4686 140.396 51.3465C140.293 51.1638 140.346 50.9302 140.529 50.8273C141.26 50.338 147.657 46.1407 150.02 46.7017C150.383 46.782 150.668 46.9919 150.848 47.305C151.619 48.688 150.102 50.0563 148.481 51.528C147.252 52.6122 145.866 53.8514 145.624 55.0459C145.463 55.7989 145.098 56.0045 144.812 56.0547C144.76 56.0544 144.708 56.054 144.656 56.0537ZM141.254 51.274C142.618 53.5187 144.192 55.3487 144.661 55.2737C144.713 55.2741 144.792 55.1446 144.845 54.8849C145.14 53.4567 146.579 52.1659 147.939 50.9265C149.325 49.6873 150.632 48.5257 150.143 47.6905C150.066 47.56 149.937 47.4812 149.807 47.4544C148.171 47.08 143.343 49.9092 141.254 51.274Z" fill="black"/>
<path d="M136.695 56.705C136.695 56.705 137.882 50.0044 143.232 50.9745C148.582 51.9446 150.573 53.6993 153.268 50.9865C157.769 46.4391 161.228 46.2531 157.202 53.7936C153.176 61.3341 140.405 62.1627 140.405 62.1627" fill="#FFCDB2"/>
<path d="M140.402 62.579C140.194 62.5776 140.013 62.4205 139.988 62.2123C139.964 62.0041 140.147 61.8233 140.355 61.7986C140.485 61.7995 152.971 60.891 156.839 53.6355C159.234 49.1267 158.459 48.3678 158.356 48.2891C157.942 47.9745 156.248 48.5097 153.5 51.2742C151.355 53.4446 149.616 52.9655 146.734 52.2191C145.696 51.9525 144.528 51.633 143.125 51.3901C141.957 51.1487 140.76 51.375 139.767 52.0447C137.626 53.5391 137.033 56.7854 137.033 56.8114C137.005 57.0192 136.796 57.1739 136.563 57.1464C136.329 57.1189 136.2 56.9101 136.228 56.6762C136.255 56.5204 136.901 53.0665 139.303 51.3918C140.453 50.5931 141.884 50.3162 143.234 50.6108C144.663 50.8799 145.857 51.1735 146.895 51.4661C149.698 52.212 151.1 52.5849 152.906 50.7244C153.9 49.7167 157.249 46.54 158.776 47.6678C159.759 48.402 159.329 50.5313 157.487 54.0037C153.486 61.6223 140.974 62.5306 140.402 62.579Z" fill="black"/>
<path d="M93.1512 100.628C93.6968 100.632 94.142 100.192 94.1455 99.6468C94.1489 99.1012 93.7094 98.656 93.1638 98.6525C92.6181 98.6491 92.173 99.0886 92.1695 99.6342C92.166 100.18 92.6055 100.625 93.1512 100.628Z" fill="#FFAD00"/>
<path d="M93.1634 98.6785C93.7094 98.6819 94.1485 99.1267 94.1451 99.6727C94.1422 100.115 93.8539 100.477 93.4371 100.604C93.3589 100.63 93.255 100.629 93.177 100.629C92.631 100.625 92.2178 100.18 92.2213 99.6345C92.2239 99.2185 92.5124 98.8303 92.9292 98.703C92.9812 98.7033 93.0854 98.678 93.1634 98.6785ZM93.1683 97.8985C92.2064 97.8923 91.3954 98.6672 91.3891 99.6552C91.3828 100.643 92.1578 101.428 93.1458 101.434C93.3018 101.435 93.484 101.411 93.6403 101.36C94.5779 101.106 95.1042 100.121 94.85 99.2092C94.647 98.4279 93.9483 97.9034 93.1683 97.8985Z" fill="black"/>
<path d="M77.6204 85.5014C77.4644 85.5004 77.3091 85.3954 77.2581 85.239C76.7215 83.7536 76.73 82.4276 77.3089 81.3393C78.2561 79.5773 80.3136 79.0444 80.4177 79.019C80.6261 78.9684 80.8332 79.0997 80.8839 79.308C80.9346 79.5163 80.8032 79.7235 80.5949 79.7742C80.5689 79.774 78.772 80.2306 77.9826 81.7076C77.5089 82.5886 77.5018 83.7066 77.9619 84.9575C78.0385 85.166 77.9332 85.3733 77.7247 85.45C77.6986 85.4758 77.6724 85.5017 77.6204 85.5014Z" fill="white"/>
<path d="M134.534 61.2933L134.508 61.2931C135.206 61.9736 139.883 66.4495 146.334 65.9706L146.464 65.9454L147.044 60.671L136.456 57.4835L134.534 61.2933Z" fill="#E89D00"/>
<path d="M164.85 118.583C166.443 117.45 168.217 116.551 170.093 115.965C171.969 115.353 173.92 115.053 175.897 115.04C177.795 115.026 179.717 115.324 181.533 115.882C185.088 116.996 188.273 119.123 190.647 121.998C190.801 122.181 190.93 122.364 191.085 122.547C191.24 122.704 191.474 122.705 191.631 122.55C191.788 122.395 191.79 122.161 191.635 122.004C190.448 120.489 189.053 119.128 187.5 118.026C185.947 116.898 184.211 116.003 182.395 115.367C180.527 114.705 178.605 114.355 176.629 114.29C174.602 114.225 172.572 114.473 170.619 115.032C168.665 115.566 166.788 116.412 165.091 117.519C164.882 117.648 164.673 117.802 164.464 117.957C164.281 118.06 164.228 118.293 164.33 118.476C164.434 118.607 164.667 118.66 164.85 118.583Z" fill="black"/>
<path d="M221.418 103.708L225.485 97.9355L229.552 92.1373L231.834 88.8758C231.94 88.6945 231.889 88.4601 231.708 88.329C231.527 88.2238 231.292 88.2743 231.161 88.4555L227.094 94.2277L223.053 100.026L220.77 103.288C220.665 103.469 220.716 103.703 220.897 103.834C221.104 103.94 221.339 103.889 221.418 103.708Z" fill="black"/>
<path d="M139.221 137.842C139.924 137.847 140.498 137.28 140.503 136.577C140.507 135.873 139.94 135.299 139.237 135.294C138.533 135.29 137.959 135.857 137.955 136.56C137.95 137.264 138.517 137.838 139.221 137.842Z" fill="#FFC140"/>
<path d="M103.473 141.567C104.176 141.572 104.75 141.005 104.755 140.301C104.759 139.598 104.192 139.024 103.489 139.019C102.785 139.015 102.211 139.582 102.207 140.285C102.202 140.989 102.769 141.563 103.473 141.567Z" fill="#FFC140"/>
<path d="M122.472 142.624C123.175 142.629 123.749 142.062 123.754 141.358C123.758 140.655 123.191 140.081 122.488 140.076C121.784 140.072 121.21 140.639 121.206 141.342C121.201 142.046 121.768 142.62 122.472 142.624Z" fill="#FFC140"/>
<path d="M109.364 126.758C110.068 126.763 110.642 126.196 110.646 125.493C110.651 124.789 110.084 124.215 109.38 124.211C108.677 124.206 108.103 124.773 108.098 125.476C108.094 126.18 108.661 126.754 109.364 126.758Z" fill="#FFC140"/>
<path d="M127.204 130.356C127.908 130.36 128.482 129.794 128.486 129.09C128.491 128.386 127.924 127.812 127.22 127.808C126.517 127.803 125.943 128.37 125.938 129.074C125.934 129.777 126.5 130.351 127.204 130.356Z" fill="#FFC140"/>
<path d="M117.539 117.061C118.243 117.065 118.817 116.498 118.821 115.795C118.826 115.091 118.259 114.517 117.555 114.513C116.852 114.508 116.278 115.075 116.273 115.779C116.269 116.482 116.835 117.056 117.539 117.061Z" fill="#FFC140"/>
<path d="M51.1259 93.6786C51.8295 93.6831 52.4035 93.1164 52.408 92.4128C52.4125 91.7092 51.8457 91.1352 51.1421 91.1307C50.4385 91.1262 49.8645 91.6929 49.86 92.3965C49.8556 93.1001 50.4223 93.6741 51.1259 93.6786Z" fill="#FFC140"/>
<path d="M78.1884 106.617C78.892 106.621 79.466 106.055 79.4705 105.351C79.475 104.647 78.9082 104.073 78.2046 104.069C77.501 104.064 76.927 104.631 76.9225 105.335C76.9181 106.038 77.4848 106.612 78.1884 106.617Z" fill="#FFC140"/>
<path d="M61.7382 105.342C62.4418 105.347 63.0158 104.78 63.0203 104.076C63.0248 103.373 62.458 102.799 61.7544 102.794C61.0508 102.79 60.4768 103.357 60.4724 104.06C60.4679 104.764 61.0346 105.338 61.7382 105.342Z" fill="#FFC140"/>
<path d="M82.246 126.819C82.9496 126.824 83.5237 126.257 83.5281 125.553C83.5326 124.85 82.9659 124.276 82.2623 124.271C81.5587 124.267 80.9846 124.834 80.9802 125.537C80.9757 126.241 81.5424 126.815 82.246 126.819Z" fill="#FFC140"/>
<path d="M116.004 100.852C116.707 100.856 117.281 100.29 117.286 99.5861C117.29 98.8825 116.724 98.3085 116.02 98.304C115.316 98.2995 114.742 98.8663 114.738 99.5699C114.733 100.273 115.3 100.847 116.004 100.852Z" fill="#FFC140"/>
<path d="M134.082 99.5631C134.786 99.5676 135.36 99.0009 135.364 98.2973C135.369 97.5937 134.802 97.0197 134.098 97.0152C133.395 97.0107 132.821 97.5775 132.816 98.281C132.812 98.9846 133.378 99.5587 134.082 99.5631Z" fill="#FFC140"/>
<path d="M126.202 79.5707C126.906 79.5752 127.48 79.0085 127.484 78.3049C127.489 77.6013 126.922 77.0272 126.218 77.0228C125.515 77.0183 124.941 77.585 124.936 78.2886C124.932 78.9922 125.498 79.5662 126.202 79.5707Z" fill="#FFC140"/>
<path d="M141.309 75.3769C142.012 75.3814 142.586 74.8146 142.591 74.111C142.595 73.4074 142.028 72.8334 141.325 72.8289C140.621 72.8244 140.047 73.3912 140.043 74.0948C140.038 74.7984 140.605 75.3724 141.309 75.3769Z" fill="#FFC140"/>
<path d="M187.84 129.832C189.08 131.14 190.241 132.526 191.324 133.963C192.406 135.426 193.411 136.966 194.337 138.558C195.236 140.15 196.058 141.767 196.749 143.461C198.158 146.798 199.176 150.315 199.777 153.907C199.801 154.115 199.852 154.349 199.877 154.558C199.927 154.766 200.161 154.871 200.343 154.821C200.551 154.744 200.657 154.537 200.606 154.354C200.332 152.532 199.953 150.736 199.47 148.965C198.988 147.194 198.375 145.448 197.683 143.753C196.992 142.033 196.197 140.364 195.323 138.746C193.55 135.511 191.385 132.507 188.88 129.813L188.416 129.29C188.054 128.898 187.504 129.466 187.84 129.832Z" fill="white"/>
<path d="M102 86.9569C102.359 86.9592 102.652 86.6701 102.654 86.3111C102.657 85.9521 102.367 85.6593 102.008 85.657C101.649 85.6547 101.357 85.9438 101.354 86.3028C101.352 86.6618 101.641 86.9547 102 86.9569Z" fill="black"/>
<path d="M60.2098 84.0383C60.1578 84.038 60.1058 84.0377 60.054 84.0113C48.1514 79.0474 40.5314 67.0906 36.2217 57.9369C33.4002 51.8868 31.2043 45.5807 29.6856 39.0969C29.6349 38.8885 29.7662 38.6814 30.0005 38.6309C30.2349 38.5804 30.416 38.7115 30.4666 38.9458C31.9856 45.3777 34.1556 51.6576 36.9516 57.6296C41.1842 66.6527 48.7012 78.4529 60.3705 83.3113C60.578 83.3907 60.6545 83.6252 60.5751 83.8327C60.5225 83.9363 60.3658 84.0393 60.2098 84.0383Z" fill="black"/>
<path d="M33.4038 67.6172C33.2998 67.6165 33.222 67.59 33.1445 67.5115C25.2057 60.7008 20.3571 50.4257 17.6744 42.9985C15.9626 38.2554 14.6416 33.3849 13.7373 28.4131C13.7126 28.2049 13.8439 27.9977 14.0781 27.9732C14.2862 27.9486 14.4934 28.0799 14.5179 28.314C14.5682 28.5744 18.6698 54.081 33.6421 66.9427C33.7973 67.0737 33.8217 67.3339 33.6907 67.489C33.6382 67.5667 33.5078 67.6179 33.4038 67.6172Z" fill="black"/>
<path d="M152.85 51.374C152.85 51.374 156.855 47.1354 158.384 47.8212C159.914 48.5069 157.828 53.6157 156.1 55.4767" fill="#FFCDB2"/>
<path d="M156.097 55.8666C155.993 55.8659 155.916 55.8134 155.838 55.7609C155.683 55.6039 155.685 55.3699 155.816 55.2148C157.177 53.7674 158.786 50.1116 158.484 48.6276C158.408 48.2891 158.278 48.2103 158.226 48.21C157.371 47.8145 154.731 50.0077 153.134 51.6616C153.003 51.8168 152.743 51.8411 152.588 51.7101C152.433 51.5791 152.408 51.319 152.539 51.1638C152.54 51.1378 152.566 51.138 152.566 51.112C153.272 50.3625 156.858 46.7192 158.543 47.484C158.932 47.6684 159.189 48.0601 159.239 48.4764C159.592 50.2207 157.903 54.11 156.384 55.7644C156.306 55.8419 156.201 55.8672 156.097 55.8666Z" fill="black"/>
<path d="M136.482 130.935C136.326 130.934 136.171 130.829 136.12 130.699C132.128 120.533 114.765 111.609 114.583 111.529C114.376 111.45 114.299 111.216 114.379 111.008C114.458 110.801 114.693 110.724 114.9 110.803C114.9 110.803 114.926 110.804 114.926 110.83C115.652 111.198 132.73 119.965 136.824 130.418C136.9 130.626 136.795 130.833 136.612 130.936C136.586 130.936 136.534 130.936 136.482 130.935Z" fill="white"/>
<path d="M32.8203 110.176C32.6383 110.175 32.4831 110.044 32.4581 109.888C32.2551 109.106 27.639 90.9027 36.2958 87.0317C37.7821 86.3652 39.1859 86.4001 40.5071 87.1626C46.0512 90.292 47.8548 105.124 47.9288 105.748C47.9535 105.956 47.7961 106.163 47.588 106.188C47.3798 106.213 47.1728 106.055 47.1481 105.847C47.1231 105.691 45.2941 90.7812 40.1128 87.8361C39.0248 87.2051 37.8809 87.1718 36.6033 87.7357C28.5463 91.3244 33.1366 109.502 33.1874 109.684C33.2381 109.893 33.1067 110.1 32.9244 110.151C32.8723 110.176 32.8463 110.176 32.8203 110.176Z" fill="black"/>
<path d="M40.8633 108.849C40.8373 108.849 40.8113 108.849 40.7853 108.849C40.5776 108.796 40.4489 108.587 40.5023 108.379C40.5293 108.223 44.0025 93.607 40.1574 89.0584C39.3575 88.0913 38.2682 87.6684 36.8896 87.7636C28.0718 88.3314 26.081 106.961 26.0797 107.169C26.0524 107.377 25.8694 107.532 25.6614 107.53C25.4535 107.503 25.2987 107.32 25.3 107.112C25.3832 106.307 27.3742 87.625 36.8424 87.0093C38.4552 86.8895 39.7776 87.444 40.7323 88.5941C44.8354 93.4563 41.3887 107.995 41.2288 108.618C41.1761 108.721 41.0193 108.85 40.8633 108.849Z" fill="black"/>
<path d="M23.5835 103.097C23.5835 103.097 18.6592 116.95 20.3403 126.503C20.3403 126.503 26.2896 131.351 41.2133 131.446C41.2133 131.446 47.5757 120.411 45.6511 108.256C45.6511 108.256 36.7239 101.517 23.5835 103.097Z" fill="#7800FF"/>
<path d="M27.8227 102.864C38.6124 102.933 45.6507 108.256 45.6507 108.256C47.5753 120.41 41.2128 131.446 41.2128 131.446L41.1348 131.446C26.2631 131.351 20.3399 126.503 20.3399 126.503C18.6587 116.95 23.5831 103.097 23.5831 103.097C24.9881 102.95 26.3927 102.855 27.8227 102.864ZM27.8276 102.084C26.3717 102.075 24.941 102.17 23.5099 102.343C23.2237 102.367 22.9624 102.573 22.8826 102.859C22.671 103.429 17.8784 116.997 19.6109 126.654C19.6357 126.837 19.7388 126.993 19.8939 127.124C20.1526 127.334 26.2061 132.13 41.1818 132.226L41.2598 132.226C41.5458 132.228 41.8068 132.074 41.9383 131.841C43.175 129.535 44.1784 127.123 44.9223 124.632C46.1696 120.661 47.4565 114.56 46.4575 108.131C46.4328 107.923 46.33 107.74 46.1486 107.635C45.8121 107.399 38.7214 102.154 27.8276 102.084Z" fill="black"/>
<path d="M29.5046 108.257C29.5046 108.257 29.671 122.948 34.5837 131.326C34.5837 131.326 41.848 133.816 55.8688 128.705C55.8688 128.705 58.0028 116.16 51.9872 105.41C51.9872 105.41 41.2695 102.196 29.5046 108.257Z" fill="#D9CFFF"/>
<path d="M39.6475 132.32C36.3456 132.299 34.6071 131.742 34.4774 131.689C34.3996 131.662 34.3221 131.584 34.2706 131.506C29.3579 123.128 29.1369 108.852 29.1408 108.228C29.1418 108.072 29.2206 107.943 29.3511 107.866C41.116 101.805 51.9901 104.968 52.1199 104.995C52.2237 105.021 52.3012 105.1 52.3527 105.178C58.3685 115.903 56.3115 128.604 56.2849 128.708C56.258 128.838 56.1532 128.967 56.0229 129.018C48.6995 131.728 43.2354 132.343 39.6475 132.32ZM34.8459 130.989C35.8841 131.282 42.9716 132.939 55.5067 128.417C55.7516 126.702 57.0455 115.426 51.6991 105.746C50.3753 105.4 40.5357 103.101 29.8932 108.493C29.9589 110.418 30.4744 123.369 34.8459 130.989Z" fill="black"/>
<path d="M21.9279 126.201C21.7199 126.2 21.5649 126.043 21.5402 125.835C20.7949 116.314 24.7099 105.808 24.7625 105.705C24.8677 105.523 25.1024 105.421 25.2837 105.526C25.4392 105.605 25.542 105.788 25.4889 105.969C25.4362 106.073 21.5742 116.423 22.3207 125.762C22.3454 125.97 22.188 126.177 21.9799 126.201L21.9279 126.201Z" fill="white"/>
<path d="M34.8927 111.385C35.2804 111.387 35.5967 111.075 35.5992 110.688C35.6017 110.3 35.2894 109.984 34.9017 109.981C34.514 109.979 34.1977 110.291 34.1952 110.679C34.1928 111.066 34.5051 111.383 34.8927 111.385Z" fill="#7800FF"/>
<path d="M44.0573 117.58C44.445 117.583 44.7613 117.27 44.7638 116.883C44.7662 116.495 44.4539 116.179 44.0662 116.176C43.6785 116.174 43.3623 116.486 43.3598 116.874C43.3573 117.261 43.6696 117.578 44.0573 117.58Z" fill="#7800FF"/>
<path d="M44.78 110.252C45.1676 110.254 45.4839 109.942 45.4864 109.554C45.4889 109.167 45.1766 108.85 44.7889 108.848C44.4012 108.846 44.0849 109.158 44.0824 109.545C44.08 109.933 44.3923 110.249 44.78 110.252Z" fill="#7800FF"/>
<path d="M40.1286 130.217C40.5163 130.22 40.8326 129.907 40.835 129.52C40.8375 129.132 40.5252 128.816 40.1375 128.813C39.7498 128.811 39.4335 129.123 39.4311 129.511C39.4286 129.898 39.7409 130.215 40.1286 130.217Z" fill="#7800FF"/>
<path d="M52.6017 127.255C52.9894 127.257 53.3057 126.945 53.3082 126.557C53.3107 126.169 52.9984 125.853 52.6107 125.851C52.223 125.848 51.9067 126.16 51.9042 126.548C51.9017 126.936 52.214 127.252 52.6017 127.255Z" fill="#7800FF"/>
<path d="M39.4489 122.673C39.8366 122.675 40.1529 122.363 40.1554 121.975C40.1578 121.587 39.8455 121.271 39.4578 121.269C39.0702 121.266 38.7539 121.578 38.7514 121.966C38.7489 122.354 39.0612 122.67 39.4489 122.673Z" fill="#7800FF"/>
<path d="M50.9484 117.442C51.3361 117.444 51.6524 117.132 51.6549 116.744C51.6573 116.356 51.345 116.04 50.9574 116.038C50.5697 116.035 50.2534 116.348 50.2509 116.735C50.2484 117.123 50.5607 117.439 50.9484 117.442Z" fill="#7800FF"/>
<path d="M36.103 129.542C35.973 129.541 35.8435 129.462 35.7662 129.358C31.4201 121.816 31.4889 111.026 31.4897 110.896C31.491 110.688 31.6742 110.507 31.8822 110.508C32.0902 110.51 32.271 110.693 32.2697 110.901C32.269 111.005 32.2016 121.587 36.4448 128.946C36.5476 129.128 36.4681 129.362 36.3115 129.465C36.2332 129.516 36.155 129.542 36.103 129.542Z" fill="white"/>
<path d="M14.0577 124.955C13.8757 124.953 13.7205 124.822 13.6697 124.64C11.1887 114.12 14.608 107.954 16.0549 105.311C16.2126 105.052 16.3442 104.793 16.4232 104.637C16.5284 104.456 16.763 104.353 16.9444 104.459C17.1257 104.564 17.2282 104.798 17.123 104.98C17.0177 105.187 16.8862 105.42 16.7284 105.705C15.3082 108.244 11.994 114.229 14.4248 124.463C14.4755 124.671 14.3442 124.878 14.1359 124.929C14.1097 124.955 14.0837 124.955 14.0577 124.955Z" fill="black"/>
<path d="M154.393 49.9016C154.602 49.721 154.837 49.5145 155.072 49.308C154.346 49.0173 153.567 48.8824 152.787 48.9554C143.318 49.5711 141.327 68.2528 141.244 69.0582C141.217 69.2661 141.372 69.4751 141.606 69.4765C141.813 69.5039 142.022 69.3492 142.024 69.1152C142.051 68.9334 144.042 50.3037 152.834 49.7097C153.38 49.7132 153.899 49.7685 154.393 49.9016Z" fill="black"/>
<path d="M157.359 53.6652C158.985 59.6297 156.473 70.2739 156.446 70.3777C156.393 70.5854 156.522 70.7942 156.729 70.8475C156.755 70.8477 156.781 70.8478 156.807 70.848C156.989 70.8492 157.146 70.7202 157.199 70.5385C157.333 69.9934 160.005 58.6741 157.859 52.6544C157.701 53.0174 157.543 53.3283 157.359 53.6652Z" fill="black"/>
<path d="M154.288 50.0051C153.431 49.9216 152.546 50.0719 151.764 50.457C143.107 54.3279 147.723 72.5317 147.926 73.313C147.977 73.4953 148.132 73.6003 148.314 73.6014C148.34 73.6016 148.392 73.6019 148.418 73.6021C148.626 73.5514 148.758 73.3443 148.707 73.1359C148.656 72.9536 144.066 54.776 152.123 51.1873C152.566 50.9821 153.035 50.8551 153.503 50.8061C153.713 50.5474 153.975 50.2891 154.288 50.0051Z" fill="black"/>
<path d="M163.396 69.1473C163.322 68.6008 161.963 57.3859 157.991 52.3685C157.859 52.6277 157.754 52.887 157.622 53.1462C161.282 58.1356 162.616 69.1163 162.642 69.2205C162.666 69.4286 162.873 69.586 163.081 69.5613C163.29 69.5366 163.447 69.3556 163.396 69.1473Z" fill="black"/>
<path d="M139.077 66.4968C139.077 66.4968 134.127 80.3496 135.834 89.9027C135.834 89.9027 141.783 94.7507 156.707 94.8458C156.707 94.8458 163.069 83.8101 161.145 71.6556C161.145 71.6556 152.217 64.9165 139.077 66.4968Z" fill="#D9CFFF"/>
<path d="M156.626 95.2349C141.806 95.1405 135.83 90.4223 135.597 90.2128C135.52 90.1603 135.468 90.082 135.469 89.978C133.788 80.4251 138.528 66.961 138.739 66.3644C138.792 66.2347 138.923 66.1315 139.053 66.1064C152.193 64.5261 161.303 71.2662 161.38 71.3187C161.458 71.3712 161.509 71.4756 161.535 71.5797C163.459 83.7342 157.122 94.9001 157.043 95.0296C156.964 95.1591 156.834 95.2103 156.704 95.2354L156.626 95.2349ZM136.199 89.6967C137.079 90.3263 143.137 94.343 156.475 94.454C157.291 92.9251 162.451 82.8178 160.779 71.8869C159.666 71.0998 151.225 65.5339 139.36 66.8883C138.751 68.6785 134.72 81.0031 136.199 89.6967Z" fill="black"/>
<path d="M144.998 71.6562C144.998 71.6562 145.165 86.3475 150.077 94.725C150.077 94.725 157.342 97.2154 171.362 92.1046C171.362 92.1046 173.496 79.5599 167.481 68.8094C167.481 68.8094 156.763 65.595 144.998 71.6562Z" fill="#7800FF"/>
<path d="M155.141 95.7193C151.839 95.6982 150.101 95.1411 149.971 95.0883C149.893 95.0618 149.816 94.9833 149.764 94.905C144.852 86.5275 144.631 72.2518 144.634 71.6278C144.635 71.4718 144.714 71.3423 144.845 71.2652C156.61 65.204 167.484 68.3674 167.614 68.3942C167.717 68.4209 167.795 68.4993 167.846 68.5777C173.862 79.3022 171.805 91.9774 171.779 92.1072C171.752 92.237 171.647 92.3664 171.517 92.4176C164.193 95.1269 158.729 95.7421 155.141 95.7193ZM150.34 94.3887C151.378 94.6813 158.465 96.3385 171 91.8163C171.245 90.1018 172.565 78.826 167.193 69.1455C165.869 68.7991 156.029 66.5003 145.387 71.8926C145.453 73.8171 145.968 86.7686 150.34 94.3887Z" fill="black"/>
<path d="M137.421 89.6001C137.213 89.5988 137.058 89.4418 137.033 89.2337C136.288 79.7127 140.203 69.2074 140.256 69.1038C140.309 68.8961 140.518 68.7674 140.726 68.8208C140.933 68.8741 141.062 69.0829 141.009 69.2906C141.008 69.3166 140.982 69.3424 140.982 69.3684C140.929 69.4721 137.093 79.8218 137.814 89.1606C137.839 89.3688 137.681 89.5758 137.447 89.5743L137.421 89.6001Z" fill="white"/>
<path d="M150.386 74.7844C150.774 74.7869 151.09 74.4746 151.093 74.0869C151.095 73.6992 150.783 73.3829 150.395 73.3804C150.008 73.378 149.691 73.6903 149.689 74.078C149.686 74.4657 149.999 74.782 150.386 74.7844Z" fill="#7800FF"/>
<path d="M159.551 80.9795C159.939 80.982 160.255 80.6697 160.258 80.282C160.26 79.8943 159.948 79.578 159.56 79.5755C159.173 79.573 158.856 79.8853 158.854 80.273C158.851 80.6607 159.164 80.977 159.551 80.9795Z" fill="#7800FF"/>
<path d="M160.273 73.6516C160.661 73.6541 160.977 73.3418 160.98 72.9541C160.982 72.5664 160.67 72.2501 160.282 72.2476C159.894 72.2452 159.578 72.5574 159.576 72.9451C159.573 73.3328 159.885 73.6491 160.273 73.6516Z" fill="#7800FF"/>
<path d="M155.623 93.6165C156.01 93.6189 156.327 93.3066 156.329 92.9189C156.332 92.5312 156.019 92.215 155.632 92.2125C155.244 92.21 154.928 92.5223 154.925 92.91C154.923 93.2977 155.235 93.614 155.623 93.6165Z" fill="#7800FF"/>
<path d="M168.069 90.654C168.457 90.6565 168.773 90.3442 168.775 89.9565C168.778 89.5688 168.466 89.2525 168.078 89.2501C167.69 89.2476 167.374 89.5599 167.372 89.9476C167.369 90.3353 167.681 90.6516 168.069 90.654Z" fill="#7800FF"/>
<path d="M154.942 86.0461C155.33 86.0486 155.646 85.7363 155.649 85.3486C155.651 84.9609 155.339 84.6446 154.951 84.6422C154.563 84.6397 154.247 84.952 154.245 85.3397C154.242 85.7274 154.554 86.0437 154.942 86.0461Z" fill="#7800FF"/>
<path d="M166.442 80.8411C166.83 80.8435 167.146 80.5312 167.149 80.1435C167.151 79.7558 166.839 79.4396 166.451 79.4371C166.063 79.4346 165.747 79.7469 165.745 80.1346C165.742 80.5223 166.054 80.8386 166.442 80.8411Z" fill="#7800FF"/>
<path d="M151.596 92.941C151.466 92.9402 151.337 92.8614 151.259 92.7569C146.913 85.215 146.982 74.3993 146.983 74.2953C146.984 74.0873 147.141 73.9063 147.349 73.9076C147.349 73.9076 147.349 73.9076 147.375 73.9078C147.583 73.9091 147.764 74.0922 147.763 74.3002C147.762 74.4042 147.695 84.986 151.938 92.3452C152.041 92.5279 151.987 92.7615 151.805 92.8644C151.726 92.9159 151.648 92.9414 151.596 92.941Z" fill="white"/>
<path d="M152.59 75.813C153.107 75.8163 153.529 75.3999 153.532 74.883C153.535 74.366 153.119 73.9443 152.602 73.941C152.085 73.9377 151.663 74.3541 151.66 74.871C151.657 75.388 152.073 75.8097 152.59 75.813Z" fill="#59298F"/>
<path d="M164.54 73.2368C165.057 73.2401 165.479 72.8237 165.482 72.3068C165.485 71.7899 165.069 71.3681 164.552 71.3649C164.035 71.3616 163.614 71.7779 163.61 72.2949C163.607 72.8118 164.023 73.2335 164.54 73.2368Z" fill="#59298F"/>
<path d="M159.406 79.2366C159.922 79.2399 160.344 78.8235 160.347 78.3066C160.351 77.7896 159.934 77.3679 159.417 77.3646C158.901 77.3613 158.479 77.7777 158.475 78.2946C158.472 78.8116 158.889 79.2333 159.406 79.2366Z" fill="#59298F"/>
<path d="M168.402 87.4057C168.919 87.409 169.34 86.9927 169.344 86.4757C169.347 85.9588 168.93 85.5371 168.414 85.5338C167.897 85.5305 167.475 85.9469 167.472 86.4638C167.468 86.9807 167.885 87.4024 168.402 87.4057Z" fill="#59298F"/>
<path d="M154.266 86.1458C154.783 86.149 155.205 85.7327 155.208 85.2157C155.211 84.6988 154.795 84.2771 154.278 84.2738C153.761 84.2705 153.339 84.6869 153.336 85.2038C153.333 85.7207 153.749 86.1425 154.266 86.1458Z" fill="#59298F"/>
<path d="M160.253 93.1523C160.77 93.1556 161.192 92.7393 161.195 92.2223C161.198 91.7054 160.782 91.2837 160.265 91.2804C159.748 91.2771 159.326 91.6935 159.323 92.2104C159.32 92.7273 159.736 93.1491 160.253 93.1523Z" fill="#59298F"/>
<path d="M164.629 79.6336C164.421 79.6323 164.241 79.4492 164.242 79.2412C164.243 79.0852 164.348 78.9298 164.504 78.8788C173.233 76.0224 180.937 70.6894 186.702 63.55C191.027 58.1694 192.746 53.6043 192.772 53.5524C192.851 53.3449 193.086 53.2684 193.293 53.3478C193.475 53.4269 193.552 53.6354 193.498 53.8171C193.419 53.9986 191.7 58.5377 187.297 64.0218C181.453 71.2907 173.618 76.7009 164.76 79.6085C164.707 79.6341 164.681 79.634 164.629 79.6336Z" fill="black"/>
<path d="M169.291 82.5236C169.083 82.5222 168.902 82.3651 168.877 82.1569C168.878 81.9489 169.036 81.7679 169.244 81.7432C187.534 79.8318 192.618 69.49 192.671 69.3863C192.75 69.1788 192.985 69.1023 193.192 69.1816C193.4 69.261 193.476 69.4955 193.397 69.7029L193.397 69.729C193.344 69.8326 192.079 72.5026 188.446 75.4175C185.127 78.1004 179.125 81.5202 169.343 82.5239L169.291 82.5236Z" fill="black"/>
<path d="M31.0799 97.6329C31.0799 97.6329 27.1074 96.7496 27.2389 92.4343C27.3704 88.1191 28.8516 84.1764 31.8508 82.7395C34.85 81.3026 37.3145 82.1763 38.5535 83.5882C39.7926 85.0002 39.3388 86.8433 37.2512 88.026C37.2512 88.026 38.8971 90.8706 35.141 92.7707C35.141 92.7707 35.966 97.95 31.662 96.0506L31.0799 97.6329Z" fill="#FFCDB2"/>
<path d="M34.8718 82.0051C36.2759 81.9881 37.5983 82.5685 38.5278 83.5884C39.7668 85.0004 39.313 86.8435 37.2255 88.0262C37.2255 88.0262 38.8714 90.8708 35.1152 92.7709C35.1152 92.7709 35.7157 96.4668 33.2717 96.4512C32.6999 96.4216 32.1547 96.2881 31.6364 96.0248L31.0543 97.6071C31.0543 97.6071 27.0818 96.7238 27.2133 92.4085C27.3448 88.0933 28.826 84.1506 31.8252 82.7137C32.7642 82.2517 33.8056 82.0243 34.8718 82.0051ZM34.8768 81.2251C33.7066 81.2437 32.5608 81.5224 31.5175 82.0357C28.5183 83.4727 26.6215 87.3607 26.4593 92.4037C26.2855 95.2107 28.1675 97.7187 30.9193 98.3862C30.9713 98.3866 31.0232 98.4129 31.0752 98.4132C31.4131 98.4154 31.7005 98.2092 31.8065 97.8979L32.1239 97.0419C32.5131 97.1744 32.9027 97.2289 33.2927 97.2313C34.0205 97.262 34.6985 96.9543 35.17 96.4113C35.9819 95.4805 36.0174 93.9986 35.9445 93.1922C37.1451 92.4718 37.9048 91.5926 38.2234 90.5546C38.436 89.828 38.415 89.0478 38.1855 88.3444C39.1781 87.6227 39.7817 86.7425 39.944 85.7555C40.0803 84.7684 39.7746 83.7784 39.1031 83.0721C38.0187 81.8692 36.4889 81.2094 34.8768 81.2251Z" fill="black"/>
<path d="M35.1389 93.1611C35.0349 93.1605 34.9312 93.1078 34.8537 93.0293C33.0975 91.1721 30.3936 91.1549 30.3416 91.1545C30.1336 91.1532 29.9527 90.9701 29.9541 90.7621C29.9554 90.5541 30.1385 90.3732 30.3465 90.3746C30.4765 90.3754 33.4145 90.3941 35.4032 92.4868C35.5582 92.6438 35.5567 92.8778 35.3997 93.0328C35.347 93.1365 35.2429 93.1618 35.1389 93.1611Z" fill="black"/>
<path d="M37.3523 88.4953C37.2483 88.4946 37.1704 88.4681 37.0929 88.3896C34.2487 85.9014 32.215 86.7985 32.1366 86.85C31.954 86.9528 31.7207 86.8473 31.6178 86.6647C31.515 86.482 31.6205 86.2487 31.8031 86.1458C31.9075 86.0945 34.3587 84.9661 37.6166 87.8209C37.7717 87.9519 37.7961 88.2121 37.6391 88.3671C37.5866 88.4448 37.4563 88.4959 37.3523 88.4953Z" fill="black"/>
<path d="M30.6392 85.2027C30.5352 85.202 30.4055 85.1492 30.3278 85.0967C30.095 84.9132 30.071 84.601 30.2545 84.3682C30.333 84.2907 31.8792 82.3765 34.2726 82.1578C35.7814 82.0374 37.2859 82.593 38.7338 83.8762C38.9404 84.0856 38.9383 84.4236 38.7291 84.6042C38.546 84.7851 38.2598 84.8092 38.0528 84.6519C36.8376 83.5781 35.6186 83.1024 34.396 83.1986C32.4449 83.3681 31.1085 84.9977 31.0823 85.0235C30.9515 85.1527 30.7952 85.2037 30.6392 85.2027Z" fill="white"/>
<path d="M57.3164 125.829L86.2238 134.801L89.2452 146.209L179.749 146.785L166.562 188.328C165.634 191.26 162.801 195.09 159.733 195.175L104.718 194.746C101.494 194.83 98.6206 192.783 97.6522 189.709L81.5436 138.906L57.2801 131.523L57.3164 125.829Z" fill="#D9CFFF"/>
<path d="M159.73 195.565L104.716 195.136C101.335 195.219 98.3073 193.041 97.2877 189.837L81.2558 139.242L57.2 131.912C57.0443 131.859 56.9153 131.703 56.9163 131.547L56.9526 125.853C56.9539 125.645 57.1371 125.464 57.3451 125.465C57.3711 125.465 57.4231 125.466 57.4489 125.492L86.3563 134.464C86.4861 134.491 86.5895 134.596 86.6147 134.726L89.5598 145.847L179.778 146.422C179.986 146.423 180.167 146.606 180.166 146.814C180.165 146.866 180.165 146.892 180.139 146.918L166.926 188.435C166.024 191.263 163.137 195.483 159.73 195.565ZM104.721 194.356L159.735 194.785C162.726 194.7 165.351 190.817 166.2 188.196L179.253 147.146L89.2692 146.573C89.0872 146.572 88.932 146.441 88.907 146.285L85.9363 135.086L57.7296 126.326L57.6984 131.213L81.6764 138.516C81.8062 138.543 81.9096 138.648 81.9347 138.778L98.0433 189.582C98.9609 192.474 101.679 194.415 104.721 194.356Z" fill="black"/>
<path d="M111.192 194.84C111.063 194.839 110.933 194.76 110.856 194.656C100.278 177.688 99.2245 147.105 99.2005 146.793C99.2018 146.585 99.3589 146.404 99.5671 146.379C99.7753 146.354 99.9561 146.537 99.9808 146.745C99.9788 147.057 101.059 177.433 111.508 194.218C111.611 194.4 111.584 194.634 111.401 194.763C111.349 194.815 111.27 194.84 111.192 194.84Z" fill="black"/>
<path d="M151.154 194.99C150.946 194.989 150.765 194.806 150.766 194.598C150.767 194.52 150.793 194.442 150.82 194.39C162.689 176.058 163.289 147.201 163.291 146.915C163.292 146.707 163.475 146.526 163.683 146.527C163.891 146.529 164.072 146.712 164.071 146.92C164.069 147.206 163.467 176.297 151.467 194.81C151.388 194.914 151.284 194.991 151.154 194.99Z" fill="black"/>
<path d="M131.892 194.451C131.71 194.45 131.554 194.345 131.529 194.163C127.766 180.853 131.773 147.779 131.827 147.468C131.854 147.26 132.037 147.105 132.271 147.133C132.479 147.16 132.634 147.343 132.606 147.577C132.578 147.915 128.572 180.832 132.311 193.986C132.361 194.194 132.256 194.401 132.047 194.478C131.97 194.452 131.918 194.451 131.892 194.451Z" fill="black"/>
<path d="M109.506 218.724C113.498 218.749 116.754 215.534 116.78 211.542C116.805 207.55 113.59 204.293 109.598 204.268C105.606 204.243 102.349 207.458 102.324 211.45C102.299 215.442 105.514 218.698 109.506 218.724Z" fill="#D9CFFF"/>
<path d="M109.504 219.139C105.292 219.113 101.881 215.685 101.908 211.447C101.935 207.235 105.363 203.851 109.601 203.878C113.813 203.905 117.223 207.332 117.196 211.57C117.143 215.756 113.716 219.14 109.504 219.139ZM109.596 204.658C105.8 204.634 102.712 207.682 102.688 211.452C102.664 215.248 105.713 218.335 109.509 218.359C113.305 218.384 116.392 215.335 116.416 211.539C116.414 207.769 113.366 204.682 109.596 204.658Z" fill="black"/>
<path d="M154.484 219.01C158.476 219.036 161.733 215.82 161.758 211.829C161.784 207.837 158.568 204.58 154.576 204.555C150.585 204.529 147.328 207.745 147.303 211.736C147.277 215.728 150.493 218.985 154.484 219.01Z" fill="#D9CFFF"/>
<path d="M154.483 219.426C150.271 219.399 146.887 215.946 146.913 211.734C146.94 207.522 150.394 204.138 154.606 204.165C158.818 204.192 162.202 207.619 162.175 211.857C162.148 216.043 158.695 219.427 154.483 219.426ZM154.575 204.944C150.779 204.92 147.717 207.969 147.693 211.765C147.669 215.561 150.718 218.622 154.513 218.646C158.283 218.67 161.371 215.622 161.395 211.826C161.419 208.056 158.371 204.969 154.575 204.944Z" fill="black"/>
<path d="M102.488 198.06L162.365 198.442C162.988 198.446 163.505 198.969 163.501 199.593L163.494 200.711C163.49 201.335 162.967 201.852 162.343 201.848L102.466 201.466C101.842 201.462 101.325 200.939 101.329 200.315L101.336 199.197C101.34 198.573 101.864 198.056 102.488 198.06Z" fill="#D9CFFF"/>
<path d="M162.314 202.212L102.463 201.83C101.631 201.825 100.934 201.144 100.939 200.286L100.946 199.168C100.952 198.336 101.632 197.639 102.49 197.644L162.367 198.026C163.199 198.031 163.896 198.712 163.891 199.57L163.884 200.688C163.852 201.545 163.172 202.217 162.314 202.212ZM102.485 198.45C102.069 198.448 101.729 198.783 101.726 199.199L101.719 200.317C101.716 200.733 102.052 201.074 102.468 201.076L162.345 201.458C162.761 201.46 163.101 201.125 163.104 200.709L163.111 199.591C163.113 199.175 162.778 198.834 162.362 198.832L102.485 198.45Z" fill="black"/>
<path d="M118.163 198.55C117.955 198.549 117.774 198.366 117.775 198.158L117.796 194.856C117.798 194.648 117.981 194.467 118.189 194.468C118.397 194.469 118.578 194.653 118.576 194.861L118.555 198.162C118.554 198.37 118.371 198.551 118.163 198.55Z" fill="black"/>
<path d="M142.498 198.705C142.29 198.704 142.109 198.52 142.111 198.313L142.131 195.063C142.133 194.855 142.316 194.674 142.524 194.675C142.732 194.676 142.913 194.86 142.911 195.068L142.891 198.317C142.889 198.525 142.706 198.706 142.498 198.705Z" fill="black"/>
<path d="M154.414 213.861C155.563 213.868 156.5 212.943 156.507 211.794C156.514 210.646 155.589 209.709 154.44 209.701C153.292 209.694 152.354 210.619 152.347 211.768C152.34 212.917 153.265 213.854 154.414 213.861Z" fill="white"/>
<path d="M154.411 214.251C153.059 214.243 151.948 213.118 151.957 211.766C151.966 210.414 153.091 209.303 154.443 209.311C155.795 209.32 156.905 210.445 156.897 211.797C156.888 213.149 155.763 214.26 154.411 214.251ZM154.438 210.091C153.502 210.085 152.743 210.835 152.737 211.771C152.731 212.707 153.48 213.465 154.416 213.471C155.352 213.477 156.111 212.728 156.117 211.792C156.123 210.856 155.374 210.097 154.438 210.091Z" fill="black"/>
<path d="M109.434 213.575C110.583 213.582 111.52 212.657 111.528 211.508C111.535 210.359 110.61 209.422 109.461 209.415C108.312 209.407 107.375 210.333 107.368 211.481C107.36 212.63 108.286 213.567 109.434 213.575Z" fill="white"/>
<path d="M109.433 213.965C108.081 213.956 106.97 212.831 106.978 211.479C106.987 210.127 108.112 209.016 109.464 209.025C110.816 209.033 111.927 210.158 111.918 211.51C111.91 212.862 110.785 213.973 109.433 213.965ZM109.459 209.805C108.523 209.799 107.764 210.548 107.758 211.484C107.752 212.42 108.502 213.179 109.438 213.185C110.374 213.191 111.132 212.441 111.138 211.506C111.144 210.57 110.395 209.811 109.459 209.805Z" fill="black"/>
<path d="M107.753 191.854C107.623 191.853 107.494 191.774 107.417 191.669C97.6958 174.811 97.4814 151.331 97.4829 151.097C97.4842 150.889 97.6673 150.708 97.8753 150.71C98.0833 150.711 98.2642 150.894 98.2629 151.102C98.2614 151.336 98.4771 174.608 108.095 191.284C108.198 191.466 108.144 191.7 107.962 191.829C107.884 191.828 107.831 191.854 107.753 191.854Z" fill="white"/>
<path d="M154.552 192.152C154.344 192.151 154.163 191.968 154.164 191.76C154.165 191.682 154.191 191.604 154.244 191.552C165.846 174.258 165.099 152.802 165.1 152.594C165.101 152.386 165.259 152.205 165.467 152.181C165.675 152.156 165.856 152.339 165.88 152.547C165.879 152.755 166.651 174.471 154.891 191.972C154.812 192.076 154.682 192.153 154.552 192.152Z" fill="white"/>
<path d="M133.232 192.016C133.05 192.015 132.895 191.884 132.844 191.702C130.086 179.802 133.063 153.352 133.09 153.093C133.118 152.885 133.301 152.73 133.534 152.757C133.742 152.785 133.897 152.968 133.87 153.202C133.842 153.461 130.892 179.781 133.625 191.551C133.676 191.759 133.545 191.966 133.336 192.017C133.31 192.017 133.258 192.016 133.232 192.016Z" fill="white"/>
</svg>
