<svg width="271" height="271" viewBox="0 0 271 271" fill="none" xmlns="http://www.w3.org/2000/svg">
<path d="M244.761 232.291L43.8407 232.319C43.465 232.321 43.1411 232.001 43.1389 231.625C43.1367 231.25 43.4568 230.926 43.8325 230.923L244.753 230.895C245.128 230.893 245.452 231.213 245.454 231.589C245.457 231.965 245.136 232.289 244.761 232.291Z" fill="black"/>
<path d="M61.3415 193.882C62.871 215.109 66.95 230.646 66.9768 230.807L229.734 230.62C229.787 230.459 233.866 215.243 235.557 194.821C236.55 182.826 236.523 171.394 235.477 160.875C234.162 147.698 231.263 135.918 226.836 125.801C221.844 114.396 210.278 104.681 193.399 97.7845L97.7037 96.1205C84.4201 101.836 75.4303 110.075 71.0024 120.648C66.3598 131.704 63.2469 144.37 61.7709 158.298C60.5901 169.435 60.4291 181.403 61.3415 193.882Z" fill="#6E11B7"/>
<path d="M129.629 171.943C129.629 171.943 126.337 178.081 122.427 174.777C118.516 171.472 110.208 164.275 104.632 169.809C99.0559 175.344 99.1728 176.98 94.1677 174.648C89.1625 172.316 73.5063 184.162 85.1862 194.344C104.338 211.031 139.062 183.427 139.062 183.427L136.589 178.155L129.629 171.943Z" fill="#7800FF"/>
<path d="M100.596 200.104C94.3973 200.141 89.1268 198.32 84.9187 194.641C80.1713 190.51 79.2553 185.336 82.3935 180.514C85.319 176.015 91.3386 172.866 94.3256 174.271C98.1201 176.074 98.6001 175.561 101.72 172.215C102.467 171.432 103.294 170.542 104.334 169.516C110.097 163.793 118.485 170.909 122.531 174.347L122.692 174.48C123.555 175.2 124.443 175.489 125.327 175.323C127.579 174.881 129.251 171.812 129.278 171.758L129.517 171.3L136.936 177.912L139.572 183.532L139.331 183.721C139.251 183.802 130.49 190.724 119.488 195.485C113.01 198.287 107.035 199.852 101.723 200.044C101.321 200.1 100.945 200.102 100.596 200.104ZM92.6109 174.737C89.8737 174.754 85.5137 177.168 83.0669 180.939C81.3648 183.552 79.3827 188.743 85.425 194.021C95.1626 202.498 109.097 199.115 119.108 194.762C128.985 190.464 137.028 184.432 138.551 183.296L136.241 178.399L129.712 172.56C129.127 173.503 127.557 175.686 125.466 176.074C124.313 176.295 123.211 175.953 122.159 175.074L121.997 174.94C118.141 171.662 110.13 164.866 104.901 170.076C103.861 171.102 103.034 171.993 102.314 172.748C99.167 176.121 98.3135 177.012 93.9809 174.971C93.5506 174.812 93.0939 174.735 92.6109 174.737Z" fill="black"/>
<path d="M98.5812 231.621C98.5812 231.621 92.7489 179.916 144.39 181.41C212.699 183.397 190.41 231.081 190.41 231.081L98.5812 231.621Z" fill="#FFAD00"/>
<path d="M190.735 231.616L98.1013 232.161L98.0447 231.678C97.6694 227.172 97.8037 222.636 98.4482 218.15C99.4266 211.114 102.078 201.088 109.251 193.317C117.251 184.629 129.061 180.454 144.414 180.9C167.845 181.567 183.285 187.676 190.275 199.04C194.908 206.527 194.824 214.927 193.945 220.648C193.403 224.328 192.378 227.93 190.895 231.347L190.735 231.616ZM99.061 231.082L190.031 230.547C191.037 228.152 197.251 212.39 189.339 199.555C182.539 188.539 167.395 182.59 144.366 181.947C129.362 181.499 117.82 185.565 110.033 194.01C97.7674 207.34 98.7996 227.702 99.061 231.082Z" fill="#1D1D1B"/>
<path d="M176.47 187.877C176.47 187.877 198.228 196.014 201.818 217.73C207.105 249.795 178.756 248.056 171.93 241.79C165.104 235.524 152.135 225.241 150.968 218.485C149.802 211.73 154.244 209.664 154.244 209.664L152.337 204.818L167.44 194.746L169.416 197.66C169.416 197.66 176.331 196.089 179.235 201.761C182.14 207.433 185.351 214.902 187.329 218.084" fill="#FFAD00"/>
<path d="M184.057 245.851C178.824 245.882 173.957 244.22 171.637 242.087C170.504 241.047 169.182 239.874 167.779 238.647C160.55 232.249 151.54 224.305 150.54 218.541C149.512 212.67 152.664 210.156 153.733 209.479L151.963 204.954C151.881 204.767 151.96 204.578 152.121 204.47L167.224 194.398C167.411 194.263 167.653 194.315 167.788 194.502L169.602 197.202C170.942 196.98 176.923 196.354 179.584 201.571C180.778 203.899 182.028 206.522 183.224 209.064C184.909 212.65 186.512 216.022 187.65 217.894C187.758 218.081 187.679 218.323 187.492 218.431C187.305 218.54 187.09 218.487 186.955 218.3C185.789 216.402 184.186 213.003 182.474 209.417C181.279 206.902 180.056 204.279 178.861 201.951C176.146 196.627 169.553 198.034 169.499 198.061C169.339 198.089 169.177 198.036 169.069 197.903L167.336 195.31L152.848 204.976L154.619 209.527C154.701 209.715 154.595 209.957 154.408 210.039C154.247 210.12 150.233 212.049 151.344 218.402C152.315 223.898 161.568 232.082 168.312 238.054C169.715 239.28 171.037 240.453 172.17 241.493C175.732 244.773 185.727 246.915 193.244 242.845C198.381 240.078 203.95 233.47 201.389 217.813C199.58 206.74 192.854 199.293 187.542 195.03C181.772 190.368 176.366 188.306 176.312 188.307C176.097 188.228 176.015 187.986 176.094 187.771C176.174 187.583 176.388 187.474 176.603 187.554C176.657 187.58 182.17 189.668 188.048 194.41C193.468 198.779 200.329 206.387 202.194 217.728C204.838 233.84 199.001 240.691 193.651 243.594C190.655 245.141 187.277 245.832 184.057 245.851Z" fill="#1D1D1B"/>
<path d="M154.701 209.795C154.701 209.795 166.178 208.413 169.203 197.956L167.361 195.015L152.874 204.895L154.701 209.795Z" fill="#E89D00"/>
<path d="M121.628 185.113C121.628 185.113 98.5838 195.581 96.6433 216.98C93.6939 249.335 121.302 248.394 128.081 242.048C134.86 235.701 147.653 225.268 148.767 218.498C149.882 211.729 145.388 209.716 145.388 209.716L147.238 204.848L131.991 194.955L130.049 197.891C130.049 197.891 123.117 196.402 120.279 202.108C117.441 207.814 114.318 215.32 112.378 218.525" fill="#FFAD00"/>
<path d="M117.021 245.95C113.694 245.997 110.416 245.291 107.401 243.86C103.526 241.977 100.583 238.962 98.6539 234.895C96.3987 230.158 95.585 224.125 96.2404 216.929C97.2481 205.759 104.07 197.588 109.596 192.698C113.174 189.537 117.156 186.83 121.464 184.712C121.652 184.603 121.894 184.682 122.002 184.869C122.11 185.057 122.031 185.299 121.844 185.407C121.817 185.407 121.818 185.434 121.791 185.434C117.563 187.525 113.634 190.178 110.11 193.285C104.69 198.067 98.028 206.05 97.0456 216.951C95.5329 233.518 102.04 240.296 107.746 243.08C115.604 246.925 124.581 244.698 127.784 241.674C128.905 240.621 130.213 239.432 131.601 238.19C138.301 232.139 147.457 223.873 148.364 218.34C149.4 211.947 145.256 210.012 145.202 210.012C145.014 209.933 144.905 209.692 144.984 209.504L146.702 204.932L132.101 195.518L130.399 198.104C130.319 198.238 130.132 198.32 129.971 198.267C129.702 198.215 123.307 196.911 120.655 202.267C119.488 204.609 118.296 207.219 117.13 209.775C115.461 213.408 113.898 216.825 112.755 218.71C112.649 218.899 112.408 218.981 112.219 218.874C112.031 218.768 111.949 218.527 112.055 218.339C112.055 218.339 112.055 218.312 112.082 218.312C113.198 216.453 114.761 213.063 116.431 209.457C117.596 206.901 118.815 204.264 119.982 201.922C122.608 196.674 128.569 197.229 129.912 197.436L131.694 194.715C131.827 194.526 132.068 194.471 132.257 194.604L147.477 204.498C147.639 204.604 147.694 204.792 147.641 204.98L145.924 209.525C147.001 210.19 150.182 212.64 149.224 218.549C148.292 224.325 139.376 232.374 132.222 238.857C130.834 240.099 129.553 241.288 128.405 242.341C126.029 244.502 121.717 245.923 117.021 245.95Z" fill="#1D1D1B"/>
<path d="M144.906 209.853C144.906 209.853 133.413 208.606 130.265 198.185L132.1 195.222L146.702 204.931L144.906 209.853Z" fill="#E89D00"/>
<path d="M137.139 148.552C136.897 148.553 136.682 148.394 136.627 148.152C134.787 141.132 141.745 137.817 141.825 137.79C142.093 137.654 142.416 137.787 142.552 138.054C142.687 138.322 142.555 138.644 142.287 138.753C142.02 138.862 136.079 141.715 137.671 147.851C137.754 148.146 137.568 148.442 137.3 148.497C137.246 148.524 137.193 148.552 137.139 148.552Z" fill="#1D1D1B"/>
<path d="M149.935 161.465C155.804 161.431 160.534 156.645 160.499 150.776C160.465 144.907 155.679 140.177 149.81 140.212C143.941 140.246 139.212 145.032 139.246 150.901C139.281 156.77 144.066 161.5 149.935 161.465Z" fill="#7800FF"/>
<path d="M149.938 161.868L149.777 161.869C143.685 161.851 138.772 156.915 138.763 150.85C138.781 144.759 143.716 139.845 149.808 139.836L149.969 139.835C156.061 139.853 160.974 144.789 160.983 150.881C160.965 156.946 156.029 161.886 149.938 161.868ZM149.813 140.641C144.177 140.621 139.588 145.21 139.595 150.845C139.574 156.481 144.163 161.07 149.799 161.064L149.96 161.063C155.541 161.003 160.05 156.522 160.098 150.94C160.145 145.304 155.61 140.688 149.974 140.64L149.813 140.641Z" fill="#1D1E1B"/>
<path d="M160.446 155.285C156.16 147.528 144.2 149.074 141.161 152.446C133.616 160.837 126.265 156.774 124.87 165.826C124.172 170.365 128.181 172.14 126.297 180.443C125.303 184.743 132.534 191.355 139.109 191.424C145.684 191.493 168.068 191.925 169.918 187.11C171.768 182.296 179.101 174.282 173.143 165.059C167.13 155.729 162.317 158.655 160.446 155.285Z" fill="#7800FF"/>
<path d="M145.632 191.842C143.754 191.853 141.875 191.837 140.024 191.821L139.138 191.799C134.522 191.746 130.022 188.686 127.778 185.828C126.237 183.878 125.608 181.923 125.975 180.337C127.073 175.527 126.173 173.01 125.355 170.761C124.782 169.208 124.263 167.708 124.547 165.747C125.348 160.509 128.106 159.447 131.614 158.111C134.425 157.048 137.638 155.821 140.917 152.152C142.811 150.075 147.419 148.867 151.635 149.352C155.825 149.837 159.084 151.858 160.847 155.041C161.471 156.191 162.492 156.507 163.917 156.982C166.364 157.772 169.725 158.88 173.544 164.788C178.364 172.274 174.7 178.924 172.045 183.797C171.408 184.901 170.851 186.031 170.348 187.188C168.867 190.954 157.252 191.773 145.632 191.842ZM149.573 150.089C145.951 150.11 142.737 151.337 141.484 152.739C138.045 156.544 134.618 157.852 131.86 158.915C128.486 160.196 126.023 161.15 125.299 165.904C125.041 167.65 125.505 168.989 126.051 170.515C126.897 172.872 127.852 175.523 126.7 180.548C126.386 181.892 126.987 183.605 128.366 185.369C130.502 188.066 134.759 190.993 139.107 191.021L139.992 191.043C146.889 191.11 167.85 191.335 169.515 186.978C170.017 185.768 170.601 184.61 171.265 183.479C173.841 178.795 177.372 172.36 172.795 165.302C169.139 159.635 165.939 158.58 163.6 157.842C162.122 157.368 160.858 156.946 160.071 155.528C158.444 152.586 155.4 150.699 151.479 150.239C150.862 150.108 150.217 150.085 149.573 150.089Z" fill="#1D1E1B"/>
<path d="M153.546 172.983C148.13 173.847 141.029 171.152 139.672 172.984C138.314 174.817 139.161 177.442 142.01 178.23C144.86 179.019 147.758 179.082 153.688 178.886C159.617 178.69 165.411 178.12 164.882 174.929C164.353 171.739 161.508 171.702 153.546 172.983Z" fill="#FFB49F"/>
<path d="M150.528 157.356C148.35 165.742 139.865 169.522 135.225 169.898C134.193 172.453 134.67 175.912 134.661 178.918C134.565 189.975 140.516 198.018 151.139 197.391C161.521 196.767 167.015 190.884 166.997 178.701C166.98 175.83 167.124 172.984 166.224 170.494C157.421 170.411 150.528 157.356 150.528 157.356Z" fill="#FFCDB2"/>
<path d="M150.122 197.853C145.962 197.878 142.359 196.531 139.66 193.943C136.124 190.583 134.215 185.254 134.258 178.92C134.253 178.169 134.249 177.391 134.217 176.613C134.15 174.225 134.055 171.729 134.875 169.739L134.981 169.523L135.222 169.495C140.211 169.09 148.158 165.018 150.178 157.25L150.441 156.256L150.929 157.166C151.01 157.299 157.821 170.006 166.275 170.118L166.543 170.116L166.625 170.384C167.444 172.633 167.432 175.21 167.42 177.705C167.422 178.054 167.424 178.376 167.426 178.725C167.435 184.817 166.04 189.521 163.295 192.677C160.603 195.779 156.534 197.494 151.168 197.821C150.82 197.849 150.471 197.851 150.122 197.853ZM135.522 170.298C134.862 172.1 134.956 174.381 135.022 176.608C135.054 177.386 135.085 178.191 135.063 178.942C135.019 185.061 136.847 190.176 140.193 193.377C142.973 196.017 146.737 197.283 151.11 197.016C161.519 196.391 166.582 190.404 166.567 178.73C166.565 178.381 166.563 178.032 166.561 177.71C166.574 175.268 166.587 172.987 165.904 170.925C158.334 170.594 152.322 161.29 150.614 158.402C148.111 166.199 140.242 169.788 135.522 170.298Z" fill="#1D1D1B"/>
<path d="M152.449 173.634C145.988 174.745 137.489 171.575 135.919 173.812C134.349 176.048 135.333 179.155 138.773 180.048C142.214 180.94 145.649 180.973 152.705 180.717C159.761 180.461 166.653 179.642 166.014 175.862C165.375 172.082 161.912 171.995 152.449 173.634Z" fill="#FFB49F"/>
<path d="M150.44 183.468C150.225 183.469 150.036 183.282 150.035 183.068L150.118 174.372C150.117 174.158 150.303 173.969 150.518 173.967C150.733 173.966 150.922 174.153 150.923 174.367L150.84 183.063C150.841 183.277 150.681 183.466 150.44 183.468Z" fill="black"/>
<path d="M142.583 147.956C142.502 147.957 142.395 147.931 142.314 147.904C141.991 147.745 141.828 147.344 141.987 147.021C142.066 146.832 144.266 142.177 150.276 141.846C150.651 141.817 150.975 142.11 150.977 142.486C150.979 142.862 150.713 143.185 150.337 143.188C145.16 143.486 143.277 147.416 143.198 147.604C143.092 147.819 142.851 147.982 142.583 147.956Z" fill="white"/>
<path d="M149.099 188.172C148.724 188.174 148.348 188.122 147.998 188.044C145.821 187.466 144.601 185.3 144.547 185.193C144.438 185.006 144.49 184.764 144.677 184.629C144.865 184.52 145.107 184.572 145.242 184.759L145.242 184.786C145.269 184.813 146.354 186.739 148.208 187.238C149.203 187.5 150.221 187.306 151.291 186.656C151.478 186.548 151.72 186.6 151.855 186.787C151.991 186.974 151.912 187.216 151.725 187.351C150.922 187.866 150.038 188.139 149.099 188.172Z" fill="black"/>
<path d="M146.91 176.323C146.803 176.324 146.722 176.298 146.641 176.218C142.783 172.805 138.534 175.863 138.481 175.89C138.294 175.998 138.052 175.946 137.917 175.759C137.808 175.599 137.834 175.357 137.994 175.249C138.048 175.222 142.804 171.785 147.147 175.624C147.309 175.757 147.338 176.026 147.177 176.188C147.124 176.268 147.017 176.323 146.91 176.323Z" fill="black"/>
<path d="M153.508 175.882C153.294 175.883 153.105 175.696 153.104 175.482C153.103 175.348 153.183 175.213 153.316 175.132C153.557 174.996 159.334 171.715 163.618 174.668C163.807 174.775 163.862 175.043 163.756 175.231C163.65 175.42 163.382 175.475 163.193 175.369C163.166 175.369 163.166 175.342 163.139 175.342C159.259 172.655 153.75 175.8 153.696 175.827C153.643 175.854 153.562 175.882 153.508 175.882Z" fill="black"/>
<path d="M139.023 167.728C138.916 167.729 138.835 167.703 138.754 167.649C138.592 167.516 138.564 167.248 138.697 167.086C138.857 166.897 142.402 162.717 146.622 164.007C146.837 164.06 146.973 164.273 146.894 164.489C146.814 164.704 146.627 164.839 146.412 164.76L146.385 164.76C142.675 163.628 139.344 167.539 139.317 167.592C139.264 167.673 139.157 167.728 139.023 167.728Z" fill="black"/>
<path d="M160.434 167.2C160.354 167.201 160.246 167.174 160.192 167.121C156.742 164.458 153.667 166.354 153.64 166.355C153.453 166.49 153.211 166.438 153.076 166.25C152.94 166.063 152.993 165.822 153.18 165.686L153.206 165.659C153.233 165.632 156.763 163.465 160.672 166.474C160.86 166.607 160.889 166.875 160.755 167.037C160.675 167.118 160.568 167.199 160.434 167.2Z" fill="black"/>
<path d="M149.255 200.864C149.255 200.864 146.199 206.008 140.228 203.816C134.258 201.623 129.459 197.76 128.839 192.88C128.22 187.999 130.591 185.007 133.134 183.945C135.677 182.884 138.021 184.346 138.739 187.803C138.739 187.803 143.456 186.81 144.351 192.95C144.351 192.95 151.953 194.193 147.313 199.292L149.255 200.864Z" fill="#FFCDB2"/>
<path d="M134.715 183.587C136.593 183.576 138.159 185.069 138.738 187.803C138.979 187.748 139.194 187.747 139.436 187.745C140.777 187.738 143.679 188.284 144.377 192.949C144.377 192.949 151.979 194.193 147.34 199.292L149.281 200.837C149.281 200.837 147.208 204.311 143.156 204.335C142.163 204.341 141.169 204.159 140.255 203.789C134.311 201.596 129.485 197.733 128.865 192.853C128.246 187.972 130.617 184.98 133.16 183.918C133.642 183.701 134.178 183.59 134.715 183.587ZM134.71 182.782C134.066 182.786 133.423 182.924 132.807 183.196C130.157 184.311 127.331 187.548 128.034 192.992C128.344 195.513 129.673 197.84 131.993 199.946C134.017 201.813 136.79 203.406 139.964 204.568C140.986 204.965 142.06 205.147 143.161 205.167C147.615 205.141 149.875 201.424 149.954 201.289L150.3 200.697L149.76 200.244L148.466 199.205C149.531 197.803 149.873 196.513 149.463 195.335C148.781 193.38 146.253 192.563 145.071 192.274C144.13 187.45 140.853 186.932 139.431 186.94L139.35 186.941C138.61 184.342 136.857 182.769 134.71 182.782Z" fill="#1D1D1B"/>
<path d="M134.118 196.096C133.903 196.097 133.741 195.937 133.713 195.723C133.665 192.073 135.738 188.707 139.03 187.104C139.217 186.995 139.459 187.075 139.567 187.289C139.676 187.503 139.597 187.718 139.383 187.826C134.192 190.487 134.518 195.611 134.518 195.664C134.546 195.879 134.359 196.068 134.145 196.096L134.118 196.096Z" fill="#1D1D1B"/>
<path d="M139.315 199.017C139.261 199.018 139.207 198.991 139.153 198.991C138.965 198.912 138.856 198.671 138.962 198.456C139.042 198.268 141.215 193.612 144.427 192.171C144.614 192.062 144.856 192.168 144.965 192.356C145.073 192.543 144.967 192.785 144.78 192.893C144.78 192.893 144.78 192.893 144.753 192.894C141.809 194.226 139.716 198.747 139.689 198.8C139.609 198.935 139.449 199.017 139.315 199.017Z" fill="#1D1D1B"/>
<path d="M144.542 202.771C144.327 202.772 144.138 202.585 144.137 202.37C144.136 202.183 144.242 202.021 144.43 201.993C146.225 201.446 147.471 198.889 147.498 198.862C147.604 198.673 147.845 198.565 148.033 198.671C148.222 198.75 148.33 198.991 148.224 199.207C148.171 199.341 146.819 202.14 144.676 202.77C144.596 202.77 144.569 202.77 144.542 202.771Z" fill="#1D1D1B"/>
<path d="M130.788 195.659C130.627 195.66 130.492 195.581 130.438 195.447C130.356 195.313 128.809 192.343 129.783 189.144C130.389 187.155 131.855 185.509 134.129 184.315C134.316 184.207 134.558 184.286 134.667 184.473C134.775 184.66 134.696 184.902 134.509 185.011C132.422 186.096 131.089 187.58 130.536 189.355C129.641 192.231 131.106 195.014 131.133 195.04C131.241 195.227 131.162 195.469 130.975 195.578C130.922 195.632 130.868 195.659 130.788 195.659Z" fill="white"/>
<path d="M150.166 200.859C150.166 200.859 153.309 205.966 159.227 203.704C165.144 201.442 169.925 197.522 170.487 192.635C171.048 187.747 168.642 184.783 166.087 183.751C163.531 182.72 161.205 184.209 160.528 187.675C160.528 187.675 155.799 186.737 154.95 192.887C154.95 192.887 147.363 194.22 152.062 199.264L150.166 200.859Z" fill="#FFCDB2"/>
<path d="M164.502 183.412C165.039 183.409 165.576 183.513 166.088 183.751C168.643 184.81 171.049 187.774 170.487 192.635C169.925 197.495 165.145 201.442 159.228 203.704C158.317 204.058 157.325 204.252 156.333 204.284C152.281 204.308 150.167 200.859 150.167 200.859L152.09 199.291C147.391 194.247 154.978 192.914 154.978 192.914C155.621 188.241 158.489 187.66 159.858 187.652C160.099 187.651 160.314 187.676 160.556 187.702C161.049 184.962 162.624 183.423 164.502 183.412ZM164.497 182.607C162.351 182.619 160.616 184.213 159.906 186.82L159.826 186.821C158.404 186.829 155.133 187.385 154.249 192.221C153.07 192.523 150.552 193.369 149.893 195.332C149.497 196.515 149.854 197.801 150.936 199.191L149.654 200.245L149.12 200.704L149.472 201.292C149.553 201.453 151.883 205.116 156.311 205.09C157.411 205.083 158.483 204.862 159.5 204.454C162.66 203.254 165.388 201.628 167.416 199.738C169.684 197.604 171.012 195.262 171.293 192.737C171.905 187.286 169.041 184.083 166.378 182.998C165.786 182.76 165.141 182.603 164.497 182.607Z" fill="#1D1D1B"/>
<path d="M165.246 195.913C165.004 195.887 164.815 195.701 164.841 195.486C164.84 195.271 165.079 190.305 159.857 187.679C159.669 187.573 159.587 187.332 159.666 187.144C159.772 186.955 160.013 186.873 160.202 186.953C163.512 188.516 165.625 191.858 165.619 195.508C165.621 195.75 165.461 195.912 165.246 195.913Z" fill="#1D1D1B"/>
<path d="M160.084 198.895C159.923 198.896 159.789 198.816 159.707 198.656C159.68 198.602 157.534 194.106 154.574 192.809C154.359 192.73 154.277 192.489 154.356 192.273C154.436 192.058 154.677 191.976 154.892 192.056C158.12 193.486 160.321 198.089 160.43 198.276C160.538 198.463 160.432 198.705 160.245 198.814C160.192 198.894 160.138 198.895 160.084 198.895Z" fill="#1D1D1B"/>
<path d="M154.9 202.71C154.874 202.71 154.82 202.71 154.793 202.684C152.643 202.079 151.257 199.269 151.203 199.162C151.121 198.948 151.227 198.733 151.415 198.651C151.602 198.57 151.817 198.649 151.926 198.836C151.926 198.863 153.202 201.432 155.03 201.931C155.245 201.983 155.381 202.224 155.301 202.439C155.249 202.6 155.088 202.709 154.9 202.71Z" fill="#1D1D1B"/>
<path d="M168.571 195.437C168.517 195.437 168.437 195.411 168.383 195.384C168.194 195.278 168.112 195.037 168.219 194.849C168.218 194.822 169.651 192.022 168.749 189.156C168.175 187.389 166.824 185.947 164.725 184.859C164.536 184.753 164.454 184.512 164.587 184.297C164.694 184.108 164.908 184.053 165.096 184.133C167.384 185.3 168.87 186.901 169.499 188.91C170.51 192.098 168.998 195.086 168.918 195.22C168.839 195.355 168.705 195.436 168.571 195.437Z" fill="white"/>
<path d="M121.638 191.473C122.483 191.468 123.164 190.779 123.159 189.935C123.154 189.09 122.465 188.409 121.62 188.414C120.776 188.419 120.095 189.108 120.1 189.953C120.105 190.797 120.794 191.478 121.638 191.473Z" fill="#FFC140"/>
<path d="M107.935 206.743C108.78 206.738 109.461 206.049 109.456 205.204C109.451 204.359 108.762 203.679 107.917 203.684C107.073 203.689 106.392 204.377 106.397 205.222C106.402 206.067 107.091 206.748 107.935 206.743Z" fill="#FFC140"/>
<path d="M112.566 232.21C113.411 232.205 114.092 231.516 114.087 230.671C114.082 229.826 113.393 229.145 112.548 229.15C111.703 229.155 111.023 229.844 111.028 230.689C111.033 231.534 111.721 232.215 112.566 232.21Z" fill="#FFC140"/>
<path d="M128.442 234.881C129.287 234.876 129.968 234.187 129.963 233.342C129.958 232.497 129.269 231.816 128.424 231.821C127.579 231.826 126.899 232.515 126.904 233.36C126.908 234.205 127.597 234.885 128.442 234.881Z" fill="#FFC140"/>
<path d="M125.551 213.187C126.395 213.182 127.076 212.494 127.071 211.649C127.066 210.804 126.377 210.123 125.533 210.128C124.688 210.133 124.007 210.822 124.012 211.667C124.017 212.512 124.706 213.192 125.551 213.187Z" fill="#FFC140"/>
<path d="M158.366 221.609C159.211 221.604 159.891 220.915 159.887 220.07C159.882 219.225 159.193 218.544 158.348 218.549C157.503 218.554 156.822 219.243 156.827 220.088C156.832 220.933 157.521 221.614 158.366 221.609Z" fill="#FFC140"/>
<path d="M175.235 219.792C176.08 219.787 176.761 219.098 176.756 218.253C176.751 217.408 176.062 216.727 175.217 216.732C174.372 216.737 173.692 217.426 173.696 218.271C173.701 219.116 174.39 219.797 175.235 219.792Z" fill="#FFC140"/>
<path d="M188.779 236.592C189.624 236.587 190.305 235.898 190.3 235.053C190.295 234.209 189.606 233.528 188.761 233.533C187.916 233.538 187.235 234.227 187.24 235.071C187.245 235.916 187.934 236.597 188.779 236.592Z" fill="#FFC140"/>
<path d="M188.264 208.337C189.109 208.332 189.79 207.643 189.785 206.798C189.78 205.953 189.091 205.272 188.246 205.277C187.402 205.282 186.721 205.971 186.726 206.816C186.731 207.661 187.42 208.342 188.264 208.337Z" fill="#FFC140"/>
<path d="M111.633 242.359C111.553 242.36 111.472 242.333 111.391 242.307C104.076 239.586 99.8015 233.734 99.0547 225.393C98.7363 221.45 99.0885 217.449 100.139 213.632C100.245 213.283 100.646 213.092 100.996 213.198C101.345 213.303 101.535 213.678 101.43 214C100.458 217.682 100.105 221.495 100.396 225.304C101.113 233.19 104.982 238.48 111.867 241.043C112.217 241.175 112.38 241.55 112.248 241.9C112.142 242.195 111.902 242.358 111.633 242.359Z" fill="white"/>
<path d="M185.25 243.483C184.875 243.512 184.551 243.245 184.522 242.87C184.493 242.494 184.76 242.17 185.135 242.141C190.121 241.2 193.757 238.924 195.964 235.369C200.323 228.312 197.609 218.506 197.582 218.426C197.499 218.077 197.711 217.7 198.087 217.618C198.435 217.535 198.785 217.721 198.894 218.069C199.004 218.498 201.801 228.545 197.149 236.086C194.756 239.965 190.799 242.457 185.438 243.455C185.331 243.482 185.304 243.482 185.25 243.483Z" fill="white"/>
<path d="M67.374 232.18C67.3462 232.02 63.1759 216.506 61.5214 195.289C60.5356 182.816 60.6262 170.847 61.7415 159.703C63.1355 145.767 66.1738 133.083 70.7512 121.999C75.1168 111.4 84.058 103.109 97.3077 97.3151C109.165 92.1197 123.908 89.2689 140.009 89.0668L141.002 89.061C159.303 88.9533 177.732 92.2799 193.011 98.416C209.931 105.213 221.554 114.859 226.612 126.235C231.099 136.326 234.067 148.089 235.459 161.257C236.568 171.771 236.662 183.202 235.739 195.203C234.169 215.635 230.18 230.874 230.127 231.035L229.347 230.825C229.4 230.664 233.39 215.478 234.934 195.127C236.353 176.361 235.952 149.232 225.89 126.588C220.913 115.4 209.452 105.914 192.72 99.1959C177.253 92.9805 158.529 89.6556 140.014 89.8987C124.021 90.1001 109.358 92.9237 97.6341 98.0646C84.5718 103.777 75.7908 111.933 71.4777 122.317C61.1582 147.228 60.789 175.703 62.3262 195.23C63.9803 216.394 68.1233 231.827 68.1779 231.988L67.374 232.18Z" fill="black"/>
<path d="M225.723 98.1969C221.862 89.6053 184.794 83.8121 139.851 85.0426C104.997 85.999 75.1307 90.9246 61.8569 97.175C60.7827 97.0471 59.709 96.9998 58.6357 97.0329C46.4006 97.3732 36.7162 107.064 37.053 118.709C37.3899 130.354 47.5608 139.499 59.796 139.158C68.4894 138.919 75.8938 133.965 79.3143 126.941C83.1383 133.761 90.7864 138.305 99.4798 138.066C109.112 137.795 117.127 131.736 119.977 123.508C123.272 131.566 131.597 137.18 141.23 136.908C150.084 136.668 157.595 131.498 160.96 124.287C163.989 132.803 172.585 138.844 182.567 138.544C191.421 138.304 198.931 133.134 202.297 125.922C205.326 134.438 213.922 140.452 223.903 140.179C236.139 139.839 245.796 130.148 245.486 118.503C245.182 107.877 236.598 99.2868 225.723 98.1969Z" fill="#FFAD00"/>
<path d="M223.369 140.611C218.7 140.666 214.13 139.297 210.25 136.69C206.667 134.296 203.883 130.904 202.223 126.942C198.534 134.048 190.914 138.736 182.569 138.973C177.74 139.135 172.955 137.768 168.94 135.054C165.357 132.66 162.573 129.268 160.939 125.306C157.251 132.413 149.63 137.1 141.286 137.337C132.136 137.606 123.707 132.503 120.037 124.608C116.784 132.704 108.685 138.227 99.5092 138.495C91.1646 138.732 83.4924 134.645 79.3462 127.799C75.577 134.852 68.1699 139.351 59.7985 139.588L59.3155 139.591C47.1056 139.662 36.9877 130.41 36.6775 118.738C36.3664 106.905 46.2106 96.9985 58.6604 96.6569C59.7068 96.6239 60.7537 96.6715 61.8009 96.7726C75.5566 90.3316 106.148 85.5627 139.822 84.6401C184.631 83.4104 221.483 89.0707 225.989 97.8195C237.053 99.0425 245.585 107.902 245.889 118.527C246.03 124.296 243.808 129.837 239.7 133.887C235.511 138.071 229.863 140.466 223.933 140.608L223.369 140.611ZM202.345 124.875L202.672 125.812C205.729 134.462 214.269 140.074 223.874 139.803C229.59 139.689 235.051 137.376 239.106 133.327C243.108 129.305 245.224 124.059 245.057 118.559C244.782 108.255 236.439 99.6902 225.672 98.5996L225.43 98.5742L225.348 98.36C221.541 89.9022 183.991 84.2461 139.853 85.445C106.207 86.3675 75.6685 91.1092 62.047 97.5494L61.9399 97.6037L61.8326 97.6044C60.7854 97.5032 59.7385 97.4557 58.6653 97.4888C46.6716 97.8277 37.1473 107.357 37.4826 118.733C37.7901 129.949 47.5302 138.855 59.3108 138.785L59.8206 138.782C68.1384 138.546 75.4913 133.967 78.9914 126.781L79.3361 126.082L79.7157 126.75C83.621 133.705 91.2134 137.9 99.5043 137.663C108.681 137.422 116.778 131.685 119.628 123.376L119.971 122.354L120.379 123.344C123.674 131.456 132.078 136.747 141.254 136.505C149.652 136.268 157.245 131.42 160.61 124.101L161.034 123.213L161.362 124.15C164.419 132.8 172.959 138.412 182.564 138.141C190.936 137.904 198.555 133.055 201.92 125.736L202.345 124.875Z" fill="#1D1D1B"/>
<path d="M65.3959 60.04C65.3959 60.04 153.763 50.396 220.368 59.1284L220.453 73.6998L240.687 105.489C240.687 105.489 140.746 86.4863 40.1225 106.668L67.0663 74.8436L65.3959 60.04Z" fill="#FFAD00"/>
<path d="M39.0787 107.292L66.6353 74.7119L64.9367 59.667L65.339 59.6378C65.5536 59.6097 87.7863 57.1979 117.862 55.8939C145.63 54.6839 185.961 54.2051 220.391 58.7257L220.741 58.7773L220.828 73.5902L241.521 106.074L240.608 105.892C240.366 105.839 215.22 101.103 178.093 98.9063C143.865 96.8803 92.1243 96.6479 40.2045 107.07L39.0787 107.292ZM136.862 97.002C150.44 96.9221 164.263 97.297 178.169 98.1276C211.376 100.106 235.016 104.1 239.851 104.957L220.051 73.8363L219.967 59.4796C185.671 55.0119 145.554 55.5163 117.92 56.6986C90.0716 57.909 68.9643 60.0459 65.8265 60.3864L67.4955 74.9484L67.3889 75.0832L41.1914 106.045C63.8413 101.564 88.2989 98.71 113.894 97.5665C121.459 97.2268 129.106 97.0476 136.862 97.002Z" fill="#1D1D1B"/>
<path d="M88.5943 71.2549L78.9455 100.697C93.6688 99.0538 108.074 98.1103 121.865 97.6803L119.896 68.575L119.153 56.2617C107.509 56.7596 97.0467 57.4115 88.5165 58.0252L88.5943 71.2549Z" fill="white"/>
<path d="M78.3843 101.157L88.2178 71.1768L88.1382 57.652L88.5137 57.623C98.7069 56.8653 109.008 56.268 119.15 55.8594L119.552 55.8302L120.298 68.5461L122.296 98.0538L121.867 98.0563C107.217 98.5182 92.7856 99.5155 79.0011 101.073L78.3843 101.157ZM88.9208 58.3988L88.9968 71.3064L88.9703 71.3603L79.5059 100.211C92.9955 98.7092 107.105 97.7406 121.406 97.2808L119.466 68.6046L118.752 56.6669C108.879 57.1006 98.8458 57.6695 88.9208 58.3988Z" fill="#1D1E1B"/>
<path d="M200.335 70.5978L200.282 57.0728C188.952 56.2002 177.329 55.7319 165.869 55.5578L164.481 97.8593C181.016 98.4866 195.675 99.6884 207.625 100.96L200.335 70.5978Z" fill="white"/>
<path d="M208.164 101.413L207.6 101.363C193.422 99.8627 178.924 98.8209 164.483 98.2618L164.081 98.2373L165.491 55.1306L165.893 55.1282C178.105 55.2979 189.701 55.8201 200.333 56.6431L200.709 56.6678L200.763 70.5147L208.164 101.413ZM164.935 97.454C179.081 98.0149 193.256 99.0318 207.139 100.48L199.959 70.6268L199.959 70.5731L199.908 57.4239C189.518 56.6262 178.217 56.1292 166.301 55.9577L164.935 97.454Z" fill="#1D1E1B"/>
<path d="M66.9322 75.0054L66.7666 74.2282C66.9543 74.2002 86.8175 70.4337 115.547 68.4667C142.077 66.6468 181.817 66.0105 220.504 73.3238L220.348 74.103C181.742 66.816 142.082 67.4519 115.579 69.2448C86.9296 71.2381 67.1199 74.9775 66.9322 75.0054Z" fill="#1D1D1B"/>
<path d="M32.2903 130.142C32.1561 130.143 32.0214 130.063 31.9403 129.956C26.6314 121.615 27.501 114.337 29.1646 109.738C30.2472 106.726 31.9217 103.979 34.1084 101.632C34.2685 101.47 34.51 101.468 34.6719 101.628C34.8339 101.788 34.8353 102.03 34.6753 102.192C34.6753 102.192 34.6753 102.192 34.6486 102.219C32.5419 104.486 30.9206 107.152 29.8911 110.056C27.5675 116.51 28.4917 123.08 32.6088 129.55C32.7173 129.737 32.665 129.979 32.4779 130.114C32.4513 130.141 32.3708 130.142 32.2903 130.142Z" fill="#1D1D1B"/>
<path d="M250.966 133.042C250.886 133.043 250.832 133.016 250.778 132.99C250.589 132.883 250.508 132.642 250.614 132.454C256.588 121.577 255.272 112.326 253.118 106.489C250.773 100.143 246.966 96.3274 246.939 96.3008C246.777 96.1407 246.776 95.8992 246.936 95.7372C247.096 95.5753 247.338 95.5739 247.499 95.7339C247.661 95.894 251.468 99.6823 253.867 106.189C256.103 112.187 257.447 121.679 251.341 132.852C251.261 132.96 251.127 133.041 250.966 133.042Z" fill="#1D1D1B"/>
<path d="M57.929 136.512C57.8485 136.513 57.768 136.513 57.7142 136.487C49.8889 133.769 44.7398 129.774 42.3478 124.608C40.6901 121.076 40.4516 117.025 41.6642 113.315C41.7963 112.965 42.198 112.828 42.5477 112.961C42.8705 113.093 43.0337 113.468 42.9283 113.79C41.8748 117.178 42.0842 120.853 43.5791 124.065C45.808 128.882 50.7142 132.637 58.1629 135.223C58.5126 135.355 58.7026 135.73 58.5705 136.079C58.4648 136.348 58.1974 136.511 57.929 136.512Z" fill="white"/>
<path d="M178.927 135.801C178.874 135.801 178.82 135.801 178.766 135.775C170.139 133.625 165.922 128.444 163.913 124.484C162.583 121.942 161.816 119.156 161.584 116.286C161.582 115.91 161.875 115.613 162.224 115.611L162.251 115.611C162.627 115.609 162.924 115.902 162.926 116.251C163.129 118.934 163.896 121.532 165.118 123.94C167.86 129.318 172.55 132.86 179.081 134.485C179.43 134.563 179.647 134.938 179.569 135.287C179.463 135.583 179.196 135.799 178.927 135.801Z" fill="white"/>
<path d="M201.768 95.3321C201.473 95.3338 201.176 95.1209 201.121 94.826L196.175 75.2113C196.092 74.8629 196.305 74.4859 196.653 74.4034C197.002 74.3208 197.379 74.5333 197.461 74.8817L202.407 94.4964C202.49 94.8448 202.277 95.2218 201.929 95.3043C201.875 95.3046 201.822 95.3318 201.768 95.3321Z" fill="white"/>
<path d="M117.286 90.3009C116.911 90.3031 116.614 90.0096 116.611 89.634L116.528 75.5188C116.526 75.1431 116.82 74.8462 117.195 74.844C117.571 74.8417 117.868 75.1352 117.87 75.5109L117.953 89.6529C117.955 90.0017 117.662 90.2987 117.286 90.3009Z" fill="white"/>
<path d="M75.2339 222.581C75.046 222.582 74.9112 222.475 74.8565 222.288C69.6019 204.929 68.9034 186.55 69.2331 174.177C69.5837 160.784 71.1921 151.355 71.2184 151.274C71.244 151.06 71.4577 150.897 71.6996 150.95C71.9144 150.975 72.0767 151.189 72.0244 151.431C71.9461 151.807 65.671 189.065 75.6603 222.068C75.7152 222.283 75.6091 222.498 75.3949 222.58C75.3412 222.58 75.2876 222.58 75.2339 222.581Z" fill="#1D1D1B"/>
<path d="M224.972 221.431C224.945 221.432 224.918 221.432 224.864 221.432C224.649 221.38 224.514 221.166 224.566 220.951C229.152 202.139 228.807 184.563 227.693 173.165C226.494 160.8 224.192 152.817 224.165 152.736C224.11 152.522 224.243 152.307 224.457 152.252C224.645 152.197 224.86 152.33 224.915 152.517C224.943 152.598 227.271 160.661 228.471 173.106C229.585 184.585 229.931 202.215 225.319 221.161C225.32 221.322 225.16 221.43 224.972 221.431Z" fill="#1D1D1B"/>
<path d="M176.98 55.5461C176.914 44.3828 188.91 35.2953 203.75 35.208C218.59 35.1207 230.692 44.0932 230.757 55.2297C230.823 66.3663 218.827 75.4805 203.987 75.5678C202.163 75.5785 200.364 75.4549 198.564 75.1972L192.508 81.1367L191.038 73.1482C182.699 69.7891 177.025 63.1672 176.98 55.5461Z" fill="#7800FF"/>
<path d="M192.244 81.9702L190.664 73.4456C182.002 69.8469 176.621 63.0086 176.577 55.5485C176.51 44.1973 188.693 34.8941 203.747 34.8055C218.802 34.717 231.093 43.8762 231.159 55.2274C231.226 66.5786 219.044 75.8818 203.989 75.9703C202.218 75.9808 200.446 75.857 198.701 75.6257L192.244 81.9702ZM203.752 35.6106C189.154 35.6964 177.318 44.6487 177.382 55.5437C177.424 62.7355 182.696 69.333 191.17 72.7718L191.385 72.851L192.771 80.3032L198.427 74.7418L198.615 74.7675C200.388 75.0254 202.187 75.149 203.984 75.1385C218.583 75.0526 230.418 66.1003 230.354 55.2053C230.29 44.3103 218.35 35.5247 203.752 35.6106Z" fill="#1D1E1B"/>
<path d="M185.57 65.1027C184.976 64.5158 184.463 63.9016 184.003 63.2066C183.542 62.5384 183.136 61.843 182.783 61.0937L182.647 60.7993L182.565 60.6656C182.593 60.7459 182.565 60.6656 182.565 60.6388C182.484 60.4514 182.402 60.2372 182.32 60.0498C182.184 59.6749 182.047 59.2732 181.938 58.8713C181.828 58.4694 181.745 58.0673 181.662 57.6921C181.635 57.6118 181.634 57.5313 181.607 57.4241C181.58 57.3169 181.58 57.3169 181.579 57.2632C181.579 57.2632 181.551 57.0756 181.579 57.1827C181.551 56.9682 181.523 56.7805 181.521 56.5659C181.436 55.7613 181.458 54.9561 181.534 54.1505C181.534 54.07 181.56 53.9625 181.559 53.882C181.559 53.8552 181.559 53.8015 181.559 53.7479C181.532 53.8554 181.558 53.6942 181.558 53.6942C181.584 53.5062 181.61 53.2914 181.662 53.1032C181.74 52.727 181.819 52.3509 181.924 52.0014C182.029 51.6519 182.134 51.2756 182.266 50.8991C182.293 50.7916 182.346 50.7108 182.372 50.6033L182.425 50.4956C182.425 50.4688 182.478 50.3611 182.425 50.4688C182.504 50.2805 182.584 50.0922 182.663 49.9038C183.008 49.2041 183.379 48.5042 183.832 47.8574C184.311 47.13 184.87 46.4559 185.484 45.8619C185.804 45.5379 186.124 45.214 186.471 44.9168C186.845 44.5926 187.112 44.4031 187.513 44.1056C187.754 43.9432 187.859 43.6205 187.697 43.3799C187.534 43.1125 187.212 43.0339 186.971 43.1964C184.218 45.1716 182.142 47.9479 181.06 51.1746C180.033 54.3741 180.214 57.8617 181.52 60.9669C182.283 62.7873 183.42 64.4713 184.796 65.8586C185.012 66.0721 185.334 66.0702 185.548 65.8542C185.788 65.6381 185.786 65.3161 185.57 65.1027Z" fill="white"/>
<path d="M185.201 66.2857C184.986 66.287 184.771 66.2077 184.609 66.0476C183.178 64.6069 182.068 62.9228 181.279 61.0489C179.918 57.8903 179.763 54.3489 180.818 51.0687C181.925 47.7882 184.029 44.9581 186.835 42.9557C186.995 42.8474 187.183 42.7926 187.398 42.845C187.64 42.8973 187.828 43.0304 187.963 43.2174C188.18 43.5918 188.076 44.0755 187.702 44.3192C187.301 44.6168 187.06 44.806 186.687 45.1303C186.313 45.4545 186.019 45.7246 185.726 46.0483C185.139 46.6422 184.606 47.3162 184.127 48.0168C183.702 48.6633 183.303 49.3366 182.985 50.0093C182.905 50.1708 182.826 50.3591 182.747 50.5206C182.747 50.5206 182.747 50.5206 182.747 50.5475L182.694 50.7088C182.668 50.7894 182.615 50.8971 182.588 50.9778C182.456 51.3274 182.351 51.6769 182.246 52.0532C182.141 52.4295 182.062 52.7789 181.984 53.155C181.958 53.343 181.905 53.5312 181.88 53.746L181.88 53.7729L181.88 53.7997L181.881 53.907C181.881 53.9875 181.855 54.095 181.856 54.1756C181.78 54.9542 181.784 55.7593 181.843 56.5372C181.871 56.7249 181.872 56.9127 181.9 57.1004C181.9 57.1272 181.9 57.1541 181.9 57.2077L181.928 57.3418C181.928 57.4223 181.956 57.5026 181.983 57.6098C182.066 58.0118 182.149 58.3871 182.258 58.789C182.368 59.1908 182.478 59.5659 182.614 59.9408C182.696 60.1282 182.777 60.3424 182.859 60.5297L182.941 60.6903C182.995 60.7973 183.022 60.8777 183.076 60.9847C183.43 61.7072 183.809 62.4027 184.27 63.0709C184.73 63.7391 185.243 64.3533 185.81 64.9135C186.107 65.2338 186.11 65.7168 185.817 66.0405C185.63 66.2027 185.442 66.2843 185.201 66.2857ZM187.213 43.3828C187.186 43.383 187.159 43.3832 187.133 43.4102C184.407 45.3315 182.383 48.0807 181.329 51.2535C180.327 54.3992 180.482 57.8065 181.788 60.8581C182.55 62.6516 183.633 64.2822 185.009 65.6696C185.063 65.7229 185.144 65.7493 185.198 65.749C185.251 65.7487 185.332 65.7214 185.358 65.6675C185.465 65.5596 185.464 65.3986 185.356 65.2918C184.762 64.705 184.222 64.0641 183.735 63.3692C183.274 62.701 182.841 61.979 182.488 61.2297C182.46 61.1762 182.433 61.1226 182.406 61.0423L182.297 60.7746L182.297 60.7477C182.215 60.5335 182.133 60.3462 182.052 60.132C181.915 59.7302 181.779 59.3553 181.669 58.9534C181.559 58.5515 181.476 58.1495 181.394 57.7474C181.366 57.6671 181.366 57.5598 181.338 57.4794L181.31 57.238C181.282 57.0235 181.254 56.8358 181.226 56.6213C181.141 55.8167 181.163 54.9847 181.238 54.1523C181.238 54.045 181.264 53.9643 181.264 53.8838L181.29 53.7763L181.289 53.6958C181.315 53.481 181.341 53.293 181.393 53.078C181.471 52.7018 181.55 52.3257 181.655 51.9494C181.76 51.573 181.865 51.1967 182.024 50.8469L182.129 50.5511L182.182 50.3898C182.262 50.2014 182.341 50.0131 182.447 49.8247C182.792 49.0981 183.19 48.398 183.643 47.7513C184.148 47.0237 184.708 46.3495 185.321 45.7019C185.641 45.3779 185.988 45.0539 186.335 44.7566C186.683 44.4594 186.976 44.2161 187.377 43.9186C187.484 43.8375 187.59 43.6758 187.509 43.5421C187.455 43.4619 187.374 43.4087 187.294 43.4092L187.213 43.3828Z" fill="white"/>
<path d="M212.871 43.8757C212.657 43.877 212.468 43.7171 212.467 43.4756C212.465 43.2341 212.625 43.0721 212.867 43.0707C224.079 42.2533 233.113 35.9743 238.691 30.8426C242.322 27.5473 245.547 23.825 248.287 19.7566C248.393 19.5682 248.661 19.5129 248.85 19.6192C249.038 19.7254 249.094 19.9934 248.987 20.1819C246.194 24.3042 242.942 28.0804 239.258 31.4297C233.573 36.6425 224.352 43.0568 212.925 43.8754L212.871 43.8757Z" fill="black"/>
<path d="M226.368 52.5989C225.697 52.6028 225.026 52.58 224.327 52.5036C224.113 52.478 223.951 52.2911 223.949 52.0764C223.975 51.8616 224.162 51.6995 224.376 51.6982C237.184 52.8573 243.826 41.4935 243.906 41.3857C244.012 41.1972 244.253 41.0884 244.442 41.1947C244.63 41.3009 244.712 41.5419 244.633 41.7303C244.633 41.7571 244.606 41.7573 244.606 41.7841C244.58 41.8916 238.39 52.5282 226.368 52.5989Z" fill="black"/>
</svg>
