
<svg width="16" height="16" viewBox="0 0 16 16" fill="none" xmlns="http://www.w3.org/2000/svg">
<path opacity="0.3" fill-rule="evenodd" clip-rule="evenodd" d="M6.58584 8.47135L5.17163 9.88556C4.91128 10.1459 4.91128 10.568 5.17163 10.8284C5.43198 11.0887 5.85409 11.0887 6.11444 10.8284L7.52865 9.41416L8.00006 9.88556C8.52075 10.4063 8.52075 11.2505 8.00006 11.7712L6.11444 13.6568C5.59374 14.1775 4.74952 14.1775 4.22882 13.6568L2.3432 11.7712C1.8225 11.2505 1.8225 10.4063 2.3432 9.88556L4.22882 7.99994C4.74952 7.47924 5.59374 7.47924 6.11444 7.99994L6.58584 8.47135Z" fill="white"/>
<path fill-rule="evenodd" clip-rule="evenodd" d="M9.41366 7.52865L10.8279 6.11444C11.0882 5.85409 11.0882 5.43198 10.8279 5.17163C10.5675 4.91128 10.1454 4.91128 9.88507 5.17163L8.47085 6.58584L7.99945 6.11444C7.47875 5.59374 7.47875 4.74952 7.99945 4.22882L9.88507 2.3432C10.4058 1.8225 11.25 1.8225 11.7707 2.3432L13.6563 4.22882C14.177 4.74952 14.177 5.59374 13.6563 6.11444L11.7707 8.00006C11.25 8.52076 10.4058 8.52076 9.88507 8.00006L9.41366 7.52865Z" fill="white"/>
<path opacity="0.3" fill-rule="evenodd" clip-rule="evenodd" d="M2.81466 3.75754C2.55431 3.49719 2.55431 3.07508 2.81466 2.81474C3.07501 2.55439 3.49712 2.55439 3.75747 2.81473L4.70028 3.75754C4.96063 4.01789 4.96063 4.44 4.70028 4.70035C4.43993 4.9607 4.01782 4.9607 3.75747 4.70035L2.81466 3.75754ZM5.56261 1.67646C5.56261 1.30827 5.86109 1.0098 6.22928 1.0098C6.59747 1.0098 6.89595 1.30827 6.89595 1.67646L6.89595 3.00979C6.89595 3.37798 6.59747 3.67646 6.22928 3.67646C5.86109 3.67646 5.56261 3.37798 5.56261 3.0098L5.56261 1.67646ZM1.12455 6.11452C1.12455 5.74633 1.42303 5.44785 1.79122 5.44785L3.12455 5.44785C3.49274 5.44785 3.79121 5.74633 3.79121 6.11452C3.79121 6.48271 3.49274 6.78119 3.12455 6.78119L1.79122 6.78119C1.42303 6.78119 1.12455 6.48271 1.12455 6.11452Z" fill="white"/>
<path opacity="0.3" fill-rule="evenodd" clip-rule="evenodd" d="M12.1619 13.1048C12.4222 13.3651 12.8443 13.3651 13.1047 13.1048C13.365 12.8444 13.365 12.4223 13.1047 12.162L12.1619 11.2192C11.9015 10.9588 11.4794 10.9588 11.2191 11.2192C10.9587 11.4795 10.9587 11.9016 11.2191 12.162L12.1619 13.1048ZM14.243 10.3568C14.6112 10.3568 14.9097 10.0584 14.9097 9.69017C14.9097 9.32198 14.6112 9.02351 14.243 9.02351H12.9097C12.5415 9.02351 12.243 9.32198 12.243 9.69017C12.243 10.0584 12.5415 10.3568 12.9097 10.3568L14.243 10.3568ZM9.80493 14.7949C10.1731 14.7949 10.4716 14.4964 10.4716 14.1282L10.4716 12.7949C10.4716 12.4267 10.1731 12.1282 9.80493 12.1282C9.43674 12.1282 9.13826 12.4267 9.13826 12.7949L9.13826 14.1282C9.13826 14.4964 9.43674 14.7949 9.80493 14.7949Z" fill="white"/>
</svg>