<svg width="50" height="50" viewBox="0 0 50 50" fill="none" xmlns="http://www.w3.org/2000/svg">
<path opacity="0.3" d="M43.7498 22.3318H6.24984C4.99984 22.3318 4.1665 23.1651 4.1665 24.4151C4.1665 25.6651 4.99984 26.4985 6.24984 26.4985H12.4998V30.6651C12.4998 37.5401 18.1248 43.1651 24.9998 43.1651C31.8748 43.1651 37.4998 37.5401 37.4998 30.6651V26.4985H43.7498C44.9998 26.4985 45.8332 25.6651 45.8332 24.4151C45.8332 23.1651 44.9998 22.3318 43.7498 22.3318Z" fill="#A1A5B7"/>
<path d="M24.1665 45.665C23.7499 45.665 23.3332 45.4567 22.9165 45.2484C22.0832 44.6234 21.8748 43.165 22.4998 42.3316C24.3748 39.8316 25.6248 37.1233 26.4582 33.9983C26.6665 32.9566 27.9165 32.1234 28.9582 32.5401C29.9998 32.7484 30.8332 33.9983 30.4165 35.04C29.5832 38.5816 27.9165 41.915 25.8332 44.8317C25.4165 45.2483 24.7915 45.665 24.1665 45.665ZM18.1248 41.0817C21.2498 37.7484 22.9165 33.165 22.9165 28.5817V18.165C22.9165 16.915 23.7498 16.0817 24.9998 16.0817C26.2498 16.0817 27.0832 16.915 27.0832 18.165V27.1233C27.0832 28.3733 27.9165 29.2067 29.1665 29.2067C30.4165 29.2067 31.2498 28.3733 31.2498 27.1233V18.165C31.2498 14.6234 28.5415 11.915 24.9998 11.915C21.4582 11.915 18.7498 14.6234 18.7498 18.165V28.5817C18.7498 32.1234 17.4998 35.665 14.9998 38.165C14.1665 38.9983 14.3748 40.2484 15.2082 41.0817C15.6248 41.4984 16.0415 41.7067 16.6665 41.7067C17.2915 41.7067 17.7082 41.4984 18.1248 41.0817ZM12.4998 34.8317C13.5415 34.8317 14.5832 33.79 14.5832 32.7484V18.165C14.5832 16.915 14.7915 15.665 15.2082 14.415C15.6248 13.3734 14.9998 12.1234 13.9582 11.7067C12.9165 11.2901 11.6665 11.915 11.2498 12.9567C10.6248 14.6234 10.4165 16.29 10.4165 18.165V32.7484V32.9566C10.4165 33.9983 11.4582 34.8317 12.4998 34.8317ZM18.7498 9.83169C19.7915 8.99836 21.0415 8.58171 22.2915 8.16505C23.3332 7.95671 23.9582 6.70669 23.7498 5.66502C23.5415 4.62336 22.2915 3.99833 21.2498 4.20666C19.5832 4.62333 17.9165 5.45674 16.4582 6.49841C15.6248 7.12341 15.4165 8.58166 16.0415 9.415C16.4582 10.04 17.0832 10.2484 17.7082 10.2484C17.9165 10.2484 18.3332 10.04 18.7498 9.83169ZM37.9165 39.415C38.9582 35.8734 39.5832 32.3317 39.5832 28.5817V18.165C39.5832 11.915 35.6248 6.49841 29.7915 4.41507C28.7498 3.99841 27.4998 4.62336 27.0832 5.66502C26.6665 6.70669 27.2915 7.95666 28.3332 8.37333C32.4999 9.83166 35.4165 13.79 35.4165 18.165V28.5817C35.4165 31.915 34.9998 35.04 33.9582 38.165C33.5415 39.2066 34.1665 40.4567 35.2082 40.8734C35.4165 40.8734 35.6248 40.8734 35.8332 40.8734C36.8748 40.8734 37.4998 40.2484 37.9165 39.415Z" fill="#A1A5B7"/>
</svg>
