<svg width="50" height="50" viewBox="0 0 50 50" fill="none" xmlns="http://www.w3.org/2000/svg">
<path opacity="0.3" d="M22.9165 13.5417C22.9165 18.7501 18.7498 22.9167 13.5415 22.9167C8.33317 22.9167 4.1665 18.7501 4.1665 13.5417C4.1665 8.33342 8.33317 4.16675 13.5415 4.16675C18.7498 4.16675 22.9165 8.33342 22.9165 13.5417ZM36.4582 4.16675C31.2498 4.16675 27.0832 8.33342 27.0832 13.5417C27.0832 18.7501 31.2498 22.9167 36.4582 22.9167C41.6665 22.9167 45.8332 18.7501 45.8332 13.5417C45.8332 8.33342 41.6665 4.16675 36.4582 4.16675ZM13.5415 27.0834C8.33317 27.0834 4.1665 31.2501 4.1665 36.4584C4.1665 41.6668 8.33317 45.8334 13.5415 45.8334C18.7498 45.8334 22.9165 41.6668 22.9165 36.4584C22.9165 31.2501 18.7498 27.0834 13.5415 27.0834ZM36.4582 27.0834C31.2498 27.0834 27.0832 31.2501 27.0832 36.4584C27.0832 41.6668 31.2498 45.8334 36.4582 45.8334C41.6665 45.8334 45.8332 41.6668 45.8332 36.4584C45.8332 31.2501 41.6665 27.0834 36.4582 27.0834Z" fill="#A1A5B7"/>
<path d="M36.459 33.3332C36.459 33.3332 36.2507 33.3332 36.459 33.3332L34.7924 31.8748C33.5424 30.6248 32.709 28.9582 32.5007 27.2915C32.2923 25.8332 32.2923 24.1665 32.5007 22.4998C32.709 20.8332 33.5424 19.1665 34.7924 17.9165L36.2507 16.4583H36.459C38.1257 16.4583 39.584 14.9999 39.584 13.3333C39.584 11.6666 38.1257 10.2083 36.459 10.2083C34.7923 10.2083 33.334 11.6666 33.334 13.3333V13.5415L31.8756 14.9999C30.6256 16.2499 28.959 17.0832 27.2923 17.2915C25.834 17.4998 24.1673 17.4998 22.5006 17.2915C20.834 17.0832 19.1673 16.2499 17.9173 14.9999L16.459 13.5415V13.3333C16.459 11.6666 15.0007 10.2083 13.334 10.2083C11.6673 10.2083 10.209 11.6666 10.209 13.3333C10.209 14.9999 11.6673 16.4583 13.334 16.4583H13.5423L15.0007 17.9165C16.2507 19.1665 17.084 20.8332 17.2923 22.4998C17.5006 23.9582 17.5006 25.6248 17.2923 27.2915C17.084 28.9582 16.2507 30.6248 15.0007 31.8748L13.5423 33.3332H13.334C11.6673 33.3332 10.209 34.7915 10.209 36.4582C10.209 38.1249 11.6673 39.5832 13.334 39.5832C15.0007 39.5832 16.459 38.1249 16.459 36.4582V36.2499L17.9173 34.7916C19.1673 33.5416 20.834 32.7082 22.5006 32.4998C23.959 32.2915 25.6257 32.2915 27.2923 32.4998C28.959 32.7082 30.6256 33.5416 31.8756 34.7916L33.334 36.2499V36.4582C33.334 38.1249 34.7923 39.5832 36.459 39.5832C38.1257 39.5832 39.584 38.1249 39.584 36.4582C39.584 34.7915 38.1257 33.3332 36.459 33.3332Z" fill="#A1A5B7"/>
</svg>
