<svg width="16" height="16" viewBox="0 0 16 16" fill="none" xmlns="http://www.w3.org/2000/svg">
<path opacity="0.3" d="M7.99967 7.33333C6.52691 7.33333 5.33301 6.13943 5.33301 4.66667C5.33301 3.19391 6.52691 2 7.99967 2C9.47243 2 10.6663 3.19391 10.6663 4.66667C10.6663 6.13943 9.47243 7.33333 7.99967 7.33333Z" fill="currentColor"/>
<path d="M2.00043 13.4662C2.25884 10.2844 4.84127 8.66675 7.98889 8.66675C11.1808 8.66675 13.8033 10.1955 13.9986 13.4667C14.0064 13.5971 13.9986 14.0001 13.4978 14.0001C11.0274 14.0001 7.35648 14.0001 2.485 14.0001C2.31781 14.0001 1.98636 13.6395 2.00043 13.4662Z" fill="currentColor"/>
</svg>
