<svg width="282" height="108" viewBox="0 0 282 108" fill="none" xmlns="http://www.w3.org/2000/svg">
<path d="M34.1219 47.5H0V108H280V27.5L272.349 35.9846C262.868 46.4983 249.374 52.5 235.217 52.5H221.981C207.824 52.5 194.33 46.4983 184.849 35.9846L168.645 18.0154C159.164 7.50167 145.67 1.5 131.513 1.5H120.081C105.924 1.5 92.43 7.50169 82.949 18.0155L71.2539 30.9846C61.7728 41.4983 48.2792 47.5 34.1219 47.5Z" fill="url(#paint0_linear_436_5482)"/>
<path d="M0 47.5H34.1219C48.2792 47.5 61.7728 41.4983 71.2539 30.9846L82.949 18.0155C92.43 7.50169 105.924 1.5 120.081 1.5H131.513C145.67 1.5 159.164 7.50167 168.645 18.0154L184.849 35.9846C194.33 46.4983 207.824 52.5 221.981 52.5H235.217C249.374 52.5 262.868 46.4983 272.349 35.9846L280 27.5" stroke="#2C9AFF" stroke-width="3"/>
<defs>
<linearGradient id="paint0_linear_436_5482" x1="140" y1="1.5" x2="140" y2="108" gradientUnits="userSpaceOnUse">
<stop stop-color="#E7F3FF"/>
<stop offset="1" stop-color="white" stop-opacity="0"/>
</linearGradient>
</defs>
</svg>
