<svg width="234" height="167" viewBox="0 0 234 167" fill="none" xmlns="http://www.w3.org/2000/svg">
<path d="M96.4098 82.254C96.7753 73.8582 101.116 69.9598 104.255 58.8516C107.394 47.7433 110.729 42.5645 114.784 38.6642C119.833 33.8083 122.094 33.9787 122.094 33.9787L124.122 29.9616L135.358 33.3352L134.724 39.0513C136.059 41.7639 139.131 45.1375 133.46 53.7336C129.391 59.9218 129.364 68.2677 123.928 80.8174C118.491 93.367 112.045 97.2 112.045 97.2" fill="#FFAD00"/>
<path d="M112.069 97.5643C111.939 97.5634 111.81 97.4846 111.732 97.3801C111.629 97.1975 111.683 96.9638 111.866 96.835C111.944 96.7835 118.287 92.8978 123.591 80.6333C126.177 74.6437 127.509 69.6601 128.707 65.2996C129.985 60.5237 130.997 56.7601 133.15 53.4977C138.086 45.989 136.236 42.5971 134.874 40.1184C134.694 39.8053 134.54 39.4923 134.385 39.2053C134.36 39.1271 134.334 39.075 134.335 38.997L134.915 33.6185L124.301 30.4308L122.431 34.163C122.352 34.2925 122.222 34.3957 122.066 34.3687C122.014 34.3684 119.778 34.3801 115.043 38.952C111.642 42.2324 108.024 46.9155 104.619 58.958C103.262 63.7335 101.706 67.1816 100.309 70.2148C98.437 74.3109 96.9863 77.5518 96.7741 82.2825C96.7728 82.4905 96.5896 82.6713 96.3816 82.67C96.1736 82.6687 95.9928 82.4855 95.9943 82.2515C96.2074 77.3648 97.7895 73.9168 99.6091 69.8983C100.98 66.891 102.536 63.4688 103.866 58.7452C107.324 46.521 111.021 41.7345 114.5 38.4026C118.686 34.3731 121.082 33.7124 121.837 33.6132L123.759 29.8034C123.838 29.6219 124.047 29.5452 124.228 29.5984L135.439 32.9719C135.621 33.025 135.724 33.2077 135.723 33.3897L135.115 38.9759C135.243 39.2367 135.372 39.4976 135.526 39.7586C136.991 42.42 138.97 46.0726 133.771 53.9437C131.697 57.1025 130.686 60.8141 129.434 65.5123C128.236 69.9247 126.904 74.9083 124.291 80.9498C118.881 93.4736 112.512 97.3591 112.251 97.5134C112.199 97.5391 112.121 97.5646 112.069 97.5643Z" fill="black"/>
<path d="M97.7189 76.7244C97.1877 78.489 96.8899 80.3332 96.8002 82.1786L102.021 87.152L113.643 95.2602C115.029 94.047 117.123 91.8763 119.355 88.4325C110.085 78.2592 100.734 76.8736 97.7189 76.7244Z" fill="#E89D00"/>
<path d="M134.913 50.2585C132.616 43.5617 129.919 38.2405 127.491 39.863C121.746 43.7265 120.075 61.1362 121.359 63.7444C122.257 65.5702 125.809 67.1528 127.858 67.9459C129.481 62.0801 130.473 57.4844 132.941 53.704C133.702 52.6168 134.333 51.4508 134.913 50.2585Z" fill="#E89D00"/>
<path d="M93.9202 77.2717C93.9202 77.2717 106.571 83.2024 113.482 88.0305C127.124 97.5557 131.918 108.22 138.482 126.801C140.295 131.96 142.942 136.813 146.294 141.125L85.2104 158.806C85.2104 158.806 83.724 155.416 78.3014 129.121C74.5685 111.053 75.5115 89.5566 81.8741 82.577C81.8481 82.5769 94.1386 83.7992 93.9202 77.2717Z" fill="#FFAD00"/>
<path d="M93.92 77.2715C93.92 77.2715 106.57 83.2023 113.482 88.0304C127.123 97.5555 131.918 108.22 138.481 126.8C140.294 131.96 142.942 136.813 146.294 141.125L85.2102 158.806C85.2102 158.806 83.7238 155.416 78.3013 129.121C74.5683 111.053 75.5113 89.5565 81.8739 82.5769C81.8739 82.5769 82.7054 82.6602 83.9014 82.6678C87.3593 82.6898 94.0972 82.1088 93.92 77.2715ZM93.9249 76.4916C93.7689 76.4906 93.6126 76.5416 93.4821 76.6187C93.2471 76.7732 93.1155 77.0324 93.1398 77.2926C93.212 78.203 92.8684 79.0849 92.2401 79.7569C90.3819 81.6691 86.2201 81.9286 83.9062 81.9138C82.7622 81.9065 81.9567 81.8234 81.9567 81.8234L81.8527 81.8227C81.6187 81.8212 81.4101 81.9239 81.2791 82.0791C78.1633 85.4913 76.1169 92.4464 75.5121 101.673C74.9373 110.275 75.6791 120.342 77.5201 129.298C82.8922 155.359 84.4291 158.983 84.4801 159.139C84.6083 159.426 84.8931 159.61 85.1791 159.612C85.2571 159.612 85.3351 159.613 85.4133 159.587L146.472 141.854C146.888 141.726 147.125 141.312 146.998 140.895C146.972 140.791 146.921 140.687 146.844 140.608C143.569 136.349 140.973 131.6 139.185 126.519C135.763 116.851 132.922 109.657 129.269 103.601C125.307 97.0499 120.58 92.0537 113.902 87.3831C107.016 82.5811 94.3661 76.6244 94.2364 76.5715C94.1328 76.5189 94.0029 76.4921 93.9249 76.4916Z" fill="black"/>
<path d="M151.882 129.148C151.882 129.148 144.295 108.013 151.243 98.9052C158.191 89.7973 209.011 83.465 209.011 83.465L216.95 106.552L189.188 117.633" fill="#5B0AB7"/>
<path d="M151.879 129.539C151.723 129.538 151.568 129.433 151.517 129.276C151.21 128.416 143.932 107.83 150.932 98.67C157.933 89.5104 206.905 83.3483 208.986 83.1016C209.169 83.0767 209.35 83.1819 209.401 83.3642L217.34 106.451C217.416 106.66 217.311 106.867 217.129 106.944L189.367 118.025C189.159 118.102 188.952 117.997 188.849 117.814C188.746 117.631 188.877 117.398 189.06 117.295L216.456 106.342L208.747 83.9061C204.454 84.4507 158.029 90.629 151.553 99.1419C144.815 107.991 152.196 128.813 152.247 129.021C152.323 129.229 152.218 129.437 152.01 129.513C151.957 129.539 151.931 129.539 151.879 129.539Z" fill="black"/>
<path d="M210.366 83.1102C212.425 78.1832 215.262 73.6252 218.798 69.6177C219.505 68.8162 220.727 68.746 221.529 69.4531C221.787 69.6887 221.967 69.9759 222.069 70.3145L232.065 101.215C232.065 101.215 224.935 106.11 218.074 105.624L210.366 83.1102Z" fill="#7800FF"/>
<path d="M218.955 106.071C218.643 106.069 218.357 106.068 218.045 106.04C217.889 106.039 217.759 105.934 217.708 105.777L210 83.2379C209.974 83.1598 209.975 83.0558 210.002 82.9779C212.087 77.9991 214.951 73.4153 218.513 69.3559C219.377 68.3994 220.859 68.3308 221.816 69.195C222.1 69.4568 222.332 69.7963 222.459 70.1871L232.455 101.087C232.506 101.244 232.453 101.425 232.296 101.528C232.009 101.735 225.585 106.114 218.955 106.071ZM218.362 105.288C224.236 105.585 230.343 101.906 231.597 101.082L221.704 70.4423C221.423 69.6345 220.542 69.1868 219.734 69.4677C219.473 69.544 219.264 69.6987 219.081 69.8795C215.624 73.8356 212.814 78.2898 210.781 83.1129L218.362 105.288Z" fill="black"/>
<path d="M135.337 118.227L76.3867 115.329C76.4112 115.563 76.4099 115.771 76.4344 116.005L77.7138 119.238L135.849 119.582C135.67 119.113 135.491 118.67 135.337 118.227Z" fill="#E89D00"/>
<path d="M203.077 84.3121C203.077 84.3121 209.117 99.3529 211.372 108.623L218.541 105.757L210.598 83.242L203.077 84.3121Z" fill="white"/>
<path d="M211.396 109.013C211.344 109.013 211.267 108.986 211.215 108.96C211.111 108.907 211.034 108.803 211.008 108.699C208.778 99.5843 202.79 84.5958 202.713 84.4393C202.636 84.2308 202.742 84.0235 202.95 83.9468C202.976 83.947 203.002 83.9212 203.028 83.9213L210.549 82.8772C210.731 82.8524 210.912 82.9575 210.963 83.1399L218.906 105.655C218.983 105.863 218.877 106.071 218.695 106.148L211.526 109.014C211.5 109.014 211.448 109.013 211.396 109.013ZM203.648 84.6273C204.671 87.1819 209.583 99.7974 211.688 108.105L218.075 105.546L210.362 83.6821L203.648 84.6273Z" fill="black"/>
<path d="M125.028 120.215C125.028 120.215 153.787 87.1952 167.144 92.5324C180.5 97.8696 188.582 110.713 190.265 120.058C191.947 129.403 195.069 141.357 195.069 141.357L175.501 151.997C175.501 151.997 161.071 131.521 159.923 128.029C158.775 124.538 125.028 120.215 125.028 120.215Z" fill="#7800FF"/>
<path d="M175.499 152.387C175.369 152.386 175.265 152.334 175.188 152.229C174.595 151.394 160.707 131.675 159.559 128.157C159.355 127.558 157.259 125.907 141.988 123.209C133.521 121.725 125.078 120.631 124.974 120.631C124.766 120.603 124.612 120.42 124.613 120.212C124.613 120.134 124.666 120.057 124.718 120.005C129.746 114.369 135.11 109.073 140.81 104.117C152.679 93.9488 161.596 89.9496 167.276 92.1958C173.449 94.6532 179.011 98.9527 183.37 104.571C187.083 109.378 189.726 114.985 190.63 120.009C192.287 129.224 195.409 141.152 195.434 141.282C195.485 141.464 195.406 141.646 195.249 141.723L175.681 152.362C175.629 152.362 175.577 152.388 175.499 152.387ZM125.811 119.934C128.045 120.234 135.085 121.189 142.123 122.43C159.524 125.479 160.085 127.251 160.289 127.902C161.334 131.081 173.856 148.997 175.609 151.504L194.603 141.173C194.121 139.272 191.381 128.568 189.849 120.16C188.09 110.451 179.668 97.9949 166.96 92.9218C154.978 88.0874 129.634 115.642 125.811 119.934Z" fill="black"/>
<path d="M126.178 119.521L166.945 119.754L127.722 117.814C127.068 118.538 126.544 119.107 126.178 119.521Z" fill="#59298F"/>
<path d="M195.508 141.855C195.508 141.855 203.538 142.556 210.946 146.971C211.853 147.523 212.157 148.721 211.605 149.627C211.421 149.912 211.186 150.171 210.873 150.325L182.432 166.004C182.432 166.004 175.813 160.163 174.973 153.32L195.508 141.855Z" fill="#7800FF"/>
<path d="M182.456 166.42C182.352 166.419 182.274 166.393 182.196 166.314C181.912 166.078 175.449 160.291 174.609 153.37C174.584 153.214 174.663 153.058 174.819 152.981L195.329 141.489C195.407 141.464 195.485 141.438 195.563 141.439C195.641 141.439 203.774 142.219 211.157 146.608C212.27 147.292 212.599 148.724 211.942 149.812C211.732 150.148 211.444 150.432 211.079 150.638L182.638 166.317C182.586 166.395 182.534 166.394 182.456 166.42ZM175.44 153.531C176.26 159.386 181.428 164.515 182.513 165.536L210.719 149.986C211.476 149.549 211.742 148.614 211.305 147.857C211.176 147.623 210.995 147.439 210.762 147.308C204.002 143.287 196.623 142.356 195.61 142.245L175.44 153.531Z" fill="black"/>
<path d="M192.978 134.922C192.978 134.922 179.852 142.431 171.194 146.432L175.232 153.452L195.454 142.14L192.978 134.922Z" fill="white"/>
<path d="M175.204 153.842C175.074 153.841 174.944 153.762 174.867 153.631L170.83 146.611C170.727 146.429 170.78 146.195 170.963 146.092C170.963 146.092 170.989 146.092 170.989 146.066C179.542 142.143 192.616 134.66 192.747 134.583C192.929 134.48 193.163 134.534 193.292 134.716C193.292 134.742 193.317 134.769 193.317 134.795L195.793 141.986C195.844 142.169 195.765 142.35 195.609 142.453L175.386 153.765C175.334 153.816 175.282 153.816 175.204 153.842ZM171.714 146.591L175.34 152.906L194.936 141.929L192.741 135.493C190.497 136.779 179.433 143.026 171.714 146.591Z" fill="black"/>
<path d="M70.9541 66.2053C70.9541 66.2053 64.8314 72.2504 61.2458 63.6994C59.3503 59.2152 50.6 49.2013 43.9999 52.6433C37.3998 56.0853 33.2214 50.8066 28.2136 49.1886C22.4533 47.3319 12.6293 54.8354 22.6434 66.4695C46.4139 94.0775 77.8601 75.9475 77.8601 75.9475L75.4284 65.8438L70.9541 66.2053Z" fill="#7800FF"/>
<path d="M26.395 48.9433C27.019 48.9473 27.6165 49.0291 28.2133 49.2149C32.0016 50.4351 35.3343 53.7844 39.5982 53.8115C41.1324 53.7953 42.6428 53.4149 43.9996 52.6696C44.9127 52.1814 45.9282 51.9538 46.9682 51.9605C53.0001 51.9989 59.6321 59.8673 61.2455 63.7257C62.7311 67.2452 64.6226 68.2713 66.3646 68.2824C68.8345 68.2981 70.9539 66.2056 70.9539 66.2056L75.454 65.8963L77.8856 76C77.8856 76 67.6036 81.9406 54.3438 81.8561C44.412 81.7928 32.8376 78.365 22.6427 66.5478C13.6355 56.0381 20.7011 48.907 26.395 48.9433ZM26.4 48.1633C23.072 48.1421 19.7565 50.253 18.359 53.3122C17.3044 55.5935 16.3896 60.4238 22.0678 67.0121C26.8425 72.5546 32.3023 76.6975 38.2919 79.2837C43.374 81.4742 48.827 82.6009 54.339 82.6101C67.6508 82.6949 77.8538 76.9098 78.2975 76.6526C78.5846 76.4724 78.7428 76.1354 78.6669 75.7969L76.2353 65.6932C76.1594 65.3547 75.8491 65.0928 75.4851 65.0904L75.4331 65.0901L70.9329 65.4254C70.7507 65.4503 70.5682 65.5271 70.4374 65.6563C70.4112 65.6821 68.5015 67.516 66.3955 67.5026C64.6016 67.4911 63.1284 66.1037 62.0015 63.4185C60.2599 59.2733 53.395 51.2214 46.9992 51.1806C45.8292 51.1732 44.6834 51.4519 43.6661 51.9654C42.4396 52.6596 41.0593 53.0148 39.6292 53.0317C37.1853 53.0161 35.0868 51.8327 32.8328 50.5704C31.4338 49.7814 29.9829 48.9662 28.4779 48.4886C27.8034 48.2503 27.1021 48.1418 26.4 48.1633Z" fill="black"/>
<path d="M83.0231 81.7262C83.0231 81.7262 83.2821 81.8838 83.7482 82.1728C86.3903 83.7497 92.6868 87.1439 96.3643 85.3473C100.642 83.2425 95.6174 80.1424 95.6174 80.1424C101.5 83.17 98.5852 79.5633 98.5852 79.5633L94.5965 77.1458L83.0231 81.7262Z" fill="white"/>
<path d="M93.8102 86.2417C90.3263 86.2195 86.0761 84.0343 83.5378 82.5101C83.0714 82.2472 82.8126 82.0635 82.8126 82.0635C82.6313 81.9583 82.5809 81.698 82.6861 81.5167C82.7386 81.439 82.7909 81.3874 82.8691 81.3618L94.4167 76.7553C94.521 76.704 94.6508 76.7308 94.7545 76.7835L98.7432 79.201C98.769 79.2271 98.8208 79.2534 98.8467 79.2796C99.2079 79.7239 99.9809 80.8209 99.5089 81.4419C99.2731 81.7264 98.8821 81.8799 97.7144 81.5084C98.1791 82.0314 98.4348 82.7091 98.4303 83.411C98.3985 84.3209 97.7436 85.0967 96.4916 85.7127C95.6833 86.0716 94.746 86.2736 93.8102 86.2417ZM83.9062 81.8105L83.9581 81.8368C86.4704 83.3608 92.7152 86.7027 96.1843 84.9828C97.1494 84.4949 97.6469 83.9521 97.6767 83.3542C97.7361 82.1846 96.0545 80.8739 95.3811 80.4536C95.2 80.3224 95.1494 80.0881 95.2806 79.9069C95.3856 79.7516 95.5939 79.7009 95.7754 79.7801C98.0819 80.9648 98.7319 80.9689 98.8881 80.9439C98.7607 80.5271 98.5551 80.1618 98.2972 79.8221L94.5417 77.5361L83.9062 81.8105Z" fill="black"/>
<path d="M69.5997 62.3751C72.8879 62.3961 75.5705 59.7474 75.5915 56.4592C75.6124 53.171 72.9638 50.4883 69.6755 50.4674C66.3873 50.4464 63.7047 53.0951 63.6837 56.3833C63.6628 59.6715 66.3114 62.3542 69.5997 62.3751Z" fill="#7800FF"/>
<path d="M69.6762 50.4408C72.9781 50.4619 75.6392 53.1309 75.6441 56.433C75.6231 59.7349 72.9541 62.396 69.652 62.4009C66.35 62.3799 63.689 59.7109 63.684 56.4088C63.7009 53.7568 65.458 51.402 68.0365 50.6904C68.5575 50.5377 69.13 50.4633 69.6762 50.4408ZM69.6811 49.6608C65.9632 49.6371 62.928 52.6339 62.9044 56.3518C62.8807 60.0697 65.8774 63.1049 69.5953 63.1286C73.3392 63.1524 76.3746 60.1297 76.3724 56.3856C76.3764 55.7616 76.3024 55.1371 76.1242 54.538C75.3103 51.6987 72.6969 49.706 69.6811 49.6608Z" fill="black"/>
<path d="M91.0354 89.2142C85.9662 80.9137 73.3659 79.3514 63.0925 71.6938C52.8191 64.0362 46.4915 61.4478 40.5185 60.3177C33.0395 58.892 30.8568 62.7522 30.8568 62.7522L26.7249 62.4139L22.3522 71.3042L26.7366 72.8141C27.5497 75.7834 27.9233 78.3598 38.9085 80.4058C47.6604 82.0216 49.3348 92.6405 62.4681 100.316C75.6015 107.992 83.5068 107.809 83.5068 107.809" fill="#FFAD00"/>
<path d="M83.4266 108.198C82.3866 108.192 74.7185 107.883 62.2843 100.653C55.8083 96.8679 51.9895 92.2675 48.9447 88.608C45.7197 84.6874 43.1653 81.603 38.8282 80.8214C27.9208 78.8018 27.2354 76.1974 26.4223 73.2281L26.3968 73.15L22.22 71.6933C22.0125 71.614 21.9098 71.4054 21.9891 71.1979C21.9891 71.1979 21.9893 71.1719 22.0153 71.172L26.3882 62.2557C26.4672 62.1002 26.6237 62.0232 26.7795 62.0502L30.6776 62.361C31.2809 61.5329 33.8992 58.6635 40.5992 59.9542C45.7409 60.949 52.0459 63.0172 63.3286 71.4093C67.5467 74.5562 72.0837 76.6132 76.4648 78.6431C82.5571 81.438 88.3384 84.0749 91.3747 89.0604C91.4776 89.243 91.4241 89.4767 91.2412 89.6055C91.0586 89.7084 90.8249 89.6549 90.6961 89.4721C87.7885 84.6954 82.3702 82.2168 76.1222 79.369C71.689 77.3387 67.1002 75.2554 62.8305 72.0561C51.6512 63.7427 45.4501 61.7012 40.4122 60.733C33.3486 59.388 31.2466 62.8327 31.1678 62.9622C31.089 63.0917 30.9585 63.1688 30.8025 63.1678L26.9564 62.8573L22.8994 71.1517L26.8687 72.529C26.9986 72.5558 27.1019 72.6605 27.1271 72.7906L27.2034 73.0511C27.94 75.7859 28.5749 78.156 39.0148 80.0945C43.6114 80.9558 46.2431 84.1447 49.5715 88.17C52.7451 92.0123 56.3317 96.3252 62.7041 100.058C75.5786 107.55 83.4571 107.496 83.5351 107.497C83.7431 107.498 83.9239 107.681 83.9226 107.889C83.9213 108.097 83.7381 108.278 83.5301 108.277L83.4266 108.198Z" fill="black"/>
<path d="M27.3113 72.4272C27.9661 71.6774 32.1269 67.4918 30.8544 63.1676C30.8019 63.2453 30.5169 63.0875 30.5169 63.0875L26.904 62.9085L23.1324 71.3086L27.3113 72.4272Z" fill="#E89D00"/>
<path d="M18.9186 59.3216C23.6558 58.5197 23.8449 57.4029 27.0632 58.3074C29.1137 58.8665 29.505 62.7431 28.0767 66.5561C26.6484 70.369 23.9022 72.8996 21.9049 72.1589C19.9075 71.4181 18.4579 70.4209 16.1754 69.5483" fill="#FFCDB2"/>
<path d="M22.6296 72.6837C22.3436 72.6818 22.058 72.628 21.7726 72.5222C20.8648 72.1784 19.9575 71.7566 19.0763 71.309C18.0916 70.7827 17.0805 70.3343 16.043 69.9376C15.8353 69.8843 15.7067 69.6755 15.786 69.468C15.8393 69.2603 16.0481 69.1317 16.2556 69.211C16.2816 69.2111 16.2816 69.2111 16.3075 69.2373C17.3709 69.6341 18.4079 70.1087 19.4186 70.6352C20.2738 71.0826 21.1293 71.4781 22.0371 71.8219C22.8413 72.113 23.8836 71.7556 24.9297 70.8003C26.0541 69.7934 27.026 68.2396 27.6874 66.4498C28.6398 63.8818 28.7611 61.1785 28.0165 59.6917C27.8115 59.2224 27.4238 58.8559 26.9308 58.6968C24.9842 58.1644 24.2289 58.3676 22.7179 58.826C21.4935 59.2082 20.2175 59.512 18.9422 59.7119C18.734 59.7366 18.5269 59.6053 18.4762 59.3969C18.4515 59.1888 18.5829 58.9816 18.7912 58.9309C20.0405 58.7309 21.2644 58.4267 22.4629 58.0443C24.052 57.5604 24.9377 57.3061 27.0918 57.9178C27.7925 58.1303 28.3611 58.6539 28.669 59.3059C29.5422 61.0015 29.4198 63.8868 28.3879 66.6882C27.6737 68.6077 26.6233 70.2391 25.4202 71.3494C24.5044 72.2536 23.5396 72.6895 22.6296 72.6837Z" fill="black"/>
<path d="M94.4273 58.8151C94.4273 58.8151 95.0601 53.3591 91.222 51.8006C87.3838 50.2421 86.91 51.1491 84.94 50.2005C82.97 49.2519 78.9338 50.2142 77.147 53.1669C77.147 53.1669 72.0476 53.6804 69.9471 56.8911C67.8466 60.1018 68.0927 62.2874 69.2704 65.155C70.4482 68.0225 70.5418 69.6612 71.3088 71.6941C72.0759 73.727 75.008 78.7378 83.6547 76.4529C92.3015 74.1679 94.4273 58.8151 94.4273 58.8151Z" fill="#7800FF"/>
<path d="M83.2263 49.851C83.8245 49.8288 84.4216 49.9626 84.9661 50.2C86.9101 51.1485 87.4357 50.2678 91.248 51.8001C95.0604 53.3324 94.4534 58.8147 94.4534 58.8147C94.4534 58.8147 92.3532 74.2196 83.7066 76.4785C82.3522 76.8599 80.947 77.033 79.5429 77.05C74.083 77.0152 72.0003 73.3619 71.3869 71.6939C70.6198 69.661 70.5264 67.9964 69.3485 65.1548C68.1706 62.3133 67.9247 60.1016 70.0252 56.891C72.1257 53.6803 77.225 53.1668 77.225 53.1668C78.5394 50.9131 81.1723 49.8379 83.2263 49.851ZM83.2573 49.0711C81.1253 49.0576 78.3366 50.1058 76.7357 52.4356C75.4344 52.6354 71.269 53.4668 69.3258 56.4705C67.0415 59.966 67.3379 62.412 68.5925 65.462C69.1304 66.7395 69.5379 68.0681 69.8673 69.4222C70.0697 70.3075 70.3242 71.1672 70.6309 72.0011C71.1423 73.3564 73.2979 77.8162 79.5118 77.8558C80.9939 77.8393 82.4512 77.6406 83.8837 77.2597C87.6601 76.2697 90.8285 72.7538 93.0226 67.0997C94.0275 64.4541 94.7728 61.7288 95.2066 58.9495L95.2067 58.9235C95.2344 58.6636 95.8433 52.8694 91.5385 51.0999C89.3082 50.2017 88.1649 50.0904 87.2296 49.9805C86.5797 49.9503 85.9307 49.7902 85.3346 49.5004C84.6604 49.2101 83.9594 49.0496 83.2573 49.0711Z" fill="black"/>
<path d="M37.4667 74.1042C38.1703 74.1086 38.7443 73.5419 38.7488 72.8383C38.7533 72.1347 38.1866 71.5607 37.483 71.5562C36.7794 71.5517 36.2053 72.1185 36.2009 72.8221C36.1964 73.5257 36.7631 74.0997 37.4667 74.1042Z" fill="#FFC140"/>
<path d="M90.6915 73.7412L95.2837 79.3866C95.2837 79.3866 96.271 83.579 84.329 80.7208C84.329 80.7208 84.6327 77.9407 82.0713 71.8663C82.0713 71.8663 79.5388 73.5141 77.9666 71.3461C76.3944 69.178 77.5763 67.3135 78.9827 66.9325C78.9827 66.9325 84.8659 65.8259 81.0602 55.0895C81.0602 55.0895 86.2485 52.8605 90.8574 55.8799C95.4662 58.8993 99.1775 64.0451 97.5387 68.2467C95.8999 72.4484 90.6915 73.7412 90.6915 73.7412Z" fill="#FFCDB2"/>
<path d="M85.4599 54.2595C87.384 54.2458 89.2525 54.8037 90.8838 55.8541C95.4927 58.8736 99.204 64.0193 97.5652 68.2209C95.9264 72.4226 90.6919 73.7413 90.6919 73.7413L95.284 79.3866C95.284 79.3866 95.8409 81.7562 91.057 81.7257C89.471 81.7156 87.2887 81.4417 84.3293 80.7209C84.3293 80.7209 84.633 77.9407 82.0716 71.8663C81.4713 72.2265 80.7678 72.456 80.0657 72.4775C79.2337 72.4722 78.4564 72.0513 77.9929 71.3463C76.4468 69.1524 77.6026 67.3137 79.009 66.9327C79.009 66.9327 84.8922 65.8262 81.0865 55.0897C82.4681 54.5265 83.9519 54.2499 85.4599 54.2595ZM85.4649 53.4796C83.8529 53.4693 82.2651 53.7452 80.7793 54.3337C80.4143 54.4874 80.2035 54.9281 80.357 55.3191C82.1702 60.4787 81.6331 63.1533 80.8705 64.5005C80.4494 65.3038 79.7178 65.8712 78.858 66.1517L78.7798 66.1772C77.7898 66.4829 77.0051 67.2319 76.6609 68.1917C76.2637 69.3332 76.5155 70.6089 77.3661 71.7843C77.9583 72.6981 78.9948 73.2507 80.0869 73.2317C80.6329 73.2352 81.1797 73.1086 81.701 72.904C83.7737 78.1433 83.5759 80.612 83.5758 80.638C83.5473 81.0279 83.805 81.3935 84.1685 81.4738C86.9463 82.1416 89.2581 82.4943 91.078 82.5059C93.288 82.52 94.8251 82.0358 95.5852 81.0786C96.0045 80.5612 96.1908 79.8864 96.0651 79.2096C96.0398 79.1054 95.9886 78.9751 95.9111 78.8966L92.0413 74.1399C93.7876 73.475 97.0481 71.8317 98.3173 68.5117C100.168 63.7134 95.9907 58.2527 91.33 55.207C89.5691 54.0777 87.545 53.4668 85.4649 53.4796Z" fill="black"/>
<path d="M88.6589 74.5088C88.2689 74.5063 87.905 74.478 87.5152 74.4495C87.3074 74.4221 87.1527 74.2131 87.18 74.0053C87.2073 73.7975 87.4163 73.6428 87.6242 73.6701C87.6502 73.6703 89.7287 73.9175 91.1883 73.3548C91.3968 73.2781 91.6039 73.4095 91.6806 73.618C91.7314 73.8003 91.6521 74.0078 91.4696 74.0846C90.5838 74.365 89.6208 74.5149 88.6589 74.5088Z" fill="black"/>
<path d="M81.0359 71.2096C81.0099 71.2094 80.9839 71.2093 80.9579 71.2091C79.7897 70.9156 79.0649 70.417 78.8355 69.6876C78.4781 68.6453 79.3166 67.6366 79.3429 67.5848C79.4739 67.4296 79.7341 67.4053 79.8893 67.5362C80.0444 67.6672 80.0688 67.9274 79.9378 68.0826C79.9376 68.1086 79.3611 68.8069 79.5652 69.4322C79.7437 69.9793 80.5219 70.2703 81.1449 70.4303C81.3525 70.4836 81.4812 70.6924 81.4279 70.9001C81.3745 71.1077 81.2179 71.2108 81.0359 71.2096Z" fill="black"/>
<path d="M86.9279 60.5611C85.0664 62.9933 81.1298 64.6323 81.3037 65.9074C81.4776 67.1825 82.8249 67.9191 84.286 67.1224C85.7471 66.3257 86.9501 65.2414 89.2791 62.8902C91.6081 60.5389 93.73 58.0564 92.3068 56.9813C90.8837 55.9062 89.6809 56.9646 86.9279 60.5611Z" fill="#FFB49F"/>
<path d="M83.0945 66.4125L83.0685 66.4124C82.8606 66.385 82.7058 66.202 82.7071 65.9941C82.9887 62.6158 86.1094 62.5057 86.1354 62.5058C86.3434 62.5072 86.5243 62.6903 86.5229 62.8983C86.5216 63.1063 86.3385 63.2871 86.1305 63.2858C86.0265 63.2852 83.6858 63.3742 83.4608 66.0509C83.4595 66.2588 83.2765 66.4137 83.0945 66.4125Z" fill="black"/>
<path d="M85.9308 58.007C85.7228 58.0057 85.5418 57.8485 85.5171 57.6404C85.5184 57.4324 85.6756 57.2514 85.8837 57.2267C86.4822 57.1525 87.0557 56.9222 87.5518 56.5873C87.7346 56.4585 87.9685 56.486 88.0973 56.6688C88.2263 56.8256 88.1987 57.0855 88.0158 57.2143C87.415 57.6525 86.7114 57.908 85.9568 58.0072L85.9308 58.007Z" fill="black"/>
<path d="M88.0911 69.8501C87.5971 69.8469 87.1037 69.7398 86.6367 69.5808C86.4292 69.5015 86.3527 69.267 86.4321 69.0595C86.5112 68.878 86.6939 68.7752 86.9015 68.8285C89.2365 69.6234 90.209 67.9915 90.2615 67.9139C90.3666 67.7325 90.6011 67.656 90.7825 67.7612C90.9638 67.8664 91.0403 68.1009 90.9351 68.2822C90.3308 69.2664 89.2351 69.8574 88.0911 69.8501Z" fill="black"/>
<path d="M75.3644 67.6373C75.2344 67.6365 75.1564 67.636 75.1304 67.6358C74.9225 67.6345 74.7416 67.4513 74.7689 67.2435C74.7703 67.0355 74.9534 66.8547 75.1613 66.882C75.1873 66.8821 78.6963 67.0345 80.4489 65.3816C80.6059 65.2266 80.8399 65.2281 80.9949 65.3851C81.1499 65.5421 81.1484 65.7761 80.9914 65.9311C80.9914 65.9311 80.9914 65.9311 80.9652 65.9569C79.2652 67.5321 76.2484 67.6429 75.3644 67.6373Z" fill="black"/>
<path d="M78.079 66.043C77.949 66.0421 77.8193 65.9893 77.7422 65.8588C77.6133 65.676 77.6668 65.4423 77.8496 65.3135C82.1053 62.5585 79.7958 57.7597 79.6931 57.5511C79.5903 57.3684 79.6698 57.1349 79.8784 57.0322C80.0611 56.9294 80.2946 57.0089 80.3973 57.2175C80.4229 57.2697 83.1176 62.825 78.2875 65.9663C78.235 66.044 78.157 66.0435 78.079 66.043Z" fill="white"/>
<path d="M61.3384 57.2779C61.2084 57.2771 61.0789 57.1982 61.0017 57.0677C60.282 55.7631 60.1083 54.462 60.4539 53.2682C61.0915 51.1402 63.1527 50.0093 63.2311 49.9578C63.4137 49.8549 63.6472 49.9344 63.7499 50.1431C63.8527 50.3258 63.7732 50.5593 63.5906 50.6621C63.5646 50.6619 61.712 51.6901 61.1804 53.5068C60.888 54.519 61.0372 55.5859 61.654 56.7079C61.7569 56.8905 61.6774 57.124 61.4947 57.2269C61.4685 57.2527 61.3904 57.2782 61.3384 57.2779Z" fill="black"/>
<path d="M91.0911 64.2279C91.0131 64.2274 90.9613 64.2011 90.9094 64.1748L86.6091 61.7033C86.4278 61.5982 86.3513 61.3637 86.4564 61.1824C86.5616 61.001 86.7961 60.9245 86.9774 61.0297L91.2777 63.5011C91.4591 63.6063 91.5356 63.8408 91.4304 64.0221C91.3516 64.1516 91.2211 64.2288 91.0911 64.2279Z" fill="black"/>
<path d="M140.223 28.9203C144.94 27.2343 149.373 25.1825 148.84 27.3112C148.279 29.5437 146.107 31.7659 139.965 32.6887C134.109 33.5615 133.519 32.3357 133.519 32.3357" fill="#FFCDB2"/>
<path d="M136.268 33.3932C133.85 33.3778 133.308 32.7503 133.18 32.5155C133.103 32.307 133.182 32.0995 133.365 31.9967C133.547 31.9198 133.755 31.9732 133.858 32.1298C133.91 32.1822 134.84 33.0461 139.915 32.2984C144.938 31.5504 147.809 29.8527 148.476 27.2309C148.529 27.0752 148.53 26.9192 148.478 26.8929C148.012 26.4739 145.12 27.5475 142.8 28.4167C142.018 28.7238 141.184 29.0305 140.376 29.3113C140.168 29.362 139.961 29.2307 139.91 29.0483C139.859 28.866 139.964 28.6587 140.121 28.5817C140.955 28.301 141.763 27.9941 142.545 27.6871C146.245 26.3067 148.226 25.6173 149.002 26.2982C149.208 26.4815 149.388 26.7947 149.254 27.4179C148.508 30.3771 145.427 32.2816 140.066 33.0794C138.791 33.2793 137.542 33.3753 136.268 33.3932Z" fill="black"/>
<path d="M128.709 24.1408C128.709 24.1408 137.3 18.3974 138.482 20.485C139.665 22.5726 133.799 25.1092 133.209 27.9395C132.619 30.7698 128.709 24.1408 128.709 24.1408Z" fill="#FFCDB2"/>
<path d="M132.656 29.0537C131.252 29.0448 129.039 25.4686 128.396 24.3465C128.293 24.1638 128.346 23.9302 128.529 23.8273C129.26 23.338 135.657 19.1407 138.02 19.7017C138.383 19.782 138.668 19.9919 138.848 20.305C139.619 21.688 138.102 23.0563 136.481 24.528C135.252 25.6122 133.866 26.8514 133.624 28.0459C133.463 28.7989 133.098 29.0045 132.812 29.0547C132.76 29.0544 132.708 29.054 132.656 29.0537ZM129.254 24.274C130.618 26.5187 132.192 28.3487 132.661 28.2737C132.713 28.2741 132.792 28.1446 132.845 27.8849C133.14 26.4567 134.579 25.1659 135.939 23.9265C137.325 22.6873 138.632 21.5257 138.143 20.6905C138.066 20.56 137.937 20.4812 137.807 20.4544C136.171 20.08 131.343 22.9092 129.254 24.274Z" fill="black"/>
<path d="M124.695 29.705C124.695 29.705 125.882 23.0044 131.232 23.9745C136.582 24.9446 138.573 26.6993 141.268 23.9865C145.769 19.4391 149.228 19.2531 145.202 26.7936C141.176 34.3341 128.405 35.1627 128.405 35.1627" fill="#FFCDB2"/>
<path d="M128.402 35.579C128.194 35.5776 128.013 35.4205 127.988 35.2123C127.964 35.0041 128.147 34.8233 128.355 34.7986C128.485 34.7995 140.971 33.891 144.839 26.6355C147.234 22.1267 146.459 21.3678 146.356 21.2891C145.942 20.9745 144.248 21.5097 141.5 24.2742C139.355 26.4446 137.616 25.9655 134.734 25.2191C133.696 24.9525 132.528 24.633 131.125 24.3901C129.957 24.1487 128.76 24.375 127.767 25.0447C125.626 26.5391 125.033 29.7854 125.033 29.8114C125.005 30.0192 124.796 30.1739 124.563 30.1464C124.329 30.1189 124.2 29.9101 124.228 29.6762C124.255 29.5204 124.901 26.0665 127.303 24.3918C128.453 23.5931 129.884 23.3162 131.234 23.6108C132.663 23.8799 133.857 24.1735 134.895 24.4661C137.698 25.212 139.1 25.5849 140.906 23.7244C141.9 22.7167 145.249 19.54 146.776 20.6678C147.759 21.402 147.329 23.5313 145.487 27.0037C141.486 34.6223 128.974 35.5306 128.402 35.579Z" fill="black"/>
<path d="M81.1512 73.6285C81.6968 73.632 82.142 73.1925 82.1455 72.6468C82.1489 72.1012 81.7094 71.656 81.1638 71.6525C80.6181 71.6491 80.173 72.0886 80.1695 72.6342C80.166 73.1799 80.6055 73.625 81.1512 73.6285Z" fill="#FFAD00"/>
<path d="M81.1634 71.6785C81.7094 71.6819 82.1485 72.1267 82.1451 72.6727C82.1422 73.1147 81.8539 73.4769 81.4371 73.6042C81.3589 73.6297 81.255 73.6291 81.177 73.6286C80.631 73.6251 80.2178 73.1805 80.2213 72.6345C80.2239 72.2185 80.5124 71.8303 80.9292 71.703C80.9812 71.7033 81.0854 71.678 81.1634 71.6785ZM81.1683 70.8985C80.2064 70.8923 79.3954 71.6672 79.3891 72.6552C79.3828 73.6431 80.1578 74.4281 81.1458 74.4344C81.3018 74.4354 81.484 74.4105 81.6403 74.3595C82.5779 74.1055 83.1042 73.1208 82.85 72.2092C82.647 71.4279 81.9483 70.9034 81.1683 70.8985Z" fill="black"/>
<path d="M65.6204 58.5014C65.4644 58.5004 65.3091 58.3954 65.2581 58.239C64.7215 56.7536 64.73 55.4276 65.3089 54.3393C66.2561 52.5773 68.3136 52.0444 68.4177 52.019C68.6261 51.9684 68.8332 52.0997 68.8839 52.308C68.9346 52.5163 68.8032 52.7235 68.5949 52.7742C68.5689 52.774 66.772 53.2306 65.9826 54.7076C65.5089 55.5886 65.5018 56.7066 65.9619 57.9575C66.0385 58.166 65.9332 58.3733 65.7247 58.45C65.6986 58.4758 65.6724 58.5017 65.6204 58.5014Z" fill="white"/>
<path d="M122.534 34.2933L122.508 34.2931C123.206 34.9736 127.883 39.4495 134.334 38.9706L134.464 38.9454L135.044 33.671L124.456 30.4835L122.534 34.2933Z" fill="#E89D00"/>
<path d="M152.85 91.5834C154.443 90.4495 156.217 89.5508 158.093 88.9648C159.969 88.3527 161.92 88.0531 163.897 88.0397C165.795 88.0258 167.717 88.3241 169.533 88.8816C173.088 89.9963 176.273 92.1227 178.647 94.9979C178.801 95.1809 178.93 95.3637 179.085 95.5467C179.24 95.7037 179.474 95.7052 179.631 95.5502C179.788 95.3952 179.79 95.1612 179.635 95.0042C178.448 93.4886 177.053 92.1276 175.5 91.0257C173.947 89.8978 172.211 89.0027 170.395 88.3671C168.527 87.7052 166.605 87.3549 164.629 87.2904C162.602 87.2254 160.572 87.4725 158.619 88.0321C156.665 88.5656 154.788 89.4117 153.091 90.5189C152.882 90.6476 152.673 90.8023 152.464 90.9569C152.281 91.0598 152.228 91.2934 152.33 91.4761C152.434 91.6068 152.667 91.6602 152.85 91.5834Z" fill="black"/>
<path d="M209.418 76.7077L213.485 70.9355L217.552 65.1373L219.834 61.8758C219.94 61.6945 219.889 61.4601 219.708 61.329C219.527 61.2238 219.292 61.2743 219.161 61.4555L215.094 67.2277L211.053 73.0261L208.77 76.2876C208.665 76.4689 208.716 76.7033 208.897 76.8344C209.104 76.9397 209.339 76.8892 209.418 76.7077Z" fill="black"/>
<path d="M127.221 110.842C127.924 110.847 128.498 110.28 128.503 109.577C128.507 108.873 127.94 108.299 127.237 108.294C126.533 108.29 125.959 108.857 125.955 109.56C125.95 110.264 126.517 110.838 127.221 110.842Z" fill="#FFC140"/>
<path d="M91.4726 114.567C92.1762 114.572 92.7502 114.005 92.7547 113.301C92.7592 112.598 92.1924 112.024 91.4888 112.019C90.7852 112.015 90.2112 112.582 90.2067 113.285C90.2022 113.989 90.769 114.563 91.4726 114.567Z" fill="#FFC140"/>
<path d="M110.472 115.624C111.175 115.629 111.749 115.062 111.754 114.358C111.758 113.655 111.191 113.081 110.488 113.076C109.784 113.072 109.21 113.639 109.206 114.342C109.201 115.046 109.768 115.62 110.472 115.624Z" fill="#FFC140"/>
<path d="M97.3642 99.7585C98.0678 99.7629 98.6418 99.1962 98.6463 98.4926C98.6508 97.789 98.084 97.215 97.3804 97.2105C96.6768 97.206 96.1028 97.7728 96.0983 98.4764C96.0938 99.18 96.6606 99.754 97.3642 99.7585Z" fill="#FFC140"/>
<path d="M115.204 103.356C115.908 103.36 116.482 102.794 116.486 102.09C116.491 101.386 115.924 100.812 115.22 100.808C114.517 100.803 113.943 101.37 113.938 102.074C113.934 102.777 114.5 103.351 115.204 103.356Z" fill="#FFC140"/>
<path d="M105.539 90.0606C106.243 90.0651 106.817 89.4984 106.821 88.7948C106.826 88.0912 106.259 87.5172 105.555 87.5128C104.852 87.5083 104.278 88.075 104.273 88.7786C104.269 89.4822 104.835 90.0562 105.539 90.0606Z" fill="#FFC140"/>
<path d="M39.1259 66.6786C39.8295 66.6831 40.4035 66.1164 40.408 65.4128C40.4125 64.7092 39.8457 64.1352 39.1421 64.1307C38.4385 64.1262 37.8645 64.6929 37.86 65.3965C37.8556 66.1001 38.4223 66.6741 39.1259 66.6786Z" fill="#FFC140"/>
<path d="M66.1884 79.6169C66.892 79.6213 67.466 79.0546 67.4705 78.351C67.475 77.6474 66.9082 77.0734 66.2046 77.0689C65.501 77.0644 64.927 77.6312 64.9225 78.3348C64.9181 79.0384 65.4848 79.6124 66.1884 79.6169Z" fill="#FFC140"/>
<path d="M49.7382 78.3422C50.4418 78.3467 51.0158 77.7799 51.0203 77.0763C51.0248 76.3727 50.458 75.7987 49.7544 75.7943C49.0508 75.7898 48.4768 76.3565 48.4724 77.0601C48.4679 77.7637 49.0346 78.3377 49.7382 78.3422Z" fill="#FFC140"/>
<path d="M70.246 99.8192C70.9496 99.8237 71.5237 99.257 71.5281 98.5534C71.5326 97.8498 70.9659 97.2758 70.2623 97.2713C69.5587 97.2668 68.9846 97.8335 68.9802 98.5371C68.9757 99.2407 69.5424 99.8148 70.246 99.8192Z" fill="#FFC140"/>
<path d="M104.004 73.852C104.707 73.8564 105.281 73.2897 105.286 72.5861C105.29 71.8825 104.724 71.3085 104.02 71.304C103.316 71.2995 102.742 71.8663 102.738 72.5699C102.733 73.2735 103.3 73.8475 104.004 73.852Z" fill="#FFC140"/>
<path d="M122.082 72.5631C122.786 72.5676 123.36 72.0009 123.364 71.2973C123.369 70.5937 122.802 70.0197 122.098 70.0152C121.395 70.0107 120.821 70.5775 120.816 71.281C120.812 71.9846 121.378 72.5587 122.082 72.5631Z" fill="#FFC140"/>
<path d="M114.202 52.5707C114.906 52.5752 115.48 52.0085 115.484 51.3049C115.489 50.6013 114.922 50.0272 114.218 50.0228C113.515 50.0183 112.941 50.585 112.936 51.2886C112.932 51.9922 113.498 52.5662 114.202 52.5707Z" fill="#FFC140"/>
<path d="M129.309 48.3769C130.012 48.3814 130.586 47.8146 130.591 47.111C130.595 46.4074 130.028 45.8334 129.325 45.8289C128.621 45.8244 128.047 46.3912 128.043 47.0948C128.038 47.7984 128.605 48.3724 129.309 48.3769Z" fill="#FFC140"/>
<path d="M175.84 102.832C177.08 104.14 178.241 105.526 179.324 106.963C180.406 108.426 181.411 109.966 182.337 111.558C183.236 113.15 184.058 114.767 184.749 116.461C186.158 119.798 187.176 123.315 187.777 126.907C187.801 127.115 187.852 127.349 187.877 127.558C187.927 127.766 188.161 127.871 188.343 127.821C188.551 127.744 188.657 127.537 188.606 127.354C188.332 125.532 187.953 123.736 187.47 121.965C186.988 120.194 186.375 118.448 185.683 116.753C184.992 115.033 184.197 113.364 183.323 111.746C181.55 108.511 179.385 105.507 176.88 102.813L176.416 102.29C176.054 101.898 175.504 102.466 175.84 102.832Z" fill="white"/>
<path d="M90.0001 59.9569C90.3591 59.9592 90.6519 59.6701 90.6542 59.3111C90.6565 58.9521 90.3674 58.6593 90.0084 58.657C89.6494 58.6547 89.3565 58.9438 89.3543 59.3028C89.352 59.6618 89.6411 59.9547 90.0001 59.9569Z" fill="black"/>
<path d="M48.2098 57.0383C48.1578 57.038 48.1058 57.0377 48.054 57.0113C36.1514 52.0474 28.5314 40.0906 24.2217 30.9369C21.4002 24.8868 19.2043 18.5807 17.6856 12.0969C17.6349 11.8885 17.7662 11.6814 18.0005 11.6309C18.2349 11.5804 18.416 11.7115 18.4666 11.9458C19.9856 18.3777 22.1556 24.6576 24.9516 30.6296C29.1842 39.6527 36.7012 51.4529 48.3705 56.3113C48.578 56.3907 48.6545 56.6252 48.5751 56.8327C48.5225 56.9363 48.3658 57.0393 48.2098 57.0383Z" fill="black"/>
<path d="M21.4038 40.6172C21.2998 40.6165 21.222 40.59 21.1445 40.5115C13.2057 33.7008 8.35713 23.4257 5.6744 15.9985C3.96259 11.2554 2.6416 6.38493 1.73726 1.41307C1.71259 1.2049 1.84391 0.997737 2.07807 0.973229C2.28623 0.948555 2.4934 1.07988 2.51791 1.31404C2.56825 1.57437 6.6698 27.081 21.6421 39.9427C21.7973 40.0737 21.8217 40.3339 21.6907 40.489C21.6382 40.5667 21.5078 40.6179 21.4038 40.6172Z" fill="black"/>
<path d="M140.85 24.374C140.85 24.374 144.855 20.1354 146.384 20.8212C147.914 21.5069 145.828 26.6157 144.1 28.4767" fill="#FFCDB2"/>
<path d="M144.097 28.8666C143.993 28.8659 143.916 28.8134 143.838 28.7609C143.683 28.6039 143.685 28.3699 143.816 28.2148C145.177 26.7674 146.786 23.1116 146.484 21.6276C146.408 21.2891 146.278 21.2103 146.226 21.21C145.371 20.8145 142.731 23.0077 141.134 24.6616C141.003 24.8168 140.743 24.8411 140.588 24.7101C140.433 24.5791 140.408 24.319 140.539 24.1638C140.54 24.1378 140.566 24.138 140.566 24.112C141.272 23.3625 144.858 19.7192 146.543 20.484C146.932 20.6684 147.189 21.0601 147.239 21.4764C147.592 23.2207 145.903 27.11 144.384 28.7644C144.306 28.8419 144.201 28.8672 144.097 28.8666Z" fill="black"/>
<path d="M124.482 103.935C124.326 103.934 124.171 103.829 124.12 103.699C120.128 93.5334 102.765 84.6086 102.583 84.5294C102.376 84.4501 102.299 84.2156 102.379 84.0081C102.458 83.8006 102.693 83.7241 102.9 83.8034C102.9 83.8034 102.926 83.8036 102.926 83.8296C103.652 84.1982 120.73 92.9652 124.824 103.418C124.9 103.626 124.795 103.833 124.612 103.936C124.586 103.936 124.534 103.936 124.482 103.935Z" fill="white"/>
</svg>
